<?xml version="1.0" encoding="utf-8"?>
<!-- Generator: Adobe Illustrator 25.1.0, SVG Export Plug-In . SVG Version: 6.00 Build 0)  -->
<svg version="1.1" id="Final_logo" xmlns="http://www.w3.org/2000/svg" xmlns:xlink="http://www.w3.org/1999/xlink" x="0px" y="0px"
	 viewBox="0 0 720 720" style="enable-background:new 0 0 720 720;" xml:space="preserve">
<style type="text/css">
	.st0{font-family:'FuturaBT-Medium';}
	.st1{font-size:38px;}
	.st2{fill:#FF7AB0;}
	.st3{fill:#2E3192;}
	.st4{fill:none;}
	.st5{fill:#D4145A;}
</style>
<g>
	<path d="M165.3,491.7c-2.3-2.1-4.7-3.6-7.1-4.5c-2.4-1-5-1.4-7.8-1.4c-5.7,0-10.2,1.7-13.6,5.1c-3.4,3.4-5.1,8-5.1,13.7
		c0,5.6,1.6,10.1,4.7,13.3c3.1,3.3,7.4,4.9,12.8,4.9c3.1,0,5.9-0.5,8.6-1.5c2.6-1,5.1-2.6,7.4-4.6l-0.1,11.7c-2.4,1.4-5,2.5-7.6,3.2
		c-2.7,0.7-5.5,1.1-8.4,1.1c-8.5,0-15.5-2.6-20.9-7.9c-5.4-5.3-8.2-12-8.2-20.1c0-8.1,2.7-14.8,8.2-20.1c5.5-5.3,12.5-7.9,21.1-7.9
		c2.9,0,5.7,0.3,8.4,0.9c2.7,0.6,5.4,1.5,8,2.8L165.3,491.7z"/>
	<path d="M226.4,531.1h-13.1l-14-24.9v24.9h-11.4v-53.3h16.3c6.5,0,11.3,1.3,14.6,3.8c3.2,2.5,4.8,6.3,4.8,11.3
		c0,3.7-1.1,6.8-3.3,9.4c-2.2,2.6-5.1,4.1-8.6,4.6L226.4,531.1z M199.2,500.6h1.7c4.6,0,7.7-0.5,9.1-1.5c1.5-1,2.2-2.8,2.2-5.3
		c0-2.6-0.8-4.5-2.4-5.6c-1.6-1.1-4.6-1.7-9-1.7h-1.7V500.6z"/>
	<path d="M244.9,531.1v-53.3h31.4v9.6h-20v11h20v9.7h-20v13.4h20v9.7H244.9z"/>
	<path d="M319.4,487.5v43.6h-11.4v-43.6h-13v-9.7h37.5v9.7H319.4z"/>
	<path d="M347.2,531.1l8.1-53.3h11.9l10.3,31.4c0.2,0.7,0.5,1.6,0.7,2.9c0.3,1.3,0.5,2.7,0.7,4.3c0.2-1.6,0.4-3.1,0.7-4.4
		c0.2-1.3,0.5-2.2,0.7-2.9l10.5-31.3h11.8l8.2,53.3h-10.8l-3.9-32.2c-0.3-2.4-0.5-4.2-0.6-5.4s-0.1-2.3-0.1-3.4c0-0.6,0-1,0-1.3
		c0-0.3,0-0.5,0.1-0.7c-0.4,2.1-0.7,3.9-1,5.4c-0.3,1.5-0.6,2.7-0.9,3.4L382,531.1h-6.4l-11.1-34.1c-0.1-0.3-0.3-1.2-0.6-2.6
		c-0.3-1.4-0.8-3.5-1.4-6.3v1.6c0,2.5-0.2,5.5-0.7,9.1l0,0.1l-3.9,32.2H347.2z"/>
	<path d="M423.6,531.1l20.3-53.3h13l20.6,53.3h-13l-4.3-11.3h-20.6l-3.7,11.3H423.6z M457.6,510.9l-6-17.2c-0.2-0.5-0.4-1.4-0.7-2.6
		s-0.5-2.8-0.8-4.6c-0.3,1.7-0.6,3.3-0.9,4.6c-0.3,1.4-0.5,2.3-0.7,2.8l-5.8,17H457.6z"/>
	<path d="M533.6,531.1h-13.1l-14-24.9v24.9h-11.4v-53.3h16.3c6.5,0,11.3,1.3,14.6,3.8c3.2,2.5,4.8,6.3,4.8,11.3
		c0,3.7-1.1,6.8-3.3,9.4s-5.1,4.1-8.6,4.6L533.6,531.1z M506.5,500.6h1.7c4.6,0,7.7-0.5,9.1-1.5c1.5-1,2.2-2.8,2.2-5.3
		c0-2.6-0.8-4.5-2.4-5.6c-1.6-1.1-4.6-1.7-9-1.7h-1.7V500.6z"/>
	<path d="M552.2,531.1v-53.3h11.4V502l17.8-24.1h13.2l-19.1,24.3l19.8,29h-13.7l-17.9-27.9v27.9H552.2z"/>
</g>
<text transform="matrix(1 0 0 1 209.1494 578.6512)" class="st0 st1">Business Solutions</text>
<polygon class="st2" points="433.5,326.2 433.5,326.2 433.5,326.1 "/>
<g>
	<g>
		<path class="st3" d="M558.4,141.6L436.9,263.1l-79.5-78.3c-2.6-2.6-5.2-5-7.9-7.3c-58.3-50.5-146.9-48-202.2,7.3
			c-28.1,28.1-43.5,65.4-43.5,105.1c0,39.7,15.5,77,43.5,105.1s65.4,43.5,105.1,43.5c39.7,0,77-15.5,105.1-43.5l79.7-79.7
			l121.1,123.2h37V141.4L558.4,141.6z M331.2,368.7c-21.1,21.1-49.1,32.7-78.9,32.7c-29.8,0-57.8-11.6-78.9-32.7
			c-21.1-21.1-32.7-49.1-32.7-78.9c0-29.8,11.6-57.8,32.7-78.9c21.1-21.1,49.1-32.7,78.9-32.7c26.1,0,50.9,8.9,70.9,25.4
			c2.8,2.3,5.5,4.8,8.1,7.4l79.4,78.2L331.2,368.7z M463.3,289l94.9-94.9v188.4L463.3,289z"/>
	</g>
</g>
<path class="st5" d="M595.2,141.4v297.1h-37l0-56l0,0V194.1L463.3,289l-26.2,26.2l-26.4-26l-79.4-78.2c-2.6-2.6-5.3-5.1-8.1-7.4
	l26.3-26.3c2.7,2.3,5.3,4.8,7.9,7.3l79.5,78.3l121.5-121.5L595.2,141.4z"/>
</svg>
