<?xml version="1.0"?>
<svg xmlns="http://www.w3.org/2000/svg" xmlns:xlink="http://www.w3.org/1999/xlink" xmlns:svgjs="http://svgjs.com/svgjs" version="1.1" width="62" height="62" x="0" y="0" viewBox="0 0 469.333 469.333" style="enable-background:new 0 0 512 512" xml:space="preserve" class=""><circle r="234.6665" cx="234.6665" cy="234.6665" fill="#0c2072" shape="circle"/><g transform="matrix(0.7,0,0,0.7,70.40009765625001,70.40009765625001)">
<g xmlns="http://www.w3.org/2000/svg">
	<g>
		<g>
			<path d="M170.667,0h-128C19.135,0,0,19.135,0,42.667v128c0,23.531,19.135,42.667,42.667,42.667h128     c23.531,0,42.667-19.135,42.667-42.667v-128C213.333,19.135,194.198,0,170.667,0z" fill="#ede9e9" data-original="#000000" style="" class=""/>
			<path d="M426.667,0h-128C275.135,0,256,19.135,256,42.667v128c0,23.531,19.135,42.667,42.667,42.667h128     c23.531,0,42.667-19.135,42.667-42.667v-128C469.333,19.135,450.198,0,426.667,0z" fill="#ede9e9" data-original="#000000" style="" class=""/>
			<path d="M170.667,256h-128C19.135,256,0,275.135,0,298.667v128c0,23.531,19.135,42.667,42.667,42.667h128     c23.531,0,42.667-19.135,42.667-42.667v-128C213.333,275.135,194.198,256,170.667,256z" fill="#ede9e9" data-original="#000000" style="" class=""/>
			<path d="M416,341.333h-32v-32c0-5.896-4.771-10.667-10.667-10.667H352c-5.896,0-10.667,4.771-10.667,10.667v32h-32     c-5.896,0-10.667,4.771-10.667,10.667v21.333c0,5.896,4.771,10.667,10.667,10.667h32v32c0,5.896,4.771,10.667,10.667,10.667     h21.333c5.896,0,10.667-4.771,10.667-10.667v-32h32c5.896,0,10.667-4.771,10.667-10.667V352     C426.667,346.104,421.896,341.333,416,341.333z" fill="#ede9e9" data-original="#000000" style="" class=""/>
		</g>
	</g>
</g>
<g xmlns="http://www.w3.org/2000/svg">
</g>
<g xmlns="http://www.w3.org/2000/svg">
</g>
<g xmlns="http://www.w3.org/2000/svg">
</g>
<g xmlns="http://www.w3.org/2000/svg">
</g>
<g xmlns="http://www.w3.org/2000/svg">
</g>
<g xmlns="http://www.w3.org/2000/svg">
</g>
<g xmlns="http://www.w3.org/2000/svg">
</g>
<g xmlns="http://www.w3.org/2000/svg">
</g>
<g xmlns="http://www.w3.org/2000/svg">
</g>
<g xmlns="http://www.w3.org/2000/svg">
</g>
<g xmlns="http://www.w3.org/2000/svg">
</g>
<g xmlns="http://www.w3.org/2000/svg">
</g>
<g xmlns="http://www.w3.org/2000/svg">
</g>
<g xmlns="http://www.w3.org/2000/svg">
</g>
<g xmlns="http://www.w3.org/2000/svg">
</g>
</g></svg>
