<svg width="1020" height="298" viewBox="0 0 1020 298" fill="none" xmlns="http://www.w3.org/2000/svg">
<path d="M454.6 0.210104L333.1 121.71L253.6 43.4101C251 40.8101 248.4 38.4101 245.7 36.1101C187.4 -14.3899 98.8 -11.8899 43.5 43.4101C15.4 71.5101 0 108.81 0 148.51C0 188.21 15.5 225.51 43.5 253.61C71.5 281.71 108.9 297.11 148.6 297.11C188.3 297.11 225.6 281.61 253.7 253.61L333.4 173.91L454.5 297.11H491.5V0.0100913L454.6 0.210104ZM227.4 227.31C206.3 248.41 178.3 260.01 148.5 260.01C118.7 260.01 90.7 248.41 69.6 227.31C48.5 206.21 36.9 178.21 36.9 148.41C36.9 118.61 48.5 90.6101 69.6 69.5101C90.7 48.4101 118.7 36.8101 148.5 36.8101C174.6 36.8101 199.4 45.7101 219.4 62.2101C222.2 64.5101 224.9 67.0101 227.5 69.6101L306.9 147.81L227.4 227.31ZM359.5 147.61L454.4 52.7101V241.11L359.5 147.61Z" fill="#2E3192"/>
<path d="M491.4 0.0100098V297.11H454.4V241.11V52.71L359.5 147.61L333.3 173.81L306.9 147.81L227.5 69.61C224.9 67.01 222.2 64.51 219.4 62.21L245.7 35.91C248.4 38.21 251 40.71 253.6 43.21L333.1 121.51L454.6 0.0100098H491.4Z" fill="#B72851"/>
<path d="M532.15 148.5C532.15 142.32 533.53 136.8 536.29 131.94C539.11 127.02 542.92 123.21 547.72 120.51C552.58 117.75 558.01 116.37 564.01 116.37C571.03 116.37 577.18 118.17 582.46 121.77C587.74 125.37 591.43 130.35 593.53 136.71H579.04C577.6 133.71 575.56 131.46 572.92 129.96C570.34 128.46 567.34 127.71 563.92 127.71C560.26 127.71 556.99 128.58 554.11 130.32C551.29 132 549.07 134.4 547.45 137.52C545.89 140.64 545.11 144.3 545.11 148.5C545.11 152.64 545.89 156.3 547.45 159.48C549.07 162.6 551.29 165.03 554.11 166.77C556.99 168.45 560.26 169.29 563.92 169.29C567.34 169.29 570.34 168.54 572.92 167.04C575.56 165.48 577.6 163.2 579.04 160.2H593.53C591.43 166.62 587.74 171.63 582.46 175.23C577.24 178.77 571.09 180.54 564.01 180.54C558.01 180.54 552.58 179.19 547.72 176.49C542.92 173.73 539.11 169.92 536.29 165.06C533.53 160.2 532.15 154.68 532.15 148.5ZM636.692 180L622.832 155.52H616.892V180H604.292V117.18H627.872C632.732 117.18 636.872 118.05 640.292 119.79C643.712 121.47 646.262 123.78 647.942 126.72C649.682 129.6 650.552 132.84 650.552 136.44C650.552 140.58 649.352 144.33 646.952 147.69C644.552 150.99 640.982 153.27 636.242 154.53L651.272 180H636.692ZM616.892 146.07H627.422C630.842 146.07 633.392 145.26 635.072 143.64C636.752 141.96 637.592 139.65 637.592 136.71C637.592 133.83 636.752 131.61 635.072 130.05C633.392 128.43 630.842 127.62 627.422 127.62H616.892V146.07ZM674.548 127.35V143.1H695.698V153.09H674.548V169.74H698.398V180H661.948V117.09H698.398V127.35H674.548ZM752.599 117.18V127.35H735.859V180H723.259V127.35H706.519V117.18H752.599ZM830.282 117.18V180H817.682V139.14L800.852 180H791.312L774.392 139.14V180H761.792V117.18H776.102L796.082 163.89L816.062 117.18H830.282ZM881.259 168.03H856.239L852.099 180H838.869L861.459 117.09H876.129L898.719 180H885.399L881.259 168.03ZM877.839 157.95L868.749 131.67L859.659 157.95H877.839ZM939.563 180L925.703 155.52H919.763V180H907.163V117.18H930.743C935.603 117.18 939.743 118.05 943.163 119.79C946.583 121.47 949.133 123.78 950.813 126.72C952.553 129.6 953.423 132.84 953.423 136.44C953.423 140.58 952.223 144.33 949.823 147.69C947.423 150.99 943.853 153.27 939.113 154.53L954.143 180H939.563ZM919.763 146.07H930.293C933.713 146.07 936.263 145.26 937.943 143.64C939.623 141.96 940.463 139.65 940.463 136.71C940.463 133.83 939.623 131.61 937.943 130.05C936.263 128.43 933.713 127.62 930.293 127.62H919.763V146.07ZM1000.28 180L977.419 152.01V180H964.819V117.18H977.419V145.35L1000.28 117.18H1015.49L989.569 148.32L1016.21 180H1000.28Z" fill="black"/>
</svg>
