<svg width="455" height="292" viewBox="0 0 455 292" fill="none" xmlns="http://www.w3.org/2000/svg">
<path d="M204.257 164.71C202.159 164.735 200.092 164.215 198.257 163.2L85.8065 98.2003C84.6221 97.6126 83.6254 96.7058 82.9286 95.5821C82.2318 94.4585 81.8625 93.1625 81.8625 91.8403C81.8625 90.5181 82.2318 89.2222 82.9286 88.0985C83.6254 86.9748 84.6221 86.068 85.8065 85.4803L230.907 1.71031C232.753 0.724617 234.814 0.208984 236.907 0.208984C238.999 0.208984 241.06 0.724617 242.907 1.71031L355.357 66.7103C356.544 67.2954 357.544 68.2012 358.243 69.3252C358.942 70.4492 359.313 71.7466 359.313 73.0703C359.313 74.3941 358.942 75.6914 358.243 76.8154C357.544 77.9395 356.544 78.8453 355.357 79.4303L210.257 163.2C208.421 164.214 206.353 164.734 204.257 164.71Z" fill="#E0E0E0"/>
<path d="M86.1866 241.94C84.0898 241.963 82.0227 241.443 80.1866 240.43L3.95655 196.43C2.76908 195.845 1.76911 194.939 1.06986 193.815C0.370605 192.691 0 191.394 0 190.07C0 188.747 0.370605 187.449 1.06986 186.325C1.76911 185.201 2.76908 184.295 3.95655 183.71L105.257 125.15C107.103 124.165 109.164 123.649 111.257 123.649C113.35 123.649 115.41 124.165 117.257 125.15L193.487 169.15C194.674 169.735 195.674 170.641 196.373 171.765C197.072 172.889 197.443 174.186 197.443 175.51C197.443 176.834 197.072 178.131 196.373 179.255C195.674 180.379 194.674 181.285 193.487 181.87L92.1966 240.43C90.3583 241.447 88.287 241.967 86.1866 241.94Z" fill="#E0E0E0"/>
<path d="M335.177 241.08C333.079 241.099 331.012 240.575 329.177 239.56L214.927 173.56C213.739 172.975 212.739 172.069 212.04 170.945C211.341 169.821 210.97 168.524 210.97 167.2C210.97 165.877 211.341 164.579 212.04 163.455C212.739 162.331 213.739 161.425 214.927 160.84L323.817 97.8403C325.663 96.8563 327.724 96.3417 329.817 96.3417C331.909 96.3417 333.97 96.8563 335.817 97.8403L450.067 163.84C451.254 164.425 452.254 165.331 452.953 166.455C453.652 167.579 454.023 168.877 454.023 170.2C454.023 171.524 453.652 172.821 452.953 173.945C452.254 175.069 451.254 175.975 450.067 176.56L341.177 239.56C339.341 240.575 337.274 241.099 335.177 241.08Z" fill="#E0E0E0"/>
<path d="M209.577 291.37C207.481 291.395 205.414 290.878 203.577 289.87L122.817 243.22C121.629 242.635 120.629 241.73 119.93 240.605C119.231 239.481 118.86 238.184 118.86 236.86C118.86 235.537 119.231 234.239 119.93 233.115C120.629 231.991 121.629 231.085 122.817 230.5L218.017 175.5C219.863 174.515 221.924 173.999 224.017 173.999C226.109 173.999 228.17 174.515 230.017 175.5L310.767 222.14C311.954 222.725 312.954 223.631 313.653 224.755C314.352 225.879 314.723 227.177 314.723 228.5C314.723 229.824 314.352 231.121 313.653 232.245C312.954 233.37 311.954 234.275 310.767 234.86L215.577 289.86C213.739 290.869 211.673 291.389 209.577 291.37Z" fill="#E0E0E0"/>
<path d="M295.307 280.13L274.997 268.4L396.857 198.04L417.167 209.77L295.307 280.13Z" fill="#E0E0E0"/>
</svg>
