<svg width="123" height="108" viewBox="0 0 123 108" fill="none" xmlns="http://www.w3.org/2000/svg">
<path d="M2.46661 104.365L6.25662 106.555C6.92766 106.895 7.66936 107.072 8.42163 107.072C9.1739 107.072 9.91557 106.895 10.5866 106.555L119.997 43.3848C120.625 42.9725 121.148 42.4184 121.523 41.7671C121.898 41.1157 122.115 40.3854 122.157 39.6348V7.11484C122.115 6.3643 121.898 5.63395 121.523 4.9826C121.148 4.33126 120.625 3.77712 119.997 3.36484L116.197 1.17484C115.527 0.830112 114.785 0.650269 114.032 0.650269C113.278 0.650269 112.536 0.830112 111.867 1.17484L2.46661 64.3348C1.83514 64.7448 1.30944 65.2982 0.932343 65.9499C0.555248 66.6015 0.337443 67.333 0.296631 68.0848V100.615C0.339019 101.366 0.557497 102.097 0.934448 102.749C1.3114 103.4 1.83624 103.954 2.46661 104.365Z" fill="#CC5B7C"/>
<path d="M119.997 5.86487L10.5865 69.0149C9.958 69.4272 9.43511 69.9813 9.05994 70.6326C8.68476 71.284 8.46778 72.0143 8.42651 72.7649V105.295C8.42651 106.675 9.42652 107.235 10.5865 106.545L119.997 43.3749C120.625 42.9626 121.148 42.4085 121.523 41.7571C121.898 41.1058 122.115 40.3754 122.157 39.6249V7.11487C122.157 5.73487 121.187 5.17487 119.997 5.86487Z" fill="#B72851"/>
<path d="M10.2166 106.725C9.57646 106.984 8.88818 107.103 8.19815 107.074C7.50812 107.044 6.8324 106.868 6.21658 106.555L2.42657 104.365C1.7951 103.955 1.2694 103.401 0.892303 102.75C0.515209 102.098 0.297404 101.367 0.256592 100.615V68.0848C0.282298 67.3329 0.499118 66.5998 0.886597 65.9548L9.0166 70.6448C8.6206 71.2866 8.3999 72.0211 8.37659 72.7748V105.305C8.42659 106.545 9.19658 107.115 10.2166 106.725Z" fill="#850000"/>
<path d="M84.4196 38.7356C84.6119 38.6218 84.7605 38.6218 84.8566 38.7356C84.9591 38.8363 85.0317 38.9634 85.0664 39.1029L88.1954 51.2265C88.2277 51.3258 88.2483 51.4285 88.2566 51.5326C88.2539 51.6693 88.2211 51.8037 88.1604 51.9262C88.1139 52.0376 88.0347 52.1322 87.9332 52.1974L86.124 53.2471C85.9404 53.352 85.8006 53.3695 85.7219 53.2908C85.6401 53.2174 85.5847 53.119 85.5646 53.0109L85.1625 51.4102L81.343 53.6145L80.941 55.6875C80.9125 55.8452 80.8625 55.9983 80.7924 56.1424C80.7007 56.3204 80.5575 56.4668 80.3816 56.5622L78.5723 57.6119C78.5413 57.6367 78.5028 57.6503 78.4631 57.6503C78.4234 57.6503 78.3848 57.6367 78.3538 57.6119C78.3195 57.5726 78.2933 57.5268 78.2768 57.4772C78.2603 57.4277 78.2538 57.3753 78.2577 57.3232C78.264 57.1988 78.2845 57.0756 78.3189 56.9558L81.4479 41.211C81.4928 40.9991 81.5633 40.7936 81.6577 40.5987C81.7445 40.3911 81.8984 40.2186 82.0947 40.1089L84.4196 38.7356ZM82.0947 49.7744L84.4196 48.4274L83.2571 43.7914L82.0947 49.7744Z" fill="#FAFAFA"/>
<path d="M70.4269 58.4691C70.3474 58.395 70.2796 58.3091 70.2259 58.2144L68.8803 55.3332V62.6855C68.8794 62.8559 68.8406 63.024 68.7667 63.1774C68.7101 63.3125 68.6161 63.4283 68.4958 63.5112L66.6434 64.6004C66.6056 64.6326 66.5576 64.6503 66.508 64.6503C66.4584 64.6503 66.4104 64.6326 66.3726 64.6004C66.3303 64.553 66.2984 64.4973 66.2788 64.4368C66.2593 64.3763 66.2525 64.3123 66.259 64.249V49.8695C66.259 49.7018 66.2979 49.5363 66.3726 49.3863C66.4242 49.2484 66.5194 49.1312 66.6434 49.0525L68.3124 48.0775C68.5046 47.9721 68.6444 47.9721 68.7405 48.0775C68.8109 48.1543 68.8752 48.2366 68.9327 48.3235L71.257 53.1284L73.5813 45.6267C73.6327 45.4679 73.694 45.3124 73.7647 45.1612C73.8515 44.9527 74.0054 44.7795 74.2016 44.6693L75.8618 43.703C75.8988 43.6691 75.9471 43.6503 75.9972 43.6503C76.0474 43.6503 76.0957 43.6691 76.1327 43.703C76.1765 43.7497 76.21 43.8051 76.2311 43.8656C76.2522 43.9261 76.2603 43.9905 76.255 44.0544V58.4076C76.2517 58.5788 76.2099 58.747 76.1327 58.8995C76.0789 59.0363 75.9842 59.1529 75.8618 59.2333L73.9832 60.3226C73.9462 60.3565 73.8979 60.3753 73.8478 60.3753C73.7976 60.3753 73.7493 60.3565 73.7123 60.3226C73.6701 60.2752 73.6382 60.2194 73.6186 60.1589C73.5991 60.0984 73.5923 60.0345 73.5987 59.9712V52.6101L72.2444 57.0637C72.1909 57.2288 72.1267 57.3902 72.0521 57.5468C71.9826 57.7067 71.8629 57.8394 71.7113 57.9245L70.7939 58.4603C70.6191 58.5394 70.5055 58.5482 70.4269 58.4691Z" fill="#FAFAFA"/>
<path d="M25.2766 78.5379C25.2766 78.7679 25.2766 79.0679 25.2766 79.4679C25.2766 79.8679 25.2766 80.2579 25.2766 80.6679C25.2766 81.0779 25.2766 81.4879 25.2766 81.8779C25.2766 82.2679 25.2766 82.5779 25.2766 82.7879C25.2956 83.1246 25.3424 83.459 25.4166 83.7879C25.4754 84.0589 25.6028 84.3103 25.7866 84.5179C25.8662 84.6034 25.962 84.6722 26.0684 84.7203C26.1749 84.7683 26.2898 84.7948 26.4066 84.7979C26.7417 84.7875 27.0673 84.6835 27.3466 84.4979C27.6888 84.3031 27.999 84.0569 28.2666 83.7679C28.4896 83.5074 28.6872 83.2261 28.8566 82.9279C29.0046 82.6586 29.122 82.3734 29.2066 82.0779C29.2866 81.7979 29.3566 81.5379 29.3966 81.3179C29.4264 81.0843 29.487 80.8557 29.5766 80.6379C29.6626 80.4763 29.7949 80.344 29.9566 80.2579L32.1066 79.0179C32.1436 78.9887 32.1894 78.9729 32.2366 78.9729C32.2837 78.9729 32.3295 78.9887 32.3666 79.0179C32.4049 79.0652 32.4335 79.1196 32.4507 79.1779C32.4678 79.2363 32.4732 79.2975 32.4666 79.3579C32.449 80.2589 32.3111 81.1535 32.0566 82.0179C31.7991 82.9237 31.4366 83.7963 30.9766 84.6179C30.5243 85.4304 29.9808 86.1887 29.3566 86.8779C28.7803 87.5319 28.1055 88.092 27.3566 88.5379C26.7242 88.9424 25.9965 89.1735 25.2466 89.2079C24.6662 89.2206 24.101 89.0215 23.6566 88.6479C23.1831 88.2121 22.8374 87.6555 22.6566 87.0379C22.4037 86.2591 22.2688 85.4467 22.2566 84.6279C22.2566 83.9479 22.2566 83.2179 22.2566 82.4279C22.2566 81.6379 22.2566 80.8679 22.2566 80.1279C22.2802 79.1598 22.411 78.1973 22.6466 77.2579C22.8774 76.3008 23.2128 75.3719 23.6466 74.4879C24.0703 73.6224 24.6048 72.8156 25.2366 72.0879C25.837 71.3839 26.5541 70.7886 27.3566 70.3279C27.9601 69.9479 28.646 69.7181 29.3566 69.6579C29.9241 69.6153 30.4907 69.7517 30.9766 70.0479C31.4672 70.3758 31.8445 70.8473 32.0566 71.3979C32.337 72.0936 32.4764 72.838 32.4666 73.5879C32.4688 73.7437 32.4345 73.8978 32.3666 74.0379C32.3128 74.1649 32.2223 74.2729 32.1066 74.3479L29.9566 75.5979C29.7666 75.6979 29.6466 75.7179 29.5766 75.6479C29.4775 75.5092 29.4155 75.3474 29.3966 75.1779C29.3481 74.9931 29.2845 74.8125 29.2066 74.6379C29.1332 74.4588 29.0122 74.3032 28.8566 74.1879C28.6784 74.0824 28.4736 74.0303 28.2666 74.0379C27.939 74.0772 27.6245 74.19 27.3466 74.3679C26.9895 74.5701 26.6712 74.8343 26.4066 75.1479C26.1556 75.4517 25.947 75.7881 25.7866 76.1479C25.6172 76.5114 25.4929 76.8943 25.4166 77.2879C25.3432 77.7012 25.2965 78.1187 25.2766 78.5379Z" fill="#FAFAFA"/>
<path d="M89.2572 50.3217V36.9128C89.2494 36.6462 89.316 36.383 89.4489 36.1559C89.6104 35.9136 89.8238 35.7147 90.0721 35.5757L93.4393 33.5195C94.3054 32.8599 95.3718 32.5591 96.4352 32.6744C97.1901 32.851 97.5736 33.7088 97.5736 35.1972C97.5211 36.9813 96.8322 38.6792 95.6443 39.9528V40.0411C95.7966 40.0402 95.9475 40.0722 96.0877 40.1351C96.2279 40.1981 96.3543 40.2906 96.4591 40.4069C96.707 40.6733 96.8918 40.9974 96.9984 41.353L98.1967 44.7084L98.2566 44.9354C98.2566 45.3139 97.8372 45.7554 96.9984 46.2599L96.2914 46.7014C95.5844 47.1303 95.1769 47.1808 95.093 46.8654L94.0265 43.4722C93.989 43.3753 93.9321 43.2879 93.8598 43.2161C93.7874 43.1443 93.7012 43.0897 93.6071 43.0559C93.3392 43.0603 93.0794 43.153 92.8641 43.3208L92.3848 43.6109V48.417C92.3848 48.8711 91.9774 49.3504 91.1865 49.8424L90.4915 50.2587C89.6646 50.7632 89.2572 50.7759 89.2572 50.3217ZM93.4992 39.8267C93.8363 39.6014 94.103 39.2768 94.2662 38.8932C94.4837 38.4088 94.5904 37.8774 94.5778 37.3417C94.5778 36.7488 94.4699 36.383 94.2662 36.2316C94.1364 36.1578 93.989 36.1257 93.842 36.1391C93.6951 36.1526 93.5551 36.211 93.4393 36.3073L92.3728 36.9633V40.4826L93.4992 39.8267Z" fill="white"/>
<path d="M63.8441 50.6994C63.8847 50.6677 63.9361 50.6503 63.9892 50.6503C64.0423 50.6503 64.0937 50.6677 64.1343 50.6994C64.1786 50.7469 64.2121 50.8022 64.2328 50.862C64.2534 50.9218 64.2608 50.9849 64.2543 51.0474V53.3673C64.2511 53.5282 64.2101 53.6865 64.1343 53.8313C64.0745 53.9651 63.9736 54.0797 63.8441 54.1607L61.1773 55.6083V66.7437C61.173 66.9045 61.132 67.0626 61.0572 67.2077C61.0008 67.3422 60.899 67.4561 60.767 67.5325L58.7657 68.5997C58.7256 68.6323 58.674 68.6503 58.6206 68.6503C58.5672 68.6503 58.5157 68.6323 58.4755 68.5997C58.4311 68.5522 58.3976 68.4969 58.377 68.4371C58.3563 68.3773 58.349 68.3142 58.3554 68.2517V57.1162L55.6737 58.5499C55.6335 58.5825 55.5819 58.6005 55.5286 58.6005C55.4752 58.6005 55.4236 58.5825 55.3835 58.5499C55.3382 58.5028 55.3038 58.4477 55.2823 58.3879C55.2608 58.328 55.2526 58.2648 55.2584 58.2019V55.882C55.264 55.7209 55.3066 55.5627 55.3835 55.4181C55.4413 55.2832 55.5427 55.1681 55.6737 55.0886L63.8441 50.6994Z" fill="#FAFAFA"/>
<path d="M52.8463 69.2991C52.8855 69.267 52.936 69.2492 52.9883 69.2492C53.0406 69.2492 53.0911 69.267 53.1303 69.2991C53.1753 69.346 53.2096 69.4009 53.231 69.4604C53.2524 69.5199 53.2605 69.5829 53.2548 69.6455V71.9544C53.2515 72.115 53.2089 72.2729 53.1303 72.4161C53.0743 72.5499 52.9751 72.6644 52.8463 72.744L45.6674 76.5999C45.6274 76.6324 45.576 76.6503 45.5229 76.6503C45.4697 76.6503 45.4184 76.6324 45.3784 76.5999C45.3342 76.5527 45.3008 76.4976 45.2803 76.4381C45.2597 76.3786 45.2524 76.3158 45.2588 76.2536V62.2662C45.263 62.1062 45.3038 61.9488 45.3784 61.8044C45.4363 61.6716 45.5373 61.5586 45.6674 61.4812L52.7267 57.6992C52.7672 57.6676 52.8183 57.6503 52.8712 57.6503C52.9241 57.6503 52.9752 57.6676 53.0157 57.6992C53.0627 57.7477 53.0981 57.8048 53.1196 57.8669C53.141 57.929 53.1481 57.9946 53.1402 58.0594V60.3683C53.1361 60.5283 53.0953 60.6857 53.0207 60.8301C52.963 60.9631 52.862 61.0761 52.7317 61.1533L48.0686 63.6515V65.9882L52.3979 63.6792C52.4379 63.6468 52.4892 63.6289 52.5424 63.6289C52.5956 63.6289 52.6469 63.6468 52.6869 63.6792C52.731 63.7265 52.7644 63.7815 52.785 63.841C52.8055 63.9006 52.8128 63.9634 52.8064 64.0256V66.3345C52.8027 66.4946 52.762 66.6521 52.6869 66.7963C52.6307 66.9313 52.5295 67.0462 52.3979 67.1241L48.0686 69.433V71.8574L52.8463 69.2991Z" fill="#FAFAFA"/>
<path d="M34.2572 83.3035V69.1496C34.2494 68.8682 34.316 68.5904 34.4489 68.3507C34.6104 68.0949 34.8238 67.885 35.0721 67.7382L38.4393 65.5678C39.3054 64.8716 40.3718 64.554 41.4352 64.6757C42.1901 64.8621 42.5736 65.7676 42.5736 67.3387C42.5211 69.2219 41.8322 71.0141 40.6443 72.3585V72.4517C40.7966 72.4508 40.9475 72.4845 41.0877 72.551C41.2279 72.6174 41.3543 72.715 41.4591 72.8379C41.707 73.119 41.8918 73.4611 41.9984 73.8365L43.1967 77.3783L43.2566 77.618C43.2566 78.0174 42.8372 78.4834 41.9984 79.016L41.2914 79.4821C40.5844 79.9348 40.1769 79.988 40.093 79.6552L39.0265 76.0734C38.989 75.9711 38.9321 75.8789 38.8598 75.8031C38.7874 75.7273 38.7012 75.6696 38.6071 75.634C38.3392 75.6387 38.0794 75.7365 37.8641 75.9136L37.3848 76.2199V81.2929C37.3848 81.7722 36.9774 82.2782 36.1865 82.7975L35.4915 83.2369C34.6646 83.7695 34.2572 83.7828 34.2572 83.3035ZM38.4992 72.2254C38.8363 71.9875 39.103 71.6449 39.2662 71.2401C39.4837 70.7287 39.5904 70.1678 39.5778 69.6023C39.5778 68.9765 39.4699 68.5904 39.2662 68.4306C39.1364 68.3527 38.989 68.3187 38.842 68.3329C38.6951 68.3471 38.5551 68.4089 38.4393 68.5105L37.3728 69.2029V72.9178L38.4992 72.2254Z" fill="white"/>
<path d="M105.885 25.7316L105.257 26.1503L103.257 32.6503V28.8415C103.257 28.0809 102.441 27.5988 101.775 27.9653L100.775 28.5153C100.455 28.6911 100.257 29.0268 100.257 29.3915V42.0322C100.257 42.7756 101.039 43.2591 101.704 42.9267L102.704 42.4267C103.043 42.2573 103.257 41.911 103.257 41.5322V37.6503L105.731 40.0008C106.044 40.2987 106.514 40.3612 106.895 40.1557L107.575 39.7881C108.164 39.47 108.281 38.6744 107.807 38.2011L105.187 35.5806C104.923 35.3163 104.828 34.9266 104.941 34.5703L107.392 26.8669C107.679 25.9661 106.671 25.2073 105.885 25.7316Z" fill="white"/>
</svg>
