<svg width="190" height="192" viewBox="0 0 190 192" fill="none" xmlns="http://www.w3.org/2000/svg">
<path d="M3.84668 118.86C3.89248 118.428 4.05159 118.015 4.30795 117.664C4.56431 117.313 4.90883 117.036 5.30669 116.86L100.507 61.8602C101.591 61.3079 102.79 61.02 104.007 61.02C105.223 61.02 106.423 61.3079 107.507 61.8602L188.257 108.51C188.654 108.686 188.998 108.964 189.254 109.315C189.51 109.666 189.67 110.078 189.717 110.51V133.36C189.671 133.793 189.512 134.205 189.255 134.556C188.999 134.908 188.655 135.185 188.257 135.36L93.0667 190.36C91.9812 190.908 90.7824 191.193 89.5667 191.193C88.3509 191.193 87.1521 190.908 86.0667 190.36L5.30669 143.71C4.90883 143.535 4.56431 143.258 4.30795 142.906C4.05159 142.555 3.89248 142.143 3.84668 141.71C3.84668 140.97 3.85668 119.59 3.84668 118.86Z" fill="#9095E2"/>
<path opacity="0.75" d="M104.027 61.0302C105.249 61.0063 106.457 61.2955 107.537 61.8702L188.257 108.51C188.654 108.686 188.998 108.964 189.254 109.315C189.51 109.666 189.67 110.078 189.717 110.51V133.36C189.671 133.793 189.512 134.205 189.255 134.556C188.999 134.908 188.654 135.185 188.257 135.36L93.0666 190.36C91.9874 190.935 90.7791 191.224 89.5566 191.2V163.73L104.027 61.0302Z" fill="white"/>
<path opacity="0.6" d="M104.027 61.0302C102.804 61.0063 101.596 61.2955 100.517 61.8702L5.3167 116.87C4.92011 117.046 4.5771 117.324 4.32245 117.675C4.0678 118.026 3.91057 118.439 3.8667 118.87V141.71C3.91057 142.142 4.0678 142.554 4.32245 142.905C4.5771 143.257 4.92011 143.534 5.3167 143.71L86.0767 190.36C87.1559 190.935 88.3642 191.224 89.5867 191.2V163.73L104.027 61.0302Z" fill="white"/>
<path d="M86.0667 167.53L5.30668 120.89C3.36668 119.77 3.36668 117.95 5.30668 116.83L100.507 61.8302C101.591 61.2779 102.79 60.99 104.007 60.99C105.223 60.99 106.423 61.2779 107.507 61.8302L188.257 108.51C190.197 109.63 190.197 111.45 188.257 112.57L93.0667 167.57C91.9795 168.116 90.7785 168.397 89.5619 168.39C88.3453 168.383 87.1476 168.089 86.0667 167.53Z" fill="#9095E2"/>
<path opacity="0.9" d="M86.0667 167.53L5.30668 120.89C3.36668 119.77 3.36668 117.95 5.30668 116.83L100.507 61.8302C101.591 61.2779 102.79 60.99 104.007 60.99C105.223 60.99 106.423 61.2779 107.507 61.8302L188.257 108.51C190.197 109.63 190.197 111.45 188.257 112.57L93.0667 167.57C91.9795 168.116 90.7785 168.397 89.5619 168.39C88.3453 168.383 87.1476 168.089 86.0667 167.53Z" fill="white"/>
<path opacity="0.15" d="M49.5167 95.6703L8.3667 119.43L36.7467 135.82L77.9067 112.05L49.5167 95.6703Z" fill="black"/>
<path opacity="0.15" d="M87.0666 81.9602L57.7966 98.9102L79.9166 111.69L109.187 94.7302L87.0666 81.9602Z" fill="black"/>
<path opacity="0.15" d="M113.257 94.8802C112.938 94.8864 112.624 94.8069 112.347 94.6502L89.7166 81.5902C89.5513 81.5093 89.4116 81.3843 89.3128 81.229C89.214 81.0738 89.1599 80.8942 89.1566 80.7102C89.1618 80.5279 89.2166 80.3505 89.3154 80.1972C89.4141 80.0438 89.5528 79.9204 89.7166 79.8402L108.017 69.2702C108.298 69.1197 108.612 69.0409 108.932 69.0409C109.251 69.0409 109.565 69.1197 109.847 69.2702L132.477 82.3402C132.631 82.4275 132.759 82.5539 132.848 82.7068C132.937 82.8596 132.984 83.0333 132.984 83.2102C132.984 83.3871 132.937 83.5609 132.848 83.7137C132.759 83.8666 132.631 83.993 132.477 84.0802L114.197 94.6502C113.909 94.809 113.585 94.8883 113.257 94.8802Z" fill="black"/>
<path opacity="0.15" d="M127.257 123.39C129.417 123.66 131.637 123.64 133.797 123.89C137.41 124.193 140.907 125.311 144.027 127.16C145.269 128.097 146.59 128.924 147.977 129.63C149.588 130.312 151.385 130.416 153.064 129.926C154.743 129.435 156.201 128.379 157.191 126.937C158.181 125.495 158.643 123.755 158.499 122.012C158.354 120.269 157.611 118.629 156.397 117.37C155.497 116.489 154.46 115.76 153.327 115.21C144.897 110.81 133.857 112.58 125.747 116.93C124.027 117.85 120.357 120.73 123.457 122.45C124.651 123.006 125.941 123.325 127.257 123.39Z" fill="black"/>
<path d="M113.277 92.5602V79.7802L129.887 70.2002V82.9802L113.277 92.5602Z" fill="#9095E2"/>
<path d="M113.277 79.7803L92.5266 67.8003V80.5803L113.277 92.5603V79.7803Z" fill="#9095E2"/>
<path opacity="0.15" d="M113.277 79.7803L92.5266 67.8003V80.5803L113.277 92.5603V79.7803Z" fill="black"/>
<path d="M113.277 79.7803L130.377 69.9103L109.127 57.6403L92.0366 67.5103L113.277 79.7803Z" fill="#9095E2"/>
<path opacity="0.3" d="M113.277 79.7803L130.377 69.9103L109.127 57.6403L92.0366 67.5103L113.277 79.7803Z" fill="white"/>
<path d="M113.277 79.7803V82.9803L130.377 73.1103V69.9103L113.277 79.7803Z" fill="#9095E2"/>
<path opacity="0.2" d="M113.277 82.9803L129.887 73.3903V74.0903L113.277 83.6803V82.9803Z" fill="black"/>
<path d="M92.0366 67.5103L113.277 79.7803V82.9803L92.0366 70.7103V67.5103Z" fill="#9095E2"/>
<path opacity="0.2" d="M92.0366 67.5103L113.277 79.7803V82.9803L92.0366 70.7103V67.5103Z" fill="black"/>
<path opacity="0.2" d="M113.277 82.9802L92.5266 71.0002V71.7002L113.277 83.6802V82.9802Z" fill="black"/>
<path d="M118.747 81.7204L124.417 78.4503C124.667 78.3103 124.857 78.4503 124.857 78.7103V82.0603C124.847 82.2139 124.803 82.3632 124.727 82.4968C124.65 82.6303 124.544 82.7445 124.417 82.8303L118.747 86.1004C118.507 86.2404 118.307 86.1003 118.307 85.8403V82.4903C118.316 82.3368 118.36 82.1875 118.437 82.0539C118.513 81.9204 118.619 81.8062 118.747 81.7204Z" fill="#D2D5FA"/>
<path d="M119.107 82.1103L124.057 79.2503C124.217 79.1603 124.347 79.2503 124.347 79.4203V81.9303C124.341 82.0333 124.312 82.1337 124.262 82.2238C124.211 82.3139 124.141 82.3913 124.057 82.4503L119.107 85.3003C118.947 85.3903 118.817 85.3004 118.817 85.1304V82.6503C118.816 82.5433 118.842 82.4377 118.893 82.3434C118.943 82.249 119.017 82.1689 119.107 82.1103Z" fill="#F5F5F5"/>
<g opacity="0.5">
<path opacity="0.5" d="M119.257 82.7702C119.247 82.7755 119.237 82.7783 119.227 82.7783C119.216 82.7783 119.206 82.7755 119.197 82.7702C119.19 82.7646 119.185 82.7577 119.182 82.7499C119.178 82.7422 119.176 82.7338 119.176 82.7253C119.176 82.7167 119.178 82.7083 119.182 82.7006C119.185 82.6928 119.19 82.6859 119.197 82.6802L123.857 79.9802C123.863 79.9736 123.871 79.9683 123.879 79.9647C123.888 79.9611 123.897 79.9592 123.907 79.9592C123.916 79.9592 123.925 79.9611 123.934 79.9647C123.942 79.9683 123.95 79.9736 123.957 79.9802C123.967 79.9928 123.973 80.0088 123.973 80.0252C123.973 80.0417 123.967 80.0576 123.957 80.0703L119.287 82.7702H119.257Z" fill="#D2D5FA"/>
<path opacity="0.5" d="M119.257 83.3902C119.237 83.398 119.216 83.398 119.197 83.3902C119.19 83.3837 119.185 83.376 119.181 83.3674C119.177 83.3588 119.176 83.3496 119.176 83.3402C119.176 83.3309 119.177 83.3217 119.181 83.3131C119.185 83.3045 119.19 83.2968 119.197 83.2902L123.857 80.6002C123.864 80.595 123.873 80.5913 123.883 80.5895C123.892 80.5877 123.901 80.5877 123.911 80.5895C123.92 80.5914 123.929 80.595 123.937 80.6003C123.945 80.6056 123.951 80.6124 123.957 80.6202C123.962 80.6281 123.965 80.6369 123.967 80.6462C123.969 80.6555 123.969 80.6651 123.967 80.6744C123.965 80.6837 123.962 80.6925 123.956 80.7004C123.951 80.7082 123.944 80.715 123.937 80.7202L119.267 83.4202L119.257 83.3902Z" fill="#D2D5FA"/>
<path opacity="0.5" d="M119.257 84.0002C119.247 84.0046 119.237 84.0069 119.227 84.0069C119.216 84.0069 119.206 84.0046 119.197 84.0002C119.19 83.9937 119.185 83.9859 119.181 83.9773C119.177 83.9687 119.176 83.9595 119.176 83.9502C119.176 83.9409 119.177 83.9317 119.181 83.9231C119.185 83.9145 119.19 83.9067 119.197 83.9002L123.857 81.2002C123.873 81.196 123.89 81.1972 123.906 81.2037C123.922 81.2101 123.935 81.2213 123.944 81.2358C123.953 81.2503 123.957 81.2673 123.956 81.2843C123.954 81.3013 123.948 81.3173 123.937 81.3302L119.257 83.9902V84.0002Z" fill="#D2D5FA"/>
<path opacity="0.5" d="M119.257 84.6502C119.247 84.6547 119.237 84.657 119.227 84.657C119.216 84.657 119.206 84.6547 119.197 84.6502C119.19 84.6437 119.185 84.6359 119.181 84.6273C119.177 84.6188 119.176 84.6096 119.176 84.6003C119.176 84.5909 119.177 84.5817 119.181 84.5731C119.185 84.5645 119.19 84.5567 119.197 84.5502L123.857 81.8503C123.863 81.8436 123.871 81.8383 123.879 81.8347C123.888 81.8311 123.897 81.8292 123.907 81.8292C123.916 81.8292 123.925 81.8311 123.934 81.8347C123.942 81.8383 123.95 81.8436 123.957 81.8503C123.968 81.8644 123.974 81.8821 123.974 81.9002C123.974 81.9184 123.968 81.936 123.957 81.9502L119.257 84.6502Z" fill="#D2D5FA"/>
</g>
<path d="M113.277 78.1803V65.3903L129.887 55.8103V68.5903L113.277 78.1803Z" fill="#9095E2"/>
<path d="M113.277 65.3903L92.5266 53.4103V66.1903L113.277 78.1803V65.3903Z" fill="#9095E2"/>
<path opacity="0.15" d="M113.277 65.3903L92.5266 53.4103V66.1903L113.277 78.1803V65.3903Z" fill="black"/>
<path d="M113.277 65.3902L130.377 55.5202L109.127 43.2502L92.0366 53.1302L113.277 65.3902Z" fill="#9095E2"/>
<path opacity="0.3" d="M113.277 65.3902L130.377 55.5202L109.127 43.2502L92.0366 53.1302L113.277 65.3902Z" fill="white"/>
<path d="M113.277 65.3903V68.5903L130.377 58.7203V55.5203L113.277 65.3903Z" fill="#9095E2"/>
<path opacity="0.2" d="M113.277 68.5902L129.887 59.0002V59.7102L113.277 69.2903V68.5902Z" fill="black"/>
<path d="M92.0366 53.1302L113.277 65.3902V68.5902L92.0366 56.3203V53.1302Z" fill="#9095E2"/>
<path opacity="0.2" d="M92.0366 53.1302L113.277 65.3902V68.5902L92.0366 56.3203V53.1302Z" fill="black"/>
<path opacity="0.2" d="M113.277 68.5902L92.5266 56.6102V57.3102L113.277 69.2903V68.5902Z" fill="black"/>
<path d="M118.747 67.3402L124.417 64.0602C124.667 63.9202 124.857 64.0602 124.857 64.3202V67.6502C124.847 67.8037 124.803 67.9531 124.727 68.0866C124.65 68.2202 124.544 68.3343 124.417 68.4202L118.747 71.6902C118.507 71.8302 118.307 71.6902 118.307 71.4402V68.0802C118.32 67.9319 118.367 67.7884 118.443 67.6604C118.519 67.5324 118.623 67.423 118.747 67.3402Z" fill="#D2D5FA"/>
<path d="M119.107 67.7202L124.057 64.8602C124.217 64.7702 124.347 64.8602 124.347 65.0302V67.5502C124.341 67.6518 124.312 67.7507 124.261 67.8392C124.211 67.9277 124.141 68.0033 124.057 68.0602L119.107 70.9102C118.947 71.0102 118.817 70.9102 118.817 70.7402V68.2302C118.821 68.1282 118.849 68.0288 118.9 67.94C118.95 67.8513 119.021 67.776 119.107 67.7202Z" fill="#F5F5F5"/>
<g opacity="0.5">
<path opacity="0.5" d="M119.257 68.3802C119.247 68.3847 119.237 68.387 119.227 68.387C119.216 68.387 119.206 68.3847 119.197 68.3802C119.19 68.3737 119.185 68.3659 119.181 68.3573C119.177 68.3487 119.176 68.3395 119.176 68.3302C119.176 68.3209 119.177 68.3117 119.181 68.3031C119.185 68.2945 119.19 68.2867 119.197 68.2802L123.857 65.5802C123.863 65.5735 123.871 65.5683 123.879 65.5647C123.888 65.5611 123.897 65.5592 123.907 65.5592C123.916 65.5592 123.925 65.5611 123.934 65.5647C123.942 65.5683 123.95 65.5735 123.957 65.5802C123.968 65.5944 123.974 65.612 123.974 65.6302C123.974 65.6484 123.968 65.666 123.957 65.6802L119.257 68.3702V68.3802Z" fill="#D2D5FA"/>
<path opacity="0.5" d="M119.257 69.0002C119.247 69.0055 119.237 69.0082 119.227 69.0082C119.216 69.0082 119.206 69.0055 119.197 69.0002C119.19 68.9937 119.185 68.9859 119.181 68.9773C119.177 68.9687 119.176 68.9595 119.176 68.9502C119.176 68.9409 119.177 68.9317 119.181 68.9231C119.185 68.9145 119.19 68.9067 119.197 68.9002L123.857 66.2102C123.863 66.2036 123.871 66.1983 123.879 66.1947C123.888 66.1911 123.897 66.1892 123.907 66.1892C123.916 66.1892 123.925 66.1911 123.934 66.1947C123.942 66.1983 123.95 66.2036 123.957 66.2102C123.967 66.2228 123.973 66.2388 123.973 66.2552C123.973 66.2717 123.967 66.2876 123.957 66.3002L119.287 69.0002H119.257Z" fill="#D2D5FA"/>
<path opacity="0.5" d="M119.257 69.6503C119.237 69.658 119.216 69.658 119.197 69.6503C119.19 69.6437 119.185 69.636 119.181 69.6274C119.177 69.6188 119.176 69.6096 119.176 69.6003C119.176 69.591 119.177 69.5817 119.181 69.5731C119.185 69.5646 119.19 69.5568 119.197 69.5503L123.857 66.8603C123.864 66.855 123.873 66.8514 123.883 66.8495C123.892 66.8477 123.901 66.8477 123.911 66.8495C123.92 66.8514 123.929 66.8551 123.937 66.8603C123.945 66.8656 123.951 66.8724 123.957 66.8803C123.962 66.8882 123.965 66.897 123.967 66.9063C123.969 66.9156 123.969 66.9251 123.967 66.9344C123.965 66.9437 123.962 66.9525 123.956 66.9604C123.951 66.9683 123.944 66.975 123.937 66.9803L119.257 69.6503Z" fill="#D2D5FA"/>
<path opacity="0.5" d="M119.257 70.2302C119.247 70.2346 119.237 70.2369 119.227 70.2369C119.216 70.2369 119.206 70.2346 119.197 70.2302C119.19 70.2236 119.185 70.2159 119.181 70.2073C119.177 70.1987 119.176 70.1895 119.176 70.1802C119.176 70.1709 119.177 70.1616 119.181 70.153C119.185 70.1445 119.19 70.1367 119.197 70.1302L123.857 67.4302C123.873 67.426 123.89 67.4272 123.906 67.4336C123.922 67.44 123.935 67.4513 123.944 67.4658C123.953 67.4803 123.957 67.4973 123.956 67.5142C123.954 67.5312 123.948 67.5473 123.937 67.5602L119.257 70.2202V70.2302Z" fill="#D2D5FA"/>
</g>
<path d="M79.9166 110.04L61.1466 99.2002V40.3502L79.9166 51.1902V110.04Z" fill="#263238"/>
<path d="M79.9166 51.1902L106.747 35.7102V94.5502L79.9166 110.04V51.1902Z" fill="#37474F"/>
<path d="M106.747 35.7102L79.9166 51.1902L61.1466 40.3503L87.9666 24.8602L106.747 35.7102Z" fill="#D2D5FA"/>
<path d="M82.6066 89.3302L104.067 76.9402V91.8602L104.557 92.1402L83.0966 104.53L82.5966 104.25L82.6066 89.3302Z" fill="#263238"/>
<path d="M83.0966 89.6202L104.557 77.2302V92.1402L83.0966 104.53V89.6202Z" fill="#D2D5FA"/>
<g opacity="0.05">
<path opacity="0.05" d="M83.0966 89.6202L104.557 77.2302V92.1402L83.0966 104.53V89.6202Z" fill="black"/>
</g>
<path d="M91.5066 87.2902L95.1566 85.1802C95.6266 84.9102 96.0166 85.0302 96.0166 85.4602C95.9813 85.724 95.8852 85.976 95.736 86.1964C95.5868 86.4167 95.3884 86.5995 95.1566 86.7302L91.5066 88.8402C91.0366 89.1102 90.6466 88.9902 90.6466 88.5602C90.6819 88.2964 90.778 88.0444 90.9272 87.824C91.0764 87.6037 91.2748 87.4209 91.5066 87.2902Z" fill="#263238"/>
<path d="M82.6066 71.3202L104.067 58.9302V73.8502L104.557 74.1402L83.0966 86.5202L82.5966 86.2402L82.6066 71.3202Z" fill="#263238"/>
<path d="M83.0966 71.6102L104.557 59.2202V74.1402L83.0966 86.5202V71.6102Z" fill="#D2D5FA"/>
<g opacity="0.05">
<path opacity="0.05" d="M83.0966 71.6102L104.557 59.2202V74.1402L83.0966 86.5202V71.6102Z" fill="black"/>
</g>
<path d="M91.5066 69.2803L95.1566 67.1703C95.6266 66.9003 96.0166 67.0303 96.0166 67.4503C95.9813 67.7141 95.8852 67.9661 95.736 68.1865C95.5868 68.4068 95.3884 68.5896 95.1566 68.7203L91.5066 70.8303C91.0366 71.1003 90.6466 70.9803 90.6466 70.5503C90.6819 70.2865 90.778 70.0345 90.9272 69.8141C91.0764 69.5937 91.2748 69.411 91.5066 69.2803Z" fill="#263238"/>
<path d="M82.5966 53.3202L104.067 40.9202L104.057 55.8402L104.557 56.1302L83.0966 68.5202L82.5966 68.2302V53.3202Z" fill="#263238"/>
<path d="M83.0966 53.6002L104.557 41.2102V56.1302L83.0966 68.5202V53.6002Z" fill="#D2D5FA"/>
<g opacity="0.05">
<path opacity="0.05" d="M83.0966 53.6002L104.557 41.2102V56.1302L83.0966 68.5202V53.6002Z" fill="black"/>
</g>
<path d="M91.5066 51.2703L95.1566 49.1603C95.6266 48.8903 96.0166 49.0203 96.0166 49.4403C95.9813 49.7041 95.8852 49.9561 95.736 50.1764C95.5868 50.3968 95.3884 50.5796 95.1566 50.7103L91.5066 52.8203C91.0366 53.0903 90.6466 52.9703 90.6466 52.5403C90.6834 52.277 90.78 52.0256 90.9291 51.8054C91.0782 51.5852 91.2758 51.4022 91.5066 51.2703Z" fill="#263238"/>
<path d="M12.6466 116.04L37.0666 130.14L75.0466 108.21L50.6266 94.1102L12.6466 116.04Z" fill="#263238"/>
<path d="M37.0666 130.13L12.6466 116.04V118.34C12.6619 118.59 12.7349 118.833 12.8598 119.05C12.9847 119.267 13.1582 119.452 13.3666 119.59L16.7166 121.52V119.95L31.6366 128.57V130.13L36.3366 132.85C36.557 132.978 36.8071 133.045 37.0616 133.045C37.3161 133.045 37.5662 132.978 37.7866 132.85L37.0666 132.43V130.13Z" fill="#37474F"/>
<path d="M75.0466 108.21V110.5C75.0333 110.753 74.9602 110.999 74.8333 111.218C74.7064 111.437 74.5293 111.623 74.3167 111.76L70.9767 113.65V112.08L42.4866 128.53V130.09L37.7867 132.81C37.3867 133.04 37.0667 132.81 37.0667 132.39V130.09L75.0466 108.21Z" fill="#D2D5FA"/>
<path d="M16.7167 121.52L18.0767 120.74L16.7167 119.95V121.52Z" fill="#263238"/>
<path d="M70.9767 113.69L69.6167 112.91L70.9767 112.12V113.69Z" fill="#37474F"/>
<path d="M74.3066 107.58C74.5276 107.437 74.7116 107.244 74.8437 107.016C74.9757 106.789 75.0521 106.533 75.0666 106.27V90.7503L50.9366 76.8303L44.5566 80.5103V96.9003L68.6766 110.82L74.3066 107.58Z" fill="#9095E2"/>
<path opacity="0.7" d="M74.3066 107.58C74.5276 107.437 74.7116 107.244 74.8437 107.016C74.9757 106.789 75.0521 106.533 75.0666 106.27V90.7503L50.9366 76.8303L44.5566 80.5103V96.9003L68.6766 110.82L74.3066 107.58Z" fill="white"/>
<path d="M44.5566 80.5103V96.9003L68.6866 110.83V94.4403L44.5566 80.5103Z" fill="#9095E2"/>
<path opacity="0.3" d="M44.5566 80.5103V96.9003L68.6866 110.83V94.4403L44.5566 80.5103Z" fill="black"/>
<path d="M44.5566 80.5103L50.9366 76.8303L75.0666 90.7503L68.6866 94.4403L44.5566 80.5103Z" fill="#9095E2"/>
<path opacity="0.15" d="M44.5566 80.5103L50.9366 76.8303L75.0666 90.7503L68.6866 94.4403L44.5566 80.5103Z" fill="black"/>
<path d="M15.4667 116.15L31.0767 125.16V121.89L15.4667 112.88V116.15Z" fill="#9095E2"/>
<path opacity="0.15" d="M15.4667 116.15L31.0767 125.16V121.89L15.4667 112.88V116.15Z" fill="black"/>
<path d="M37.5066 128.82L67.2566 111.65C67.4746 111.505 67.6558 111.311 67.786 111.084C67.9162 110.856 67.9917 110.602 68.0066 110.34V106.34L43.8866 92.4103L12.6666 110.41V114.41C12.6811 114.673 12.7575 114.929 12.8896 115.156C13.0217 115.384 13.2057 115.577 13.4266 115.72L15.5066 116.92V114.46L31.1166 123.46V125.91L36.0366 128.75C36.2584 128.878 36.5075 128.951 36.7632 128.963C37.0188 128.975 37.2737 128.926 37.5066 128.82Z" fill="#9095E2"/>
<path opacity="0.5" d="M37.5066 128.82L67.2566 111.65C67.4746 111.505 67.6558 111.311 67.786 111.084C67.9162 110.856 67.9917 110.602 68.0066 110.34V106.34L43.8866 92.4103L12.6666 110.41V114.41C12.6811 114.673 12.7575 114.929 12.8896 115.156C13.0217 115.384 13.2057 115.577 13.4266 115.72L15.5066 116.92V114.46L31.1166 123.46V125.91L36.0366 128.75C36.2584 128.878 36.5075 128.951 36.7632 128.963C37.0188 128.975 37.2737 128.926 37.5066 128.82Z" fill="white"/>
<path d="M36.7467 124.34L67.9667 106.32L43.8467 92.3903L12.6267 110.42L36.7467 124.34Z" fill="#9095E2"/>
<path opacity="0.15" d="M36.7467 124.34L67.9667 106.32L43.8467 92.3903L12.6267 110.42L36.7467 124.34Z" fill="black"/>
<path d="M67.9667 106.32V111.24L37.5067 128.82C37.0867 129.06 36.7467 128.87 36.7467 128.39V124.34L67.9667 106.32Z" fill="#9095E2"/>
<path opacity="0.7" d="M67.9667 106.32V111.24L37.5067 128.82C37.0867 129.06 36.7467 128.87 36.7467 128.39V124.34L67.9667 106.32Z" fill="white"/>
<path d="M15.4667 116.97L16.1767 116.56V114.92L15.4667 114.51V116.97Z" fill="#9095E2"/>
<path opacity="0.35" d="M15.4667 116.97L16.1767 116.56V114.92L15.4667 114.51V116.97Z" fill="black"/>
<path d="M40.2566 123.94C40.6466 123.71 40.9666 123.89 40.9666 124.34C40.9549 124.587 40.8843 124.827 40.7608 125.041C40.6373 125.255 40.4644 125.437 40.2566 125.57C39.8666 125.8 39.5466 125.62 39.5466 125.16C39.5599 124.915 39.6313 124.677 39.7547 124.465C39.8781 124.253 40.0502 124.073 40.2566 123.94Z" fill="#D2D5FA"/>
<path d="M65.1267 109.65V110.47C65.1267 110.92 64.4567 111.68 63.6167 112.16L45.3567 122.65C44.5267 123.13 43.8467 123.16 43.8467 122.71V121.89L65.1267 109.65Z" fill="#D2D5FA"/>
<path d="M37.5067 123.09L67.2567 105.94C67.4747 105.795 67.6559 105.601 67.7861 105.374C67.9163 105.146 67.9918 104.892 68.0067 104.63V100.63L43.8467 86.6503L12.6267 104.65V108.65C12.6404 108.913 12.7165 109.169 12.8486 109.397C12.9808 109.625 13.1652 109.818 13.3867 109.96L35.9967 123.02C36.2252 123.15 36.481 123.224 36.7433 123.236C37.0057 123.248 37.2672 123.198 37.5067 123.09Z" fill="#9095E2"/>
<path opacity="0.5" d="M37.5067 123.09L67.2567 105.94C67.4747 105.795 67.6559 105.601 67.7861 105.374C67.9163 105.146 67.9918 104.892 68.0067 104.63V100.63L43.8467 86.6503L12.6267 104.65V108.65C12.6404 108.913 12.7165 109.169 12.8486 109.397C12.9808 109.625 13.1652 109.818 13.3867 109.96L35.9967 123.02C36.2252 123.15 36.481 123.224 36.7433 123.236C37.0057 123.248 37.2672 123.198 37.5067 123.09Z" fill="white"/>
<path d="M36.7467 118.61L67.9667 100.59L43.8467 86.6603L12.6267 104.68L36.7467 118.61Z" fill="#9095E2"/>
<path opacity="0.15" d="M36.7467 118.61L67.9667 100.59L43.8467 86.6603L12.6267 104.68L36.7467 118.61Z" fill="black"/>
<path d="M67.9667 100.59V105.5L37.5067 123.09C37.0867 123.33 36.7467 123.09 36.7467 122.65V118.65L67.9667 100.59Z" fill="#9095E2"/>
<path opacity="0.7" d="M67.9667 100.59V105.5L37.5067 123.09C37.0867 123.33 36.7467 123.09 36.7467 122.65V118.65L67.9667 100.59Z" fill="white"/>
<path d="M40.2566 118.2C40.6466 117.97 40.9666 118.2 40.9666 118.61C40.9517 118.856 40.8798 119.095 40.7566 119.309C40.6334 119.522 40.4622 119.704 40.2566 119.84C39.8666 120.06 39.5466 119.84 39.5466 119.43C39.5615 119.184 39.6335 118.945 39.7567 118.732C39.8799 118.518 40.0511 118.336 40.2566 118.2Z" fill="#D2D5FA"/>
<path d="M65.1267 103.86V104.65C65.1267 105.1 64.4567 105.86 63.6167 106.34L45.3567 116.92C44.5267 117.4 43.8467 117.42 43.8467 116.97V116.15L65.1267 103.86Z" fill="#D2D5FA"/>
<path d="M37.5066 117.35L67.2566 100.2C67.4746 100.055 67.6558 99.861 67.786 99.6336C67.9162 99.4063 67.9917 99.1517 68.0066 98.8902V94.8902L43.8866 80.9602L12.6666 98.9602V102.96C12.6811 103.223 12.7575 103.479 12.8896 103.706C13.0217 103.934 13.2057 104.127 13.4266 104.27L36.0366 117.32C36.2617 117.442 36.5124 117.508 36.768 117.513C37.0236 117.518 37.2768 117.462 37.5066 117.35Z" fill="#9095E2"/>
<path opacity="0.5" d="M37.5066 117.35L67.2566 100.2C67.4746 100.055 67.6558 99.861 67.786 99.6336C67.9162 99.4063 67.9917 99.1517 68.0066 98.8902V94.8902L43.8866 80.9602L12.6666 98.9602V102.96C12.6811 103.223 12.7575 103.479 12.8896 103.706C13.0217 103.934 13.2057 104.127 13.4266 104.27L36.0366 117.32C36.2617 117.442 36.5124 117.508 36.768 117.513C37.0236 117.518 37.2768 117.462 37.5066 117.35Z" fill="white"/>
<path d="M36.7467 112.88L67.9667 94.8503L43.8467 80.9203L12.6267 98.9503L36.7467 112.88Z" fill="#9095E2"/>
<path opacity="0.15" d="M36.7467 112.88L67.9667 94.8503L43.8467 80.9203L12.6267 98.9503L36.7467 112.88Z" fill="black"/>
<path d="M67.9667 94.8503V99.7703L37.5067 117.35C37.0867 117.59 36.7467 117.4 36.7467 116.92V112.92L67.9667 94.8503Z" fill="#9095E2"/>
<path opacity="0.7" d="M67.9667 94.8503V99.7703L37.5067 117.35C37.0867 117.59 36.7467 117.4 36.7467 116.92V112.92L67.9667 94.8503Z" fill="white"/>
<path d="M40.2566 112.47C40.6466 112.24 40.9666 112.42 40.9666 112.87C40.9549 113.117 40.8843 113.357 40.7608 113.571C40.6373 113.785 40.4644 113.967 40.2566 114.1C39.8666 114.33 39.5466 114.15 39.5466 113.69C39.5599 113.445 39.6313 113.207 39.7547 112.995C39.8781 112.783 40.0502 112.603 40.2566 112.47Z" fill="#D2D5FA"/>
<path d="M65.1267 98.1302V98.9502C65.1267 99.4002 64.4567 100.16 63.6167 100.64L45.3567 111.18C44.5267 111.66 43.8467 111.69 43.8467 111.24V110.42L65.1267 98.1302Z" fill="#D2D5FA"/>
<path d="M36.7467 112.05L75.0667 89.9302V71.9102L50.9367 57.9802L12.6267 80.1003V98.1302L36.7467 112.05Z" fill="#9095E2"/>
<path opacity="0.7" d="M36.7467 112.05L75.0667 89.9302V71.9102L50.9367 57.9802L12.6267 80.1003V98.1302L36.7467 112.05Z" fill="white"/>
<path d="M75.0667 71.9102L36.7467 94.0302L12.6267 80.1003L50.9367 57.9802L75.0667 71.9102Z" fill="#263238"/>
<path d="M36.7467 100.59V112.05L12.6267 98.1303V86.6603L36.7467 100.59Z" fill="#9095E2"/>
<path opacity="0.5" d="M36.7467 100.59V112.05L12.6267 98.1303V86.6603L36.7467 100.59Z" fill="white"/>
<path d="M12.6267 80.1003V86.6603L36.7467 100.59V94.0303L12.6267 80.1003Z" fill="#37474F"/>
<path d="M36.7467 94.0302L70.8067 74.3702V79.2903C70.806 79.7874 70.6744 80.2755 70.4252 80.7056C70.1759 81.1357 69.8177 81.4926 69.3867 81.7402L36.7467 100.59V94.0302Z" fill="#D2D5FA"/>
<path d="M69.3867 79.2803C69.3867 78.8303 69.0667 78.6503 68.6767 78.8703C68.4711 79.0062 68.2999 79.1881 68.1767 79.4016C68.0535 79.615 67.9816 79.8543 67.9667 80.1003C67.9667 80.5603 68.2867 80.7402 68.6767 80.5102C68.8845 80.3766 69.0573 80.1953 69.1808 79.9814C69.3043 79.7674 69.3749 79.527 69.3867 79.2803Z" fill="#FAFAFA"/>
<path d="M65.7967 80.5403L61.6267 82.9403C61.4125 83.0777 61.2332 83.2631 61.1031 83.4818C60.9729 83.7005 60.8954 83.9464 60.8767 84.2003C60.8767 84.6503 61.2167 84.8203 61.6267 84.5803L65.7967 82.1803C66.0109 82.0428 66.1902 81.8574 66.3204 81.6388C66.4505 81.4201 66.528 81.1741 66.5467 80.9203C66.5467 80.4703 66.2567 80.3003 65.7967 80.5403Z" fill="#FAFAFA"/>
<path d="M75.0667 68.6503V71.1103L70.8067 73.5703V71.1103C70.8053 68.6189 70.1486 66.1718 68.9023 64.0146C67.6561 61.8573 65.8642 60.066 63.7067 58.8203L46.7067 48.9903L50.9567 46.5303L67.9567 56.3603C70.1161 57.6047 71.91 59.3955 73.158 61.5528C74.4061 63.7101 75.0643 66.158 75.0667 68.6503Z" fill="#9095E2"/>
<path opacity="0.7" d="M75.0667 68.6503V71.1103L70.8067 73.5703V71.1103C70.8053 68.6189 70.1486 66.1718 68.9023 64.0146C67.6561 61.8573 65.8642 60.066 63.7067 58.8203L46.7067 48.9903L50.9567 46.5303L67.9567 56.3603C70.1161 57.6047 71.91 59.3955 73.158 61.5528C74.4061 63.7101 75.0643 66.158 75.0667 68.6503Z" fill="white"/>
<path d="M36.7467 90.7603V93.2103L12.6267 79.2803V68.6503L29.6267 78.4803C31.7865 79.7225 33.5815 81.5113 34.8312 83.6668C36.081 85.8223 36.7416 88.2687 36.7467 90.7603Z" fill="#37474F"/>
<path d="M70.8066 71.0902V73.5502L36.7466 93.2102V90.7602C36.7481 88.267 36.0925 85.8174 34.8461 83.6581C33.5997 81.4987 31.8063 79.7059 29.6466 78.4602L12.6466 68.6302L46.7066 48.9702L63.7066 58.8002C65.8642 60.0459 67.656 61.8373 68.9023 63.9945C70.1485 66.1517 70.8053 68.5989 70.8066 71.0902Z" fill="#D2D5FA"/>
<path d="M18.2966 110.42V98.1302L19.0066 97.7202L28.9466 103.45V115.74L28.2366 116.15L18.2966 110.42Z" fill="#9095E2"/>
<path opacity="0.15" d="M18.2966 110.42V98.1302L19.0066 97.7202L28.9466 103.45V115.74L28.2366 116.15L18.2966 110.42Z" fill="black"/>
<path d="M18.2966 110.42V98.1302L28.2366 103.86V116.15L18.2966 110.42Z" fill="#9095E2"/>
<path opacity="0.6" d="M18.2966 110.42V98.1302L28.2366 103.86V116.15L18.2966 110.42Z" fill="white"/>
<path d="M19.0066 97.7202L18.2966 98.1302L28.2366 103.86L28.9466 103.45L19.0066 97.7202Z" fill="#9095E2"/>
<path opacity="0.8" d="M19.0066 97.7202L18.2966 98.1302L28.2366 103.86L28.9466 103.45L19.0066 97.7202Z" fill="white"/>
<path d="M57.9566 59.6503C57.9481 59.5871 57.9233 59.5272 57.8848 59.4764C57.8462 59.4256 57.7952 59.3856 57.7366 59.3603L47.4566 53.4203C47.3013 53.3428 47.1302 53.3025 46.9566 53.3025C46.7831 53.3025 46.6119 53.3428 46.4566 53.4203L31.2566 62.1803C31.1994 62.2061 31.1499 62.2465 31.113 62.2973C31.0762 62.3482 31.0533 62.4078 31.0466 62.4703V62.9403C31.0516 63.0045 31.0737 63.0662 31.1106 63.119C31.1476 63.1718 31.198 63.2136 31.2566 63.2403L41.5366 69.1803C41.6933 69.2529 41.864 69.2904 42.0366 69.2904C42.2093 69.2904 42.3799 69.2529 42.5366 69.1803L57.6666 60.4403C57.7249 60.4119 57.7753 60.3697 57.8136 60.3174C57.852 60.2652 57.877 60.2044 57.8866 60.1403L57.9566 59.6503Z" fill="#EBEBEB"/>
<path d="M31.2566 62.1803L46.3866 53.4403C46.5419 53.3628 46.7131 53.3225 46.8866 53.3225C47.0602 53.3225 47.2313 53.3628 47.3866 53.4403L57.6666 59.3803C57.729 59.4005 57.7834 59.4399 57.822 59.4929C57.8606 59.5459 57.8813 59.6097 57.8813 59.6753C57.8813 59.7409 57.8606 59.8047 57.822 59.8577C57.7834 59.9107 57.729 59.9502 57.6666 59.9703L42.5366 68.7103C42.3799 68.7829 42.2093 68.8204 42.0366 68.8204C41.8639 68.8204 41.6933 68.7829 41.5366 68.7103L31.2566 62.7703C31.1942 62.7501 31.1398 62.7108 31.1012 62.6577C31.0627 62.6047 31.0419 62.5409 31.0419 62.4753C31.0419 62.4097 31.0627 62.3459 31.1012 62.2928C31.1398 62.2398 31.1942 62.2004 31.2566 62.1803Z" fill="white"/>
<path d="M42.0866 68.8302V69.3002C41.9061 69.3031 41.7276 69.2619 41.5666 69.1802L31.2566 63.2402C31.198 63.2136 31.1476 63.1717 31.1106 63.1189C31.0737 63.0661 31.0516 63.0044 31.0466 62.9402V62.4702C31.0516 62.5344 31.0737 62.5961 31.1106 62.6489C31.1476 62.7017 31.198 62.7436 31.2566 62.7702L41.5366 68.7102C41.7066 68.7968 41.896 68.8381 42.0866 68.8302Z" fill="#9095E2"/>
<path d="M57.9566 58.9503C57.9497 58.8853 57.9257 58.8234 57.8871 58.7707C57.8484 58.718 57.7965 58.6765 57.7366 58.6503L47.4566 52.7103C47.3013 52.6329 47.1302 52.5925 46.9566 52.5925C46.7831 52.5925 46.6119 52.6329 46.4566 52.7103L31.2566 61.4503C31.198 61.477 31.1476 61.5189 31.1106 61.5716C31.0737 61.6244 31.0516 61.6861 31.0466 61.7503V62.2103C31.0516 62.2745 31.0737 62.3363 31.1106 62.389C31.1476 62.4418 31.198 62.4837 31.2566 62.5103L41.5366 68.4503C41.6933 68.5229 41.864 68.5605 42.0366 68.5605C42.2093 68.5605 42.3799 68.5229 42.5366 68.4503L57.6666 59.7103C57.7236 59.6828 57.7733 59.6422 57.8115 59.5918C57.8498 59.5414 57.8755 59.4826 57.8866 59.4203L57.9566 58.9503Z" fill="#EBEBEB"/>
<path d="M31.2566 61.4503L46.3866 52.7103C46.5419 52.6329 46.7131 52.5925 46.8866 52.5925C47.0602 52.5925 47.2313 52.6329 47.3866 52.7103L57.7366 58.6503C57.799 58.6705 57.8534 58.7099 57.892 58.7629C57.9306 58.8159 57.9513 58.8798 57.9513 58.9453C57.9513 59.0109 57.9306 59.0748 57.892 59.1278C57.8534 59.1808 57.799 59.2202 57.7366 59.2403L42.6066 67.9803C42.4513 68.0578 42.2802 68.0981 42.1066 68.0981C41.9331 68.0981 41.7619 68.0578 41.6066 67.9803L31.2566 62.0403C31.1942 62.0202 31.1398 61.9808 31.1012 61.9278C31.0627 61.8748 31.0419 61.8109 31.0419 61.7453C31.0419 61.6798 31.0627 61.6159 31.1012 61.5629C31.1398 61.5099 31.1942 61.4705 31.2566 61.4503Z" fill="white"/>
<path d="M42.0866 68.1003V68.5703C41.9061 68.5731 41.7276 68.5319 41.5666 68.4502L31.2566 62.5102C31.198 62.4836 31.1476 62.4417 31.1106 62.3889C31.0737 62.3362 31.0516 62.2745 31.0466 62.2102V61.7402C31.0505 61.8048 31.0722 61.8669 31.1093 61.9199C31.1463 61.9728 31.1973 62.0145 31.2566 62.0403L41.5366 67.9802C41.7066 68.0668 41.896 68.1082 42.0866 68.1003Z" fill="#9095E2"/>
<path d="M16.8867 67.8102L32.4967 76.8102L50.9367 66.1502V61.2402L35.3267 52.2402L21.1367 60.4302C19.8439 61.1778 18.7707 62.2524 18.0246 63.546C17.2786 64.8397 16.8862 66.3069 16.8867 67.8002V67.8102Z" fill="#D2D5FA"/>
<path d="M50.9367 61.2603L36.7467 69.4503C35.4531 70.1994 34.3795 71.2758 33.6335 72.5712C32.8875 73.8666 32.4954 75.3354 32.4967 76.8303L50.9367 66.1703V61.2603Z" fill="#263238"/>
<path d="M33.6367 72.5703C32.8837 73.8601 32.4868 75.3268 32.4867 76.8203L16.8867 67.8203C16.886 66.3261 17.2755 64.8577 18.0167 63.5603L33.6367 72.5703Z" fill="#37474F"/>
<path d="M23.9767 62.0803L35.3267 55.5203L43.8467 60.4403L32.4967 66.9903L23.9767 62.0803Z" fill="#37474F"/>
<path d="M24.6866 62.4903L32.4967 66.9903L43.1367 60.8503L35.3267 56.3403L24.6866 62.4903Z" fill="#9095E2"/>
<path d="M35.3267 55.5203V56.3403L24.6867 62.4903L23.9767 62.0803L35.3267 55.5203Z" fill="#263238"/>
<path opacity="0.4" d="M32.3766 65.6503L32.0066 65.4403C31.9829 65.4304 31.9627 65.4137 31.9485 65.3924C31.9342 65.371 31.9266 65.346 31.9266 65.3203C31.9266 65.2946 31.9342 65.2696 31.9485 65.2482C31.9627 65.2268 31.9829 65.2102 32.0066 65.2003L33.1466 64.5403C33.2109 64.5107 33.2809 64.4954 33.3516 64.4954C33.4224 64.4954 33.4924 64.5107 33.5566 64.5403L33.9166 64.7503C34.0366 64.8203 34.0366 64.9303 33.9166 64.9903L32.7866 65.6503C32.7224 65.6799 32.6524 65.6953 32.5816 65.6953C32.5109 65.6953 32.4409 65.6799 32.3766 65.6503Z" fill="black"/>
<path opacity="0.4" d="M34.6967 64.3503L34.3367 64.1403C34.2167 64.0703 34.2167 63.9703 34.3367 63.9003L35.4667 63.2403C35.531 63.2107 35.6009 63.1953 35.6717 63.1953C35.7425 63.1953 35.8124 63.2107 35.8767 63.2403L36.2467 63.4503C36.3567 63.5203 36.3567 63.6303 36.2467 63.6903L35.1067 64.3503C35.0424 64.3799 34.9725 64.3952 34.9017 64.3952C34.8309 64.3952 34.761 64.3799 34.6967 64.3503Z" fill="black"/>
<path opacity="0.4" d="M37.0167 63.0102L36.6567 62.8002C36.5367 62.7302 36.5367 62.6202 36.6567 62.5602L37.7867 61.9002C37.8526 61.8704 37.9242 61.855 37.9967 61.855C38.0691 61.855 38.1407 61.8704 38.2067 61.9002L38.5667 62.1102C38.5903 62.1201 38.6106 62.1368 38.6248 62.1581C38.6391 62.1795 38.6467 62.2045 38.6467 62.2302C38.6467 62.2559 38.6391 62.281 38.6248 62.3023C38.6106 62.3237 38.5903 62.3403 38.5667 62.3502L37.4267 63.0102C37.3624 63.0398 37.2924 63.0551 37.2217 63.0551C37.1509 63.0551 37.0809 63.0398 37.0167 63.0102Z" fill="black"/>
<path opacity="0.4" d="M39.3367 61.6502L38.9767 61.4402C38.8667 61.3702 38.8667 61.2602 38.9767 61.2002L40.1067 60.5403C40.1727 60.5104 40.2442 60.495 40.3167 60.495C40.3891 60.495 40.4607 60.5104 40.5267 60.5403L40.8867 60.7502C40.9104 60.7601 40.9306 60.7768 40.9448 60.7981C40.9591 60.8195 40.9667 60.8446 40.9667 60.8702C40.9667 60.8959 40.9591 60.921 40.9448 60.9424C40.9306 60.9637 40.9104 60.9804 40.8867 60.9902L39.7467 61.6502C39.6824 61.6798 39.6124 61.6952 39.5417 61.6952C39.4709 61.6952 39.401 61.6798 39.3367 61.6502Z" fill="black"/>
<g opacity="0.4">
<path opacity="0.4" d="M28.1366 62.3103C28.3798 62.1915 28.6344 62.0977 28.8966 62.0303L29.0366 62.2203L28.6366 62.3003C28.5221 62.3265 28.4112 62.3668 28.3066 62.4203C27.9466 62.6303 28.1066 62.9403 28.7566 63.3203C28.9729 63.4891 29.228 63.6013 29.4986 63.6467C29.7693 63.6921 30.047 63.6692 30.3066 63.5803C30.3924 63.5325 30.4646 63.4637 30.5166 63.3803L30.6466 63.1503L30.9766 63.2303C30.8457 63.4058 30.6829 63.5551 30.4966 63.6703H30.4366C30.0994 63.8302 29.7273 63.9021 29.3549 63.8794C28.9824 63.8567 28.6218 63.74 28.3066 63.5403C27.5966 63.1303 27.5066 62.6403 28.0766 62.3103H28.1366Z" fill="black"/>
<path opacity="0.4" d="M32.2566 61.2803C32.9666 61.6903 33.0366 62.1903 32.4466 62.5403C32.1047 62.707 31.7258 62.7835 31.346 62.7625C30.9661 62.7415 30.598 62.6237 30.2766 62.4203C29.5666 62.0203 29.4966 61.5203 30.0866 61.1703C30.4282 61.0039 30.8063 60.9268 31.1857 60.946C31.5652 60.9652 31.9336 61.0802 32.2566 61.2803ZM30.7166 62.1703C30.9428 62.3476 31.2127 62.4607 31.4978 62.4976C31.7828 62.5346 32.0726 62.494 32.3366 62.3803C32.6466 62.2003 32.4666 61.9103 31.8266 61.5403C31.5985 61.367 31.3294 61.2556 31.0455 61.217C30.7617 61.1785 30.4726 61.2141 30.2066 61.3203C29.9166 61.5003 30.0966 61.8003 30.7366 62.1703H30.7166Z" fill="black"/>
<path opacity="0.4" d="M32.5766 59.7803C32.8351 59.6266 33.1283 59.5405 33.4289 59.53C33.7295 59.5195 34.0279 59.585 34.2966 59.7203C34.8166 60.0103 34.7966 60.4203 34.2966 60.7203L33.8166 61.0003L34.4466 61.3603L34.0266 61.6103L31.7366 60.2803L32.5766 59.7803ZM33.5766 60.9103L33.9566 60.6903C34.3366 60.4803 34.2966 60.2203 33.8566 59.9703C33.6748 59.863 33.4676 59.8064 33.2566 59.8064C33.0455 59.8064 32.8383 59.863 32.6566 59.9703L32.2766 60.1903L33.5766 60.9103Z" fill="black"/>
<path opacity="0.4" d="M33.8365 59.0603L34.2565 58.7803L36.2065 59.1303L36.1165 58.9503C35.9499 58.6209 35.7186 58.3284 35.4365 58.0903L35.8365 57.9103L36.4666 59.1203L37.3965 59.6603L36.9765 59.9003L36.2065 59.4503L33.8365 59.0603Z" fill="black"/>
</g>
<path d="M16.0767 84.3003L31.6866 93.3203V95.3003L16.0767 86.2903V84.3003Z" fill="#263238"/>
<path opacity="0.15" d="M31.0767 94.4003V103.86L16.8867 95.6703V86.4103L31.0767 94.4003Z" fill="black"/>
<path d="M31.0767 93.4903L16.8867 85.3003L0.696655 89.9703C0.446655 90.0403 0.31665 90.1603 0.31665 90.3003V91.2003C0.31665 91.3203 0.416659 91.4503 0.606659 91.5603L13.2567 98.8803C13.7504 99.1319 14.3177 99.1993 14.8567 99.0703L31.0466 94.4003L31.0767 93.4903Z" fill="#37474F"/>
<path d="M31.0766 93.4903L14.8866 98.1603C14.3476 98.2893 13.7804 98.2219 13.2866 97.9703L0.606604 90.6503C0.196604 90.4103 0.2266 90.1103 0.6966 89.9703L16.8866 85.3003L31.0766 93.4903Z" fill="#D2D5FA"/>
<path d="M14.0466 98.2003V99.1103C13.7811 99.0822 13.5232 99.0042 13.2867 98.8803L0.606659 91.5603C0.416659 91.4503 0.31665 91.3203 0.31665 91.2003V90.3003C0.31665 90.4103 0.416659 90.5403 0.606659 90.6503L13.2567 97.9703C13.5005 98.1026 13.7699 98.181 14.0466 98.2003Z" fill="#263238"/>
<path d="M27.9267 91.7203C27.9267 91.6603 27.9267 91.6003 27.7867 91.5403L18.6067 86.2403C18.359 86.1166 18.0756 86.0847 17.8067 86.1503L3.64667 90.2503C3.52667 90.2503 3.46667 90.3502 3.46667 90.4202V91.0903C3.46667 91.1503 3.46667 91.2102 3.60667 91.2702L12.7867 96.5703C13.0343 96.694 13.3178 96.7258 13.5867 96.6603L27.7367 92.5603C27.8667 92.5603 27.9267 92.4603 27.9267 92.4003V91.7203Z" fill="#EBEBEB"/>
<path d="M27.7366 91.8803L13.5866 95.9902C13.3163 96.0477 13.0345 96.0125 12.7866 95.8902L3.60664 90.5903C3.39664 90.4703 3.41664 90.3203 3.60664 90.2503L17.7666 86.1503C18.0355 86.0847 18.319 86.1166 18.5666 86.2403L27.7466 91.5403C27.9866 91.6503 27.9766 91.8103 27.7366 91.8803Z" fill="#B72851"/>
<path d="M27.9267 91.7202V92.4002C27.9267 92.4602 27.8567 92.5202 27.7467 92.5602L13.5867 96.6502C13.4709 96.6708 13.3525 96.6708 13.2367 96.6502V95.9802C13.3525 96.0008 13.4709 96.0008 13.5867 95.9802L27.7467 91.8702C27.8667 91.8402 27.9267 91.7902 27.9267 91.7202Z" fill="#F0F0F0"/>
<path d="M90.0466 11.0302C90.0111 11.0118 89.9717 11.0022 89.9317 11.0022C89.8916 11.0022 89.8522 11.0118 89.8167 11.0302C89.7391 11.081 89.659 11.1277 89.5767 11.1702L89.7267 26.7902C89.7319 26.9009 89.7638 27.0086 89.8195 27.1043C89.8752 27.2 89.9531 27.2809 90.0466 27.3402L102.257 34.3702V18.0802L90.0466 11.0302Z" fill="#9095E2"/>
<path opacity="0.2" d="M90.0466 11.0302C90.0111 11.0118 89.9717 11.0022 89.9317 11.0022C89.8916 11.0022 89.8522 11.0118 89.8167 11.0302C89.7391 11.081 89.659 11.1277 89.5767 11.1702L89.7267 26.7902C89.7319 26.9009 89.7638 27.0086 89.8195 27.1043C89.8752 27.2 89.9531 27.2809 90.0466 27.3402L102.257 34.3702V18.0802L90.0466 11.0302Z" fill="black"/>
<path d="M89.8067 11.1603C89.6367 11.0603 89.4867 11.1603 89.4867 11.3503V26.9003C89.4943 27.0103 89.5272 27.1172 89.5826 27.2125C89.6381 27.3079 89.7148 27.3892 89.8067 27.4503L102.037 34.5103V18.2203L89.8067 11.1603Z" fill="#9095E2"/>
<path opacity="0.5" d="M89.8067 11.1603C89.6367 11.0603 89.4867 11.1603 89.4867 11.3503V26.9003C89.4943 27.0103 89.5272 27.1172 89.5826 27.2125C89.6381 27.3079 89.7148 27.3892 89.8067 27.4503L102.037 34.5103V18.2203L89.8067 11.1603Z" fill="black"/>
<path d="M99.0267 32.9901L89.9767 27.7601C89.8863 27.7007 89.8112 27.6209 89.7573 27.5271C89.7035 27.4333 89.6724 27.3282 89.6667 27.2202V12.8701L88.4767 12.1902L89.6867 11.5002C89.7043 11.4823 89.7254 11.4682 89.7486 11.4585C89.7717 11.4488 89.7966 11.4438 89.8217 11.4438C89.8468 11.4438 89.8716 11.4488 89.8948 11.4585C89.918 11.4682 89.939 11.4823 89.9567 11.5002L100.327 17.5002V33.7502L99.0067 34.5201L99.0267 32.9901Z" fill="#EBEBEB"/>
<path d="M88.6567 12.2402C88.4867 12.1402 88.3467 12.2402 88.3467 12.4202V27.9802C88.3524 28.0896 88.3834 28.1961 88.4372 28.2915C88.491 28.387 88.5661 28.4686 88.6567 28.5302L99.0267 34.5302V18.2302L88.6567 12.2402Z" fill="#FAFAFA"/>
<path d="M99.0267 18.2302L100.347 17.4602V33.7502L99.0267 34.5202V18.2302Z" fill="#E6E6E6"/>
<path d="M98.5968 18.6502C98.6013 18.6103 98.6013 18.5701 98.5968 18.5302C98.5789 18.4709 98.5482 18.4163 98.5068 18.3702H98.4568C98.3668 18.3102 98.2868 18.3702 98.2868 18.4902C98.2719 18.5459 98.2719 18.6045 98.2868 18.6602C98.3131 18.7254 98.3584 18.7812 98.4168 18.8202C98.5268 18.8402 98.5968 18.7902 98.5968 18.6502Z" fill="#263238"/>
<path d="M100.427 19.4602C100.592 19.3686 100.722 19.2243 100.797 19.0502C100.835 18.9726 100.856 18.887 100.856 18.8002C100.856 18.7135 100.835 18.6279 100.797 18.5502C100.717 18.4183 100.603 18.311 100.467 18.2402H100.387V18.4502C100.807 18.7002 100.807 19.1003 100.387 19.3503C100.145 19.4732 99.8778 19.5373 99.6067 19.5373C99.3355 19.5373 99.0683 19.4732 98.8267 19.3503C98.7303 19.3073 98.6486 19.237 98.5918 19.1482C98.5349 19.0593 98.5053 18.9557 98.5066 18.8503C98.5172 18.7557 98.5595 18.6676 98.6266 18.6003C98.6088 18.5409 98.5781 18.4863 98.5366 18.4402C98.4283 18.5284 98.3547 18.6522 98.3291 18.7896C98.3035 18.9269 98.3274 19.0689 98.3966 19.1902C98.4845 19.3211 98.6007 19.4304 98.7366 19.5102C99.0037 19.6307 99.2946 19.6888 99.5874 19.6801C99.8802 19.6715 100.167 19.5963 100.427 19.4602Z" fill="#263238"/>
<path d="M98.9467 19.7803L87.7167 12.2203L87.8867 12.1203C87.9364 12.0956 87.9911 12.0828 88.0467 12.0828C88.1022 12.0828 88.1569 12.0956 88.2067 12.1203L99.2067 19.6503L98.9467 19.7803Z" fill="#9095E2"/>
<path opacity="0.2" d="M98.9467 19.7803L87.7167 12.2203L87.8867 12.1203C87.9364 12.0956 87.9911 12.0828 88.0467 12.0828C88.1022 12.0828 88.1569 12.0956 88.2067 12.1203L99.2067 19.6503L98.9467 19.7803Z" fill="black"/>
<path d="M87.9367 12.2402C87.7667 12.1402 87.6267 12.2402 87.6267 12.4202V27.9802C87.6325 28.0896 87.6634 28.1961 87.7172 28.2915C87.771 28.387 87.8461 28.4686 87.9367 28.5302L99.1367 36.1802V19.8902L87.9367 12.2402Z" fill="#9095E2"/>
<path d="M102.267 18.0802V34.3702L99.1267 36.1802V19.8902L102.267 18.0802Z" fill="#9095E2"/>
<path opacity="0.1" d="M102.267 18.0802V34.3702L99.1267 36.1802V19.8902L102.267 18.0802Z" fill="black"/>
<path d="M101.647 21.6502C101.602 21.5754 101.541 21.5115 101.468 21.463C101.396 21.4146 101.313 21.3829 101.227 21.3702C101.041 21.3445 100.853 21.3871 100.697 21.4902C100.439 21.6547 100.225 21.8786 100.072 22.1431C99.9185 22.4076 99.8311 22.7049 99.8167 23.0102C99.8152 23.167 99.8531 23.3218 99.9267 23.4602C99.9762 23.5432 100.043 23.6143 100.123 23.6685C100.203 23.7227 100.294 23.7587 100.389 23.774C100.485 23.7892 100.582 23.7833 100.675 23.7568C100.768 23.7302 100.854 23.6836 100.927 23.6202C101.182 23.454 101.394 23.2295 101.545 22.9652C101.696 22.7009 101.783 22.4044 101.797 22.1002C101.802 21.9442 101.767 21.7895 101.697 21.6502H101.647Z" fill="#D2D5FA"/>
<path d="M100.787 21.6502C101.217 21.4002 101.567 21.6002 101.567 22.1002C101.552 22.3722 101.474 22.6369 101.339 22.8731C101.203 23.1093 101.014 23.3104 100.787 23.4602C100.347 23.7102 99.9967 23.5102 99.9967 23.0102C100.011 22.737 100.09 22.4712 100.227 22.2346C100.365 21.9981 100.556 21.7978 100.787 21.6502Z" fill="#F5F5F5"/>
<path d="M100.627 25.0202L100.867 24.8902C101.347 24.6102 101.727 24.8302 101.727 25.3802V32.4402C101.712 32.7391 101.627 33.0302 101.477 33.2893C101.328 33.5485 101.118 33.7682 100.867 33.9302L100.627 34.0702C100.157 34.3402 99.7667 34.1202 99.7667 33.5702V26.5102C99.7843 26.212 99.8712 25.9221 100.021 25.6635C100.17 25.4048 100.377 25.1845 100.627 25.0202Z" fill="#F5F5F5"/>
<path d="M102.077 17.9702L98.9567 19.7702L99.1267 19.8902L102.267 18.0802L102.077 17.9702Z" fill="#9095E2"/>
<path opacity="0.2" d="M102.077 17.9702L98.9567 19.7702L99.1267 19.8902L102.267 18.0802L102.077 17.9702Z" fill="black"/>
<path d="M98.3867 36.4601C98.4238 36.4343 98.454 36.3999 98.4749 36.3599C98.4958 36.3198 98.5067 36.2753 98.5067 36.2301V20.2301C98.5053 20.1816 98.4918 20.1342 98.4673 20.0923C98.4429 20.0504 98.4083 20.0152 98.3667 19.9901L86.7367 12.3901L86.4967 12.5302V28.8102L98.1367 36.4201C98.1723 36.446 98.2135 36.4631 98.2569 36.47C98.3003 36.477 98.3448 36.4736 98.3867 36.4601Z" fill="#9095E2"/>
<path opacity="0.1" d="M98.2567 20.2602L98.4967 20.1202C98.5044 20.1666 98.5044 20.2139 98.4967 20.2602V36.2602C98.5002 36.3049 98.4911 36.3496 98.4705 36.3894C98.4499 36.4292 98.4186 36.4624 98.3801 36.4853C98.3416 36.5082 98.2975 36.5198 98.2527 36.5189C98.2079 36.518 98.1643 36.5046 98.1267 36.4802C98.1967 36.4802 98.2567 36.4802 98.2567 36.4002V20.4002C98.27 20.3545 98.27 20.3059 98.2567 20.2602Z" fill="black"/>
<path opacity="0.5" d="M86.4967 12.5602L98.1267 20.1602C98.1693 20.1827 98.2041 20.2175 98.2267 20.2602C98.24 20.3059 98.24 20.3545 98.2267 20.4002V36.4002C98.2267 36.4802 98.1667 36.5202 98.0967 36.4802L86.4567 28.8702L86.4967 12.5602Z" fill="black"/>
<path opacity="0.2" d="M86.4967 12.5602L86.7367 12.4202L98.3667 20.0202C98.4071 20.0456 98.4412 20.0798 98.4667 20.1202L98.2267 20.2602C98.2042 20.2175 98.1693 20.1827 98.1267 20.1602L86.4967 12.5602Z" fill="black"/>
<path d="M86.6868 12.6602L86.6968 28.9501L83.5568 30.7701L83.5868 14.4601L86.6868 12.6602Z" fill="#9095E2"/>
<path opacity="0.7" d="M86.6868 12.6602L86.6968 28.9501L83.5568 30.7701L83.5868 14.4601L86.6868 12.6602Z" fill="black"/>
<path d="M96.6167 37.2802C96.6684 37.31 96.7271 37.3257 96.7867 37.3257C96.8464 37.3257 96.9051 37.31 96.9567 37.2802L97.5967 36.9202C97.6457 36.886 97.6863 36.8413 97.7157 36.7894C97.7451 36.7375 97.7626 36.6797 97.7667 36.6202V20.7302C97.7622 20.6696 97.7435 20.611 97.7123 20.5589C97.681 20.5068 97.638 20.4627 97.5867 20.4302L87.4167 14.1702L86.4167 14.7402V31.0202L96.6167 37.2802Z" fill="#EBEBEB"/>
<path d="M86.4368 31.0202L96.6168 37.2802C96.7168 37.3402 96.7868 37.2802 96.7868 37.1802V21.2903C96.784 21.2306 96.766 21.1726 96.7345 21.1218C96.703 21.071 96.659 21.0292 96.6068 21.0002L86.4368 14.7402V31.0202Z" fill="#FAFAFA"/>
<path d="M87.1867 15.8502C87.1913 15.8104 87.1913 15.7701 87.1867 15.7302C87.1689 15.6709 87.1382 15.6163 87.0967 15.5702H87.0467C86.9567 15.5102 86.8767 15.5702 86.8767 15.7002C86.8632 15.7527 86.8632 15.8077 86.8767 15.8602C86.903 15.9254 86.9483 15.9811 87.0067 16.0202C87.1167 16.0202 87.1867 15.9702 87.1867 15.8502Z" fill="#263238"/>
<path d="M96.7268 21.1302L97.7268 20.5602C97.7657 20.6083 97.7868 20.6683 97.7868 20.7302V36.6502C97.7826 36.7097 97.7652 36.7675 97.7358 36.8194C97.7063 36.8713 97.6657 36.916 97.6168 36.9502L96.9768 37.3102C96.9316 37.3323 96.882 37.3438 96.8318 37.3438C96.7815 37.3438 96.7319 37.3323 96.6868 37.3102C96.7568 37.3102 96.8068 37.3102 96.8068 37.2002V21.3002C96.8013 21.2358 96.7729 21.1754 96.7268 21.1302Z" fill="#E6E6E6"/>
<path d="M84.9067 15.0402C84.9084 15.1669 84.9459 15.2904 85.0149 15.3966C85.084 15.5028 85.1817 15.5873 85.2967 15.6402C85.8393 15.8907 86.4548 15.9334 87.0267 15.7602C87.0267 15.6802 86.9567 15.5802 86.9467 15.5402C86.4405 15.692 85.8961 15.6528 85.4167 15.4302C85.3184 15.3884 85.2373 15.3143 85.1867 15.2202C85.1541 15.1658 85.1368 15.1036 85.1367 15.0402C85.1367 14.8302 85.3467 14.5802 85.6967 14.4002C86.017 14.2233 86.3728 14.1207 86.7381 14.0999C87.1033 14.0791 87.4685 14.1407 87.8067 14.2802C87.9192 14.3412 88.01 14.4355 88.0667 14.5502L88.3167 14.7002C88.3212 14.5944 88.2933 14.4897 88.2367 14.4002C88.165 14.272 88.0572 14.1677 87.9267 14.1002C87.5518 13.9415 87.146 13.8689 86.7392 13.888C86.3325 13.907 85.9352 14.0171 85.5768 14.2102C85.4028 14.2787 85.2496 14.3912 85.1321 14.5367C85.0147 14.6822 84.937 14.8557 84.9067 15.0402Z" fill="#263238"/>
<path d="M96.3967 37.6502C96.4338 37.6244 96.4641 37.59 96.485 37.55C96.5059 37.5099 96.5167 37.4654 96.5167 37.4202V21.4202C96.5122 21.3724 96.4974 21.3262 96.4732 21.2848C96.449 21.2433 96.4161 21.2077 96.3767 21.1802L83.6167 14.2302L83.3767 14.3702V30.6502L96.1367 37.6502C96.1773 37.6697 96.2217 37.6799 96.2667 37.6799C96.3117 37.6799 96.3562 37.6697 96.3967 37.6502Z" fill="#9095E2"/>
<path opacity="0.1" d="M96.2567 21.4103L96.4867 21.2703C96.4935 21.3167 96.4935 21.3639 96.4867 21.4103V37.4103C96.4867 37.4555 96.4758 37.5 96.4549 37.54C96.434 37.5801 96.4038 37.6144 96.3667 37.6403C96.3261 37.6598 96.2817 37.6699 96.2367 37.6699C96.1917 37.6699 96.1473 37.6598 96.1067 37.6403C96.1867 37.6403 96.2467 37.6403 96.2467 37.5603V21.5603C96.2603 21.5115 96.2636 21.4604 96.2567 21.4103Z" fill="black"/>
<path d="M83.3767 14.3602L96.1367 21.3602C96.177 21.3857 96.2112 21.4199 96.2367 21.4602C96.2456 21.5065 96.2456 21.554 96.2367 21.6003V37.6003C96.2367 37.6903 96.1767 37.7202 96.0967 37.6802L83.3367 30.6802L83.3767 14.3602Z" fill="#9095E2"/>
<path opacity="0.2" d="M83.3767 14.3602L83.6167 14.2202L96.3767 21.1702C96.4164 21.1933 96.4479 21.2283 96.4667 21.2702L96.2367 21.4102C96.2113 21.3698 96.1771 21.3357 96.1367 21.3102L83.3767 14.3602Z" fill="black"/>
<path d="M86.4967 12.5602L83.3767 14.3602L83.5867 14.4602L86.6867 12.6602L86.4967 12.5602Z" fill="#9095E2"/>
<path opacity="0.2" d="M86.4967 12.5602L83.3767 14.3602L83.5867 14.4602L86.6867 12.6602L86.4967 12.5602Z" fill="black"/>
<path d="M83.5467 14.7802C83.5129 14.7618 83.4751 14.7522 83.4367 14.7522C83.3982 14.7522 83.3604 14.7618 83.3267 14.7802L83.0867 14.9202L83.2367 30.5402C83.2424 30.6496 83.2734 30.7561 83.3272 30.8516C83.3809 30.947 83.4561 31.0287 83.5467 31.0902L95.7767 38.1502V21.8302L83.5467 14.7802Z" fill="#9095E2"/>
<path opacity="0.2" d="M83.5467 14.7802C83.5129 14.7618 83.4751 14.7522 83.4367 14.7522C83.3982 14.7522 83.3604 14.7618 83.3267 14.7802L83.0867 14.9202L83.2367 30.5402C83.2424 30.6496 83.2734 30.7561 83.3272 30.8516C83.3809 30.947 83.4561 31.0287 83.5467 31.0902L95.7767 38.1502V21.8302L83.5467 14.7802Z" fill="black"/>
<path d="M83.3167 14.9103C83.1367 14.8103 82.9967 14.9103 82.9967 15.1003V30.6503C83.002 30.7609 83.0338 30.8686 83.0895 30.9644C83.1452 31.0601 83.2231 31.141 83.3167 31.2003L95.5367 38.2603V21.9703L83.3167 14.9103Z" fill="#9095E2"/>
<path opacity="0.5" d="M83.3167 14.9103C83.1367 14.8103 82.9967 14.9103 82.9967 15.1003V30.6503C83.002 30.7609 83.0338 30.8686 83.0895 30.9644C83.1452 31.0601 83.2231 31.141 83.3167 31.2003L95.5367 38.2603V21.9703L83.3167 14.9103Z" fill="black"/>
<path d="M92.5367 36.7402L83.4867 31.5102C83.3939 31.4525 83.3164 31.3733 83.2607 31.2793C83.205 31.1853 83.1727 31.0793 83.1667 30.9702V16.6502L81.9867 15.9702L83.1967 15.2802C83.1967 15.2002 83.3467 15.1802 83.4667 15.2802L93.8267 21.2802V37.5702L92.5067 38.3302L92.5367 36.7402Z" fill="#EBEBEB"/>
<path d="M82.1667 15.9902C81.9967 15.8902 81.8467 15.9902 81.8467 16.1702V31.7302C81.8558 31.8399 81.8892 31.9462 81.9445 32.0413C81.9999 32.1365 82.0758 32.2181 82.1667 32.2802L92.5367 38.2802V21.9802L82.1667 15.9902Z" fill="#FAFAFA"/>
<path d="M92.5267 21.9802L93.8467 21.2102L93.8567 37.5002L92.5367 38.2602L92.5267 21.9802Z" fill="#E6E6E6"/>
<path d="M92.0968 22.4202C92.1016 22.3804 92.1016 22.3401 92.0968 22.3002C92.0754 22.2403 92.0413 22.1857 91.9968 22.1402C91.9804 22.136 91.9632 22.136 91.9468 22.1402C91.8568 22.0802 91.7768 22.1402 91.7868 22.2602C91.7719 22.3159 91.7719 22.3746 91.7868 22.4302C91.807 22.4933 91.8497 22.5466 91.9068 22.5802C92.0368 22.5902 92.0968 22.5402 92.0968 22.4202Z" fill="#263238"/>
<path d="M93.9268 23.2102C94.097 23.1216 94.2313 22.9767 94.3068 22.8002C94.3434 22.722 94.3624 22.6366 94.3624 22.5502C94.3624 22.4638 94.3434 22.3785 94.3068 22.3002C94.2237 22.1679 94.1062 22.0608 93.9668 21.9902H93.8868V22.2002C94.3168 22.4502 94.3068 22.8503 93.8868 23.1003C93.6451 23.2232 93.3779 23.2873 93.1068 23.2873C92.8357 23.2873 92.5684 23.2232 92.3268 23.1003C92.0868 22.9603 91.9768 22.7803 92.0068 22.6003C92.0128 22.5045 92.0559 22.4149 92.1268 22.3503C92.1054 22.2903 92.0713 22.2357 92.0268 22.1902C91.9493 22.2574 91.8908 22.3436 91.8568 22.4402C91.818 22.5179 91.7979 22.6035 91.7979 22.6902C91.7979 22.777 91.818 22.8626 91.8568 22.9402C91.9379 23.0731 92.0514 23.1832 92.1868 23.2602C92.4604 23.3888 92.7605 23.4512 93.0627 23.4425C93.3649 23.4339 93.6609 23.3543 93.9268 23.2102Z" fill="#263238"/>
<path d="M92.4567 23.5302L81.2567 15.9702L81.4267 15.8701C81.4747 15.8456 81.5278 15.8328 81.5817 15.8328C81.6356 15.8328 81.6887 15.8456 81.7367 15.8701L92.7367 23.3901L92.4567 23.5302Z" fill="#9095E2"/>
<path opacity="0.2" d="M92.4567 23.5302L81.2567 15.9702L81.4267 15.8701C81.4747 15.8456 81.5278 15.8328 81.5817 15.8328C81.6356 15.8328 81.6887 15.8456 81.7367 15.8701L92.7367 23.3901L92.4567 23.5302Z" fill="black"/>
<path d="M81.4467 15.9902C81.2667 15.8902 81.1267 15.9902 81.1267 16.1702V31.7302C81.132 31.8408 81.1638 31.9486 81.2195 32.0443C81.2752 32.14 81.3532 32.2209 81.4467 32.2802L92.6367 39.9302V23.6502L81.4467 15.9902Z" fill="#9095E2"/>
<path d="M95.7667 21.8302L95.7767 38.1202L92.6367 39.9302V23.6402L95.7667 21.8302Z" fill="#9095E2"/>
<path opacity="0.1" d="M95.7667 21.8302L95.7767 38.1202L92.6367 39.9302V23.6402L95.7667 21.8302Z" fill="black"/>
<path d="M95.1467 25.4002C95.1057 25.3241 95.0471 25.259 94.9758 25.2103C94.9044 25.1615 94.8224 25.1306 94.7367 25.1202C94.5481 25.0938 94.3564 25.1364 94.1967 25.2402C93.9404 25.4052 93.7275 25.6294 93.5761 25.8939C93.4247 26.1585 93.3392 26.4556 93.3267 26.7602C93.3208 26.9131 93.3552 27.0648 93.4267 27.2002C93.474 27.2853 93.5398 27.3587 93.6193 27.4149C93.6988 27.4712 93.7899 27.5089 93.8859 27.5252C93.9819 27.5415 94.0803 27.536 94.1739 27.5092C94.2675 27.4824 94.3539 27.4349 94.4267 27.3702C94.6849 27.2063 94.8997 26.9826 95.0529 26.718C95.2061 26.4533 95.2932 26.1557 95.3067 25.8502C95.3081 25.6934 95.2703 25.5386 95.1967 25.4002H95.1467Z" fill="#D2D5FA"/>
<path d="M94.2567 25.4002C94.6967 25.1502 95.0467 25.3502 95.0467 25.8502C95.0326 26.1234 94.9536 26.3893 94.8162 26.6258C94.6788 26.8623 94.487 27.0627 94.2567 27.2102C93.8267 27.4602 93.4767 27.2602 93.4767 26.7602C93.4912 26.4883 93.5694 26.2236 93.7048 25.9874C93.8403 25.7512 94.0293 25.5501 94.2567 25.4002Z" fill="#F5F5F5"/>
<path d="M94.1367 28.7702L94.3767 28.6302C94.8467 28.3602 95.2367 28.5802 95.2367 29.1302V36.1902C95.2199 36.4885 95.1333 36.7787 94.984 37.0375C94.8346 37.2963 94.6266 37.5164 94.3767 37.6802L94.1367 37.8202C93.6567 38.0902 93.2767 37.8702 93.2767 37.3202V30.2602C93.292 29.9615 93.3779 29.6707 93.5274 29.4117C93.6769 29.1526 93.8857 28.9328 94.1367 28.7702Z" fill="#F5F5F5"/>
<path d="M95.5867 21.7202L92.4667 23.5202L92.6367 23.6402L95.7667 21.8302L95.5867 21.7202Z" fill="#9095E2"/>
<path opacity="0.2" d="M95.5867 21.7202L92.4667 23.5202L92.6367 23.6402L95.7667 21.8302L95.5867 21.7202Z" fill="black"/>
<path d="M83.6766 38.0603C86.4566 39.6603 86.4566 42.2703 83.6766 43.8703C82.1152 44.6642 80.3883 45.078 78.6366 45.078C76.8849 45.078 75.158 44.6642 73.5966 43.8703C70.8166 42.2703 70.8166 39.6703 73.5966 38.0603C75.158 37.2664 76.8849 36.8525 78.6366 36.8525C80.3883 36.8525 82.1152 37.2664 83.6766 38.0603Z" fill="#37474F"/>
<path d="M82.8666 41.2803C85.1166 38.9903 86.4266 33.2803 84.2366 31.4403H73.0966C70.9066 33.2603 72.2166 38.9803 74.4666 41.2803L74.5266 41.3403L74.6066 41.4103C74.6658 41.4781 74.733 41.5386 74.8066 41.5903V41.6403L74.9766 41.7603L75.2666 41.9503C76.3044 42.4781 77.4523 42.7532 78.6166 42.7532C79.7809 42.7532 80.9288 42.4781 81.9666 41.9503L82.2566 41.7603L82.4166 41.6403L82.4766 41.5903L82.6766 41.4203L82.7666 41.3303L82.8666 41.2803Z" fill="#EBEBEB"/>
<path d="M74.0566 30.7103C71.5166 32.1803 71.5166 34.5603 74.0566 36.0303C75.4853 36.7551 77.0647 37.1328 78.6666 37.1328C80.2686 37.1328 81.848 36.7551 83.2766 36.0303C85.8166 34.5603 85.8166 32.1803 83.2766 30.7103C81.848 29.9856 80.2686 29.6079 78.6666 29.6079C77.0647 29.6079 75.4853 29.9856 74.0566 30.7103Z" fill="#FAFAFA"/>
<path d="M75.8666 31.7503C74.3166 32.6503 74.3166 34.1003 75.8666 34.9903C76.7348 35.4289 77.6939 35.6574 78.6666 35.6574C79.6393 35.6574 80.5984 35.4289 81.4666 34.9903C83.0166 34.1003 83.0166 32.6503 81.4666 31.7503C80.5984 31.3118 79.6393 31.0833 78.6666 31.0833C77.6939 31.0833 76.7348 31.3118 75.8666 31.7503Z" fill="#EBEBEB"/>
<path d="M81.4666 33.2904C80.5984 32.8518 79.6393 32.6233 78.6666 32.6233C77.6939 32.6233 76.7348 32.8518 75.8666 33.2904C75.6412 33.2904 75.425 33.3799 75.2656 33.5393C75.1062 33.6987 75.0166 33.9149 75.0166 34.1404C75.0166 34.3658 75.1062 34.582 75.2656 34.7414C75.425 34.9008 75.6412 34.9904 75.8666 34.9904C76.7348 35.4289 77.6939 35.6574 78.6666 35.6574C79.6393 35.6574 80.5984 35.4289 81.4666 34.9904C81.692 34.9904 81.9082 34.9008 82.0676 34.7414C82.227 34.582 82.3166 34.3658 82.3166 34.1404C82.3166 33.9149 82.227 33.6987 82.0676 33.5393C81.9082 33.3799 81.692 33.2904 81.4666 33.2904Z" fill="#E0E0E0"/>
<path d="M79.5767 34.5203C78.9548 32.8826 78.7687 31.1115 79.0366 29.3804C79.4283 26.5944 80.8568 24.0588 83.0366 22.2803C85.0366 20.9903 87.6766 22.5303 85.3766 25.1903C83.0766 27.8503 80.9267 31.5403 81.1167 34.3703L79.5767 34.5203Z" fill="#9095E2"/>
<g opacity="0.35">
<path opacity="0.35" d="M79.5767 34.5203C78.9548 32.8826 78.7687 31.1115 79.0366 29.3804C79.4283 26.5944 80.8568 24.0588 83.0366 22.2803C85.0366 20.9903 87.6766 22.5303 85.3766 25.1903C83.0766 27.8503 80.9267 31.5403 81.1167 34.3703L79.5767 34.5203Z" fill="black"/>
</g>
<path d="M80.4166 34.1903C80.4491 34.201 80.4842 34.201 80.5166 34.1903C80.5505 34.1788 80.5787 34.1548 80.5955 34.1232C80.6122 34.0916 80.6162 34.0548 80.6066 34.0203C80.2379 32.7267 80.1365 31.3715 80.3084 30.0374C80.4803 28.7033 80.922 27.4182 81.6066 26.2603C82.334 24.8205 83.4628 23.6222 84.8566 22.8103C84.8899 22.7972 84.9178 22.7734 84.9359 22.7425C84.9541 22.7117 84.9614 22.6757 84.9566 22.6403C84.9452 22.6059 84.9216 22.5768 84.8904 22.5584C84.8591 22.54 84.8223 22.5336 84.7866 22.5403C83.3182 23.3743 82.1285 24.6231 81.3666 26.1303C80.6629 27.325 80.2111 28.651 80.0392 30.0268C79.8672 31.4027 79.9786 32.7992 80.3666 34.1303C80.3768 34.1549 80.3942 34.1759 80.4166 34.1903Z" fill="#FAFAFA"/>
<path d="M77.0767 34.4903C76.9853 34.1896 76.7905 33.931 76.5267 33.7603C76.2073 33.5865 75.8725 33.4426 75.5267 33.3303C74.9267 33.1203 74.1567 32.8003 74.0767 32.0803C74.0594 31.8196 74.0934 31.558 74.1767 31.3103C74.3178 30.9791 74.3528 30.6122 74.2767 30.2603C74.1467 29.9303 73.7967 29.7603 73.5067 29.5703C73.185 29.382 72.9113 29.1219 72.7067 28.8103C72.5302 28.5335 72.4462 28.2079 72.4667 27.8803C72.5267 27.2103 73.1667 26.7603 73.1867 26.1003C73.1867 25.1003 70.9367 23.8003 72.1867 22.8803C73.7367 21.7103 76.1867 23.0703 76.8667 24.0703C77.5467 25.0703 77.5667 25.5203 78.8667 26.3603C79.9267 27.0703 81.1667 27.2103 81.1667 28.5903C81.1667 29.9703 79.3967 30.0403 80.7967 31.5903C81.6367 32.5903 80.2467 33.3503 79.7367 34.4703C79.3489 34.746 78.8856 34.8958 78.4098 34.8994C77.934 34.903 77.4686 34.7602 77.0767 34.4903Z" fill="#9095E2"/>
<path d="M78.4866 34.8903C78.4687 34.8903 78.4509 34.8867 78.4345 34.8795C78.418 34.8724 78.4032 34.8619 78.391 34.8487C78.3788 34.8356 78.3694 34.82 78.3635 34.8031C78.3576 34.7862 78.3553 34.7682 78.3566 34.7503C78.6666 26.7003 74.5666 23.8703 73.7466 23.6503C73.7291 23.6458 73.7127 23.6376 73.6985 23.6264C73.6842 23.6152 73.6725 23.6012 73.664 23.5852C73.6556 23.5692 73.6505 23.5516 73.6492 23.5335C73.648 23.5154 73.6505 23.4973 73.6566 23.4803C73.6659 23.4471 73.688 23.4191 73.718 23.4022C73.748 23.3853 73.7835 23.381 73.8166 23.3903C75.2066 23.7603 78.9166 27.1603 78.6266 34.7603C78.6267 34.7782 78.623 34.796 78.6159 34.8124C78.6087 34.8289 78.5982 34.8437 78.5851 34.8559C78.5719 34.8681 78.5564 34.8775 78.5394 34.8834C78.5225 34.8893 78.5045 34.8916 78.4866 34.8903Z" fill="#FAFAFA"/>
<path d="M77.6866 28.8904C77.6573 28.899 77.626 28.899 77.5967 28.8904C76.5483 28.2074 75.3174 27.8587 74.0667 27.8904C74.0295 27.8904 73.9939 27.8756 73.9677 27.8494C73.9414 27.8231 73.9267 27.7875 73.9267 27.7504C73.9253 27.7325 73.9276 27.7145 73.9335 27.6976C73.9394 27.6806 73.9488 27.665 73.961 27.6519C73.9732 27.6387 73.988 27.6283 74.0045 27.6211C74.021 27.614 74.0387 27.6103 74.0567 27.6104C75.38 27.5764 76.6809 27.9576 77.7767 28.7004C77.79 28.7134 77.8005 28.729 77.8077 28.7461C77.815 28.7633 77.8187 28.7817 77.8187 28.8004C77.8187 28.819 77.815 28.8374 77.8077 28.8546C77.8005 28.8718 77.79 28.8873 77.7767 28.9004C77.7465 28.9089 77.7142 28.9053 77.6866 28.8904Z" fill="#FAFAFA"/>
<path d="M124.477 118.58C124.377 118.828 124.352 119.099 124.406 119.36C124.459 119.622 124.588 119.862 124.777 120.05C126.27 120.972 128.044 121.327 129.777 121.05C131.525 120.937 133.204 120.327 134.617 119.29C135.65 118.384 136.849 117.684 138.147 117.23C139.038 117.076 139.892 116.757 140.667 116.29C140.997 115.99 140.957 114.68 140.957 114.68L124.477 118.58Z" fill="#263238"/>
<path d="M139.987 109.65C140.075 109.652 140.161 109.684 140.23 109.74C140.299 109.796 140.347 109.874 140.367 109.96C140.447 110.32 140.527 111.38 140.697 111.96C140.954 113.003 141.035 114.081 140.937 115.15C140.797 115.82 139.087 116.29 137.997 116.67C136.729 117.168 135.537 117.841 134.457 118.67C132.894 119.724 131.078 120.342 129.197 120.46C127.267 120.46 125.107 119.88 124.607 119.06C123.997 118.06 124.477 117.47 127.327 116.27C127.867 116.04 129.767 115.02 130.407 114.65C132.225 113.721 133.721 112.264 134.697 110.47C134.717 110.362 134.76 110.26 134.823 110.169C134.886 110.079 134.968 110.004 135.062 109.948C135.157 109.892 135.263 109.857 135.372 109.845C135.482 109.834 135.592 109.846 135.697 109.88C136.169 109.941 136.63 110.069 137.067 110.26C137.447 110.42 137.997 110.62 137.987 111.06C137.975 111.219 137.938 111.374 137.877 111.52C137.877 111.61 137.817 111.73 137.877 111.78C137.937 111.83 138.067 111.78 138.137 111.72C138.414 111.46 138.671 111.179 138.907 110.88C139.039 110.723 139.19 110.582 139.357 110.46C139.526 110.374 139.69 110.277 139.847 110.17C140.027 110.07 139.987 109.87 139.987 109.65Z" fill="#37474F"/>
<path d="M134.457 118.73C134.957 118.36 135.457 117.99 136.017 117.67C136.017 117.67 132.657 119.53 131.307 118.67C131.181 118.611 131.068 118.527 130.977 118.422C130.886 118.318 130.817 118.195 130.776 118.062C130.734 117.93 130.721 117.79 130.737 117.652C130.752 117.514 130.797 117.38 130.867 117.26C130.133 116.571 129.229 116.091 128.247 115.87L127.167 116.31C124.307 117.52 124.237 118.03 124.377 119C124.867 119.82 126.677 120.56 129.157 120.56C131.053 120.425 132.881 119.794 134.457 118.73Z" fill="#D2D5FA"/>
<path d="M149.687 122.59C149.549 123.804 149.749 125.033 150.267 126.14C150.55 126.602 150.969 126.964 151.468 127.175C151.966 127.387 152.518 127.438 153.047 127.32C154.227 127.16 155.777 126.59 156.247 125.32C156.677 124.151 156.817 122.895 156.657 121.66L149.687 122.59Z" fill="#263238"/>
<path d="M155.487 111.87C155.957 111.95 155.867 114.03 155.917 116.12C155.967 118.21 156.587 119.35 156.647 121.19C156.717 123.29 156.487 124.19 155.547 125.39C154.607 126.59 151.637 127.54 150.437 125.62C149.437 124.05 149.597 122.42 149.927 120.35C150.258 118.612 150.488 116.855 150.617 115.09C150.697 113.53 150.747 112.01 151.177 111.87C151.177 112.1 151.177 112.4 151.177 112.62C151.177 112.84 151.177 113.62 151.397 113.68C151.439 113.486 151.463 113.289 151.467 113.09C151.464 113 151.479 112.91 151.512 112.826C151.544 112.742 151.594 112.665 151.657 112.6C151.815 112.491 152.004 112.435 152.197 112.44C152.672 112.392 153.149 112.369 153.627 112.37C153.863 112.355 154.1 112.355 154.337 112.37C154.542 112.382 154.745 112.426 154.937 112.5C155.04 112.544 155.123 112.626 155.167 112.73C155.182 112.81 155.182 112.891 155.167 112.97C155.142 113.112 155.142 113.258 155.167 113.4C155.167 113.47 155.217 113.55 155.287 113.54C155.357 113.53 155.367 113.47 155.377 113.42C155.377 113.17 155.377 112.98 155.377 112.69C155.377 112.55 155.377 112.37 155.377 112.23C155.377 112.09 155.487 112.01 155.487 111.87Z" fill="#37474F"/>
<path d="M156.607 120.59C156.607 120.89 156.677 122.9 156.047 123.2C155.417 123.5 154.907 121.95 154.907 121.95C153.836 121.536 152.655 121.507 151.567 121.87C151.487 122.33 151.037 123.41 150.457 123.13C149.877 122.85 149.907 120.56 149.907 120.53C149.587 122.53 149.497 124.09 150.437 125.62C151.637 127.54 154.607 126.57 155.547 125.39C156.487 124.21 156.717 123.29 156.647 121.19C156.637 120.98 156.627 120.78 156.607 120.59Z" fill="#D2D5FA"/>
<path d="M152.627 47.9902C153.806 50.6968 154.572 53.5657 154.897 56.5002C155.717 67.1702 156.127 82.6602 156.127 82.6602C156.227 83.7802 156.937 86.3102 157.407 91.2202C157.967 97.0102 156.707 117.93 156.707 117.93C156.707 117.93 152.707 120.58 149.997 118.22C149.997 118.22 147.107 89.2202 146.377 83.4302C145.747 78.4302 144.317 69.9502 144.317 69.9502L143.027 84.5602C143.027 84.5602 142.797 88.6902 142.657 91.5602C142.507 94.9702 140.987 112.97 140.987 112.97C140.987 112.97 135.637 115.83 133.337 112.43C133.337 112.43 133.437 87.0302 133.337 82.9302C133.197 74.9302 133.617 59.9302 133.897 51.7502L152.627 47.9902Z" fill="#D2D5FA"/>
<path d="M144.317 69.9502L143.257 62.3902C143.257 62.3902 138.927 61.8102 136.967 59.9702C137.529 60.8475 138.278 61.5905 139.159 62.1469C140.04 62.7033 141.033 63.0595 142.067 63.1902L142.827 67.8202L143.217 82.8202L144.317 69.9502Z" fill="#37474F"/>
<path d="M130.707 49.4803L133.867 52.9903C133.867 52.9903 136.447 49.7703 136.347 49.7703C136.247 49.7703 133.347 45.0403 133.347 45.0403L130.707 49.4803Z" fill="#B16668"/>
<path d="M138.497 24.1503C134.277 25.3503 134.227 25.0703 131.557 28.6203C129.707 31.0903 126.007 35.6203 124.927 37.5403C123.707 39.6603 123.537 40.5403 124.497 42.1103C125.457 43.6803 130.707 49.7303 130.707 49.7303C131.977 48.7303 133.387 47.8103 134.087 46.0203L130.707 40.3703L137.707 33.1603L138.497 24.1503Z" fill="#D2D5FA"/>
<path d="M151.697 23.0202C153.819 23.7451 155.861 24.6902 157.787 25.8402C157.392 29.8751 156.754 33.8824 155.877 37.8402C154.997 41.2702 154.507 53.1302 154.507 53.1302C150.601 54.7468 146.373 55.4315 142.157 55.1302C139.284 54.9803 136.459 54.3341 133.807 53.2202C133.807 53.2202 133.527 45.7602 134.057 36.4302C134.447 29.5602 134.707 25.9502 136.377 24.9402C137.377 24.3402 141.707 22.6302 141.707 22.6302C141.861 23.7194 142.199 24.7745 142.707 25.7502C144.167 24.9802 151.697 23.0202 151.697 23.0202Z" fill="#37474F"/>
<path d="M141.257 55.0502L140.257 54.9302C139.453 45.1306 140.288 35.2656 142.727 25.7402C142.727 25.7402 139.737 40.5002 141.257 55.0502Z" fill="#263238"/>
<path d="M149.907 55.3103V71.9903C149.901 72.0487 149.909 72.1077 149.932 72.1619C149.955 72.2161 149.991 72.2636 150.037 72.3003L150.787 72.7403C150.826 72.7493 150.867 72.7493 150.907 72.7403C150.984 72.7378 151.059 72.7173 151.127 72.6803L170.037 61.7602C170.177 61.6656 170.294 61.5395 170.377 61.392C170.46 61.2444 170.508 61.0795 170.517 60.9103V44.2803C170.524 44.2207 170.514 44.1604 170.49 44.1058C170.465 44.0512 170.426 44.0044 170.377 43.9703L169.677 43.5603C169.634 43.5501 169.589 43.5501 169.547 43.5603C169.469 43.5665 169.394 43.5904 169.327 43.6303L159.417 49.3403L158.247 50.0203L156.497 51.0203H156.447L150.447 54.4903L150.357 54.5703C150.253 54.6477 150.168 54.7466 150.107 54.8602C150.004 54.9912 149.935 55.1459 149.907 55.3103Z" fill="#9095E2"/>
<path opacity="0.25" d="M150.047 54.8302L150.777 55.2602C150.794 55.22 150.818 55.1829 150.847 55.1502C150.895 55.0799 150.952 55.016 151.017 54.9602L151.117 54.8902L157.117 51.4202L158.907 50.4202L159.627 50.0002L170.007 44.0002C170.05 43.9676 170.102 43.946 170.156 43.9373C170.209 43.9286 170.265 43.933 170.317 43.9502L169.617 43.5402C169.574 43.53 169.529 43.53 169.487 43.5402C169.408 43.5414 169.331 43.5658 169.267 43.6102L159.357 49.3202L158.187 50.0002L156.437 51.0002H156.387L150.387 54.4702L150.297 54.5502C150.194 54.6247 150.109 54.7202 150.047 54.8302Z" fill="white"/>
<path d="M170.517 44.2803V60.9404C170.509 61.1108 170.46 61.277 170.375 61.4248C170.29 61.5727 170.17 61.698 170.027 61.7904L151.027 72.7403C150.983 72.7645 150.933 72.7769 150.883 72.7764C150.833 72.7758 150.784 72.7623 150.741 72.7371C150.698 72.7119 150.662 72.6759 150.636 72.6327C150.611 72.5895 150.597 72.5404 150.597 72.4903V55.7403C150.602 55.5711 150.65 55.4059 150.737 55.2603C150.819 55.1089 150.94 54.9814 151.087 54.8903L157.087 51.4203L158.877 50.4203L169.977 44.0203C170.022 43.9868 170.075 43.9648 170.131 43.9561C170.186 43.9474 170.243 43.9523 170.297 43.9703C170.359 43.9953 170.413 44.0379 170.452 44.0929C170.491 44.1479 170.514 44.213 170.517 44.2803Z" fill="#9095E2"/>
<path d="M150.777 55.2603C150.794 55.2201 150.818 55.183 150.847 55.1503C150.818 55.1833 150.794 55.2203 150.777 55.2603Z" fill="#9095E2"/>
<path opacity="0.2" d="M150.817 72.7503L150.057 72.3103C150.011 72.2737 149.975 72.2261 149.952 72.172C149.929 72.1178 149.921 72.0588 149.927 72.0003V55.3103C149.932 55.1411 149.98 54.9759 150.067 54.8303L150.797 55.2603C150.71 55.4059 150.662 55.5711 150.657 55.7403V72.4903C150.655 72.5445 150.67 72.5979 150.698 72.644C150.727 72.6902 150.768 72.7271 150.817 72.7503Z" fill="black"/>
<path d="M149.557 69.0602C149.327 69.2002 149.227 68.7702 149.177 68.1402V66.9802C149.177 66.9802 148.297 67.7803 148.077 65.1003C147.837 62.1503 149.157 61.6102 149.157 61.6102C149.157 61.6102 149.157 61.1202 149.157 60.1502C149.157 59.1802 149.357 58.9402 149.587 58.7802L149.917 58.6102V68.8503C149.793 68.9139 149.673 68.984 149.557 69.0602Z" fill="#37474F"/>
<path d="M150.637 67.6503C150.637 66.7703 150.717 66.2503 151.287 65.9103C151.584 65.7173 151.891 65.5404 152.207 65.3803L152.367 59.9503C152.367 59.9503 151.437 60.5703 151.127 60.7603C150.817 60.9503 150.617 59.8403 150.637 59.5103L149.877 59.8603L149.787 68.2403L150.637 67.6503Z" fill="#37474F"/>
<path d="M152.467 67.0703L151.807 67.4703C151.437 67.6903 151.277 66.5703 151.447 64.9603L151.287 61.3703C151.457 59.7603 151.477 58.2803 151.847 58.0603L152.517 57.6603L152.467 67.0703Z" fill="#37474F"/>
<path d="M164.507 46.4303C160.507 30.0603 158.437 25.0303 153.577 25.1003C152.157 26.8003 153.647 32.1003 154.577 34.6503C154.577 34.6503 158.887 45.1603 159.687 48.9203C160.502 52.2916 160.984 55.7348 161.127 59.2003C161.114 59.7023 160.918 60.1824 160.577 60.5503C159.657 61.5503 159.657 62.3403 159.067 63.4303C158.597 64.2903 158.067 64.6103 158.237 64.8103C158.428 65.0115 158.688 65.1342 158.965 65.1546C159.243 65.1749 159.518 65.0914 159.737 64.9203C160.166 64.6118 160.549 64.2449 160.877 63.8303C160.774 65.1218 160.474 66.39 159.987 67.5903L158.987 68.1803C158.987 68.1803 159.297 69.2303 161.757 68.5303C164.527 67.7303 165.527 67.3903 165.817 62.6803C165.965 60.9441 165.982 59.1991 165.867 57.4603C165.641 53.7592 165.187 50.0755 164.507 46.4303Z" fill="#B16668"/>
<path d="M153.447 23.7002C153.447 23.7002 158.357 24.8402 159.537 26.6402C160.897 28.7202 161.407 31.4102 163.697 39.5302C165.388 45.6268 166.249 51.9235 166.257 58.2502C165.382 58.6248 164.436 58.802 163.485 58.7691C162.535 58.7363 161.603 58.4942 160.757 58.0602C160.757 58.0602 159.587 50.9902 158.547 47.2302C157.507 43.4702 154.257 35.3202 154.257 35.3202C154.257 35.3202 151.597 29.3602 153.447 23.7002Z" fill="#D2D5FA"/>
<path d="M136.777 10.9202C136.551 11.1028 136.376 11.34 136.269 11.6093C136.161 11.8785 136.124 12.1709 136.161 12.4585C136.198 12.7462 136.308 13.0195 136.48 13.2526C136.653 13.4857 136.882 13.6708 137.147 13.7903C137.786 14.5882 138.541 15.2859 139.387 15.8603C141.351 17.0608 143.595 17.7294 145.897 17.8003C146.187 17.8003 146.437 17.6703 146.837 17.6303C147.407 17.5703 148.227 17.5803 148.437 18.0603C148.624 18.4004 148.902 18.6826 149.238 18.8765C149.575 19.0704 149.958 19.1685 150.347 19.1603C150.758 19.1238 151.142 18.9378 151.426 18.6375C151.71 18.3371 151.874 17.9432 151.887 17.5303C152.238 17.6451 152.615 17.6531 152.971 17.5535C153.327 17.4538 153.646 17.2508 153.887 16.9703C154.093 16.6889 154.204 16.3492 154.204 16.0003C154.204 15.6514 154.093 15.3116 153.887 15.0303C154.234 14.9461 154.551 14.7668 154.802 14.5124C155.052 14.258 155.227 13.9386 155.307 13.5903C155.383 13.265 155.352 12.9238 155.219 12.6174C155.085 12.3111 154.857 12.056 154.567 11.8902C154.917 11.8015 155.231 11.6053 155.464 11.3291C155.697 11.0529 155.838 10.7106 155.867 10.3503C155.927 9.81027 155.497 8.54025 154.437 8.45025C154.688 8.1093 154.839 7.70544 154.874 7.28353C154.91 6.86162 154.827 6.43819 154.637 6.06026C154.381 5.57618 153.969 5.19299 153.468 4.97323C152.967 4.75346 152.406 4.71012 151.877 4.85027C151.947 4.51909 151.944 4.17648 151.868 3.84652C151.792 3.51656 151.645 3.20724 151.437 2.94027C151.192 2.66381 150.892 2.44174 150.556 2.28844C150.22 2.13514 149.856 2.054 149.487 2.05025C148.936 2.02775 148.392 2.17433 147.927 2.47027C147.758 2.03635 147.463 1.66316 147.079 1.39922C146.696 1.13528 146.242 0.992784 145.777 0.990255C145.311 0.961589 144.846 1.06563 144.437 1.29027C144.228 1.41517 144.036 1.5664 143.867 1.74026C143.807 1.80026 143.427 2.23025 143.477 2.30025C143.244 2.00739 142.93 1.79084 142.573 1.67855C142.217 1.56625 141.835 1.56336 141.477 1.67025C141.124 1.7891 140.819 2.01695 140.605 2.32079C140.391 2.62463 140.28 2.9887 140.287 3.36025C139.988 3.10269 139.604 2.96606 139.21 2.97716C138.816 2.98826 138.44 3.1463 138.157 3.42025C138.033 3.56099 137.938 3.72537 137.88 3.90346C137.821 4.08155 137.799 4.26968 137.815 4.45653C137.831 4.64338 137.884 4.82509 137.972 4.99071C138.06 5.15634 138.181 5.30244 138.327 5.42025C138.056 5.36749 137.776 5.39863 137.524 5.50945C137.272 5.62027 137.06 5.80549 136.917 6.04027C136.79 6.275 136.745 6.54555 136.791 6.80852C136.836 7.07149 136.968 7.31159 137.167 7.49026C136.845 7.6326 136.566 7.85734 136.359 8.14178C136.152 8.42621 136.023 8.76028 135.987 9.11025C135.95 9.45452 136.004 9.80229 136.143 10.1196C136.281 10.4368 136.499 10.7127 136.777 10.9202Z" fill="#263238"/>
<path d="M150.876 17.0003C150.598 17.1986 150.263 17.3001 149.921 17.2893C149.58 17.2785 149.252 17.1559 148.986 16.9403V20.8503C148.986 20.8503 148.986 21.8503 146.736 23.2003C145.356 24.0503 144.176 24.1003 142.736 25.7403C142.324 24.7657 142.159 23.7041 142.256 22.6503V20.8203C141.561 20.8866 140.862 20.8866 140.166 20.8203C139.519 20.6751 138.93 20.3378 138.476 19.8525C138.023 19.3672 137.727 18.7566 137.626 18.1003C136.996 15.7903 137.306 12.5203 138.226 8.0403C139.716 6.9003 144.466 6.56029 147.576 8.56029C147.406 11.2003 148.126 12.3803 148.116 13.3403C148.258 13.6208 148.451 13.8719 148.686 14.0803C149.166 14.5103 149.566 13.4203 149.976 12.9903C150.14 12.8099 150.346 12.6738 150.576 12.5947C150.806 12.5157 151.053 12.4962 151.292 12.5381C151.532 12.5801 151.757 12.6821 151.947 12.8346C152.136 12.9871 152.284 13.1852 152.376 13.4103C153.056 14.8003 151.806 16.4103 150.876 17.0003Z" fill="#9E6767"/>
<path d="M142.667 25.7403C141.447 24.9303 140.457 26.9703 140.247 26.6603C140.037 26.3503 141.337 21.8703 142.247 21.6603V23.4203C142.323 24.2037 142.464 24.9797 142.667 25.7403Z" fill="#D2D5FA"/>
<path d="M148.966 20.3503V20.8503C148.876 21.3203 147.967 22.4103 145.607 23.4603C143.247 24.5103 142.667 25.7403 142.667 25.7403C142.913 25.6505 143.177 25.6245 143.436 25.6647C143.695 25.7049 143.939 25.8101 144.147 25.9703C145.147 26.5603 146.146 28.0603 146.616 28.0403C147.086 28.0203 148.687 26.2903 150.017 24.8903C151.127 23.7203 151.697 23.0203 151.697 23.0203C151.697 23.0203 149.876 20.3603 148.966 20.3503Z" fill="#D2D5FA"/>
<path d="M143.257 12.4803C143.254 12.5591 143.267 12.6376 143.295 12.7115C143.322 12.7853 143.364 12.8529 143.418 12.9105C143.472 12.9681 143.537 13.0145 143.608 13.047C143.68 13.0796 143.758 13.0977 143.837 13.1003C143.916 13.1003 143.995 13.0844 144.069 13.0536C144.142 13.0229 144.209 12.9778 144.264 12.921C144.32 12.8642 144.364 12.7969 144.394 12.723C144.423 12.649 144.438 12.5699 144.437 12.4903C144.437 12.3338 144.374 12.1837 144.264 12.0731C144.153 11.9624 144.003 11.9003 143.847 11.9003C143.69 11.9003 143.54 11.9624 143.429 12.0731C143.319 12.1837 143.257 12.3338 143.257 12.4903V12.4803Z" fill="#263238"/>
<path d="M143.257 10.6503L144.657 11.0303C144.703 10.8395 144.674 10.6382 144.575 10.4686C144.476 10.299 144.315 10.1742 144.127 10.1203C144.035 10.095 143.938 10.0889 143.844 10.1022C143.749 10.1154 143.659 10.1479 143.577 10.1975C143.496 10.2472 143.425 10.3129 143.37 10.3908C143.315 10.4686 143.276 10.5569 143.257 10.6503Z" fill="#263238"/>
<path d="M138.407 10.7103L139.837 10.3803C139.819 10.286 139.782 10.1963 139.729 10.1166C139.675 10.0369 139.607 9.96885 139.526 9.91652C139.446 9.86419 139.356 9.82869 139.261 9.81215C139.167 9.79561 139.07 9.79838 138.977 9.8203C138.787 9.87003 138.623 9.98916 138.518 10.154C138.412 10.3189 138.372 10.5175 138.407 10.7103Z" fill="#263238"/>
<path d="M138.727 12.4103C138.728 12.5285 138.765 12.6435 138.832 12.7409C138.9 12.8382 138.994 12.9136 139.104 12.9575C139.214 13.0013 139.334 13.0118 139.45 12.9875C139.565 12.9633 139.671 12.9053 139.754 12.821C139.837 12.7367 139.893 12.6298 139.916 12.5137C139.938 12.3976 139.926 12.2775 139.88 12.1684C139.834 12.0594 139.757 11.9663 139.659 11.9008C139.56 11.8353 139.445 11.8003 139.327 11.8003C139.247 11.8003 139.168 11.8161 139.095 11.8469C139.021 11.8777 138.955 11.9228 138.899 11.9796C138.843 12.0363 138.799 12.1037 138.769 12.1776C138.74 12.2516 138.725 12.3307 138.727 12.4103Z" fill="#263238"/>
<path d="M141.857 11.1903L141.397 15.4603L139.117 14.7503L141.857 11.1903Z" fill="#874C4C"/>
<path d="M148.177 12.9502C147.887 15.7802 146.867 16.2202 145.877 16.4802C144.307 16.8802 143.137 16.0702 141.327 15.6702C140.127 15.4002 139.627 15.8803 138.457 16.0403C138.077 16.0903 137.677 16.0903 137.537 15.6003C137.359 14.5108 137.359 13.3997 137.537 12.3102L137.367 11.5002C137.367 11.5002 137.037 15.4102 137.107 16.7602C137.177 18.1102 137.107 19.2002 138.107 20.0502C139.107 20.9002 141.367 21.3502 144.107 20.9102C146.847 20.4702 147.837 19.6502 148.207 18.7302C149.427 15.7302 149.097 14.2602 149.477 13.7302C149.857 13.2002 148.177 12.9502 148.177 12.9502Z" fill="#263238"/>
<path d="M142.497 17.1202L141.207 17.4002C141.221 17.4863 141.252 17.5685 141.299 17.6421C141.346 17.7157 141.407 17.7791 141.479 17.8286C141.551 17.878 141.632 17.9125 141.717 17.93C141.803 17.9474 141.891 17.9475 141.977 17.9302C142.152 17.8896 142.304 17.7822 142.401 17.6309C142.498 17.4796 142.532 17.2964 142.497 17.1202Z" fill="#874C4C"/>
</svg>
