<svg width="500" height="500" viewBox="0 0 500 500" fill="none" xmlns="http://www.w3.org/2000/svg">
<path d="M90.7196 374.39C174.51 418.16 310.35 418.16 394.13 374.39C477.91 330.62 477.92 259.65 394.13 215.88C310.34 172.11 174.5 172.11 90.7196 215.88C6.93961 259.65 6.92961 330.62 90.7196 374.39Z" fill="#FAFAFA"/>
<path d="M291.83 315.13C272.12 326.5 272.12 344.95 291.83 356.33C311.54 367.71 343.48 367.71 363.19 356.33C382.9 344.95 382.89 326.5 363.19 315.13C343.49 303.76 311.53 303.75 291.83 315.13Z" fill="#EBEBEB"/>
<path d="M84.3096 152.03L137.11 135.61L96.4896 163.75L84.3096 152.03Z" fill="#B72851"/>
<path d="M137.11 135.61L80.2396 144.99L68.0596 133.26L137.11 135.61Z" fill="#B72851"/>
<path d="M80.2402 144.99V159.06L84.3102 152.03L137.11 135.61L80.2402 144.99Z" fill="white"/>
<path d="M80.2402 159.06L88.3702 155.94L84.3102 152.03L80.2402 159.06Z" fill="#B72851"/>
<path d="M84.3096 152.03L88.3696 155.94L87.0696 156.43L84.3096 152.03Z" fill="white"/>
<path d="M71.4896 156.94C71.3215 156.943 71.1571 156.89 71.023 156.788C70.8889 156.687 70.7928 156.543 70.7501 156.381C70.7075 156.218 70.7207 156.046 70.7877 155.891C70.8547 155.737 70.9716 155.61 71.1196 155.53C72.0196 155.03 72.9296 154.53 73.8296 154.14C73.9188 154.092 74.017 154.062 74.118 154.053C74.2191 154.044 74.3209 154.055 74.4175 154.086C74.514 154.118 74.6032 154.168 74.6796 154.235C74.7561 154.301 74.8182 154.383 74.8622 154.474C74.9062 154.566 74.9312 154.665 74.9357 154.767C74.9402 154.868 74.9241 154.969 74.8883 155.064C74.8525 155.159 74.7979 155.246 74.7276 155.319C74.6574 155.392 74.573 155.45 74.4796 155.49C73.6096 155.91 72.7196 156.36 71.8496 156.85C71.7383 156.908 71.615 156.939 71.4896 156.94Z" fill="#E0E0E0"/>
<path d="M62.2599 237.7C62.1066 237.702 61.9566 237.656 61.8299 237.57C60.2035 236.424 58.6628 235.16 57.2199 233.79C57.1284 233.731 57.051 233.652 56.9931 233.56C56.9351 233.468 56.8979 233.364 56.8842 233.256C56.8705 233.147 56.8805 233.038 56.9135 232.934C56.9466 232.83 57.0019 232.734 57.0756 232.654C57.1493 232.574 57.2396 232.51 57.3402 232.469C57.4409 232.427 57.5495 232.407 57.6584 232.412C57.7673 232.416 57.874 232.444 57.971 232.494C58.0679 232.544 58.1529 232.614 58.2199 232.7C59.6116 234.021 61.099 235.238 62.6699 236.34C62.7993 236.433 62.896 236.564 62.9458 236.715C62.9957 236.867 62.9961 237.03 62.9471 237.181C62.8981 237.333 62.8022 237.464 62.6733 237.558C62.5443 237.651 62.3891 237.701 62.2299 237.7H62.2599ZM54.4199 230.42C54.3092 230.421 54.1996 230.398 54.0992 230.351C53.9988 230.304 53.9102 230.236 53.8399 230.15C52.5798 228.612 51.4334 226.985 50.4099 225.28C50.3064 225.109 50.2752 224.904 50.323 224.71C50.3708 224.516 50.4938 224.349 50.6649 224.245C50.8359 224.142 51.0411 224.111 51.2352 224.158C51.4293 224.206 51.5964 224.329 51.6999 224.5C52.6859 226.144 53.7887 227.715 54.9999 229.2C55.1248 229.353 55.1844 229.549 55.1656 229.746C55.1469 229.942 55.0514 230.124 54.8999 230.25C54.7659 230.363 54.5952 230.424 54.4199 230.42ZM48.7899 221.32C48.6446 221.322 48.5021 221.281 48.3796 221.203C48.2571 221.124 48.1599 221.012 48.0999 220.88C47.2827 219.07 46.5813 217.209 45.9999 215.31C45.9572 215.125 45.9861 214.931 46.0808 214.767C46.1754 214.603 46.3288 214.48 46.5101 214.425C46.6913 214.369 46.887 214.384 47.0576 214.466C47.2283 214.549 47.3613 214.693 47.4299 214.87C47.9827 216.707 48.6507 218.507 49.4299 220.26C49.4718 220.35 49.4955 220.447 49.4995 220.546C49.5036 220.646 49.4879 220.744 49.4535 220.837C49.4191 220.93 49.3666 221.016 49.299 221.088C49.2315 221.161 49.1502 221.219 49.0599 221.26C48.9748 221.298 48.883 221.318 48.7899 221.32ZM45.5399 211.11C45.3664 211.109 45.1989 211.047 45.0658 210.936C44.9327 210.825 44.8423 210.671 44.8099 210.5C44.4281 208.557 44.1577 206.594 43.9999 204.62C43.984 204.421 44.0477 204.224 44.1771 204.072C44.3065 203.92 44.491 203.826 44.6899 203.81C44.8888 203.794 45.0859 203.858 45.2378 203.987C45.3897 204.117 45.484 204.301 45.4999 204.5C45.647 206.417 45.9074 208.324 46.2799 210.21C46.3002 210.307 46.301 210.407 46.2822 210.503C46.2634 210.6 46.2253 210.693 46.1704 210.775C46.1154 210.857 46.0445 210.927 45.962 210.981C45.8795 211.035 45.787 211.072 45.6899 211.09L45.5399 211.11ZM44.5899 200.43C44.491 200.43 44.3931 200.41 44.302 200.372C44.2109 200.334 44.1284 200.277 44.0594 200.206C43.9904 200.136 43.9364 200.052 43.9004 199.96C43.8644 199.867 43.8472 199.769 43.8499 199.67C43.8733 197.691 44.0068 195.715 44.2499 193.75C44.251 193.645 44.2744 193.541 44.3185 193.445C44.3625 193.349 44.4263 193.264 44.5056 193.194C44.5849 193.125 44.678 193.073 44.7788 193.042C44.8795 193.011 44.9857 193.001 45.0904 193.014C45.1951 193.027 45.2959 193.061 45.3863 193.116C45.4766 193.17 45.5545 193.243 45.6149 193.329C45.6752 193.416 45.7167 193.514 45.7365 193.617C45.7563 193.721 45.754 193.828 45.7299 193.93C45.4987 195.842 45.3718 197.765 45.3499 199.69C45.3486 199.789 45.3279 199.886 45.289 199.976C45.2501 200.067 45.1937 200.149 45.1232 200.218C45.0526 200.286 44.9692 200.34 44.8777 200.377C44.7862 200.413 44.6884 200.432 44.5899 200.43ZM45.8099 189.78C45.7536 189.79 45.6961 189.79 45.6399 189.78C45.4466 189.737 45.2783 189.619 45.1715 189.453C45.0647 189.286 45.0282 189.084 45.0699 188.89C45.5081 186.953 46.0692 185.046 46.7499 183.18C46.783 183.083 46.8358 182.993 46.905 182.917C46.9742 182.841 47.0583 182.78 47.1521 182.738C47.2459 182.696 47.3474 182.673 47.4502 182.672C47.553 182.671 47.655 182.69 47.7499 182.73C47.8464 182.765 47.9349 182.818 48.0102 182.887C48.0855 182.957 48.146 183.041 48.188 183.134C48.23 183.228 48.2528 183.329 48.2548 183.431C48.2568 183.533 48.2382 183.635 48.1999 183.73C47.5437 185.534 47.0026 187.378 46.5799 189.25C46.5305 189.413 46.4274 189.554 46.2876 189.65C46.1477 189.746 45.9793 189.792 45.8099 189.78ZM49.3699 179.68C49.2546 179.685 49.1403 179.657 49.0399 179.6C48.9504 179.558 48.8702 179.499 48.8039 179.426C48.7377 179.353 48.6867 179.267 48.6541 179.174C48.6215 179.081 48.6079 178.982 48.614 178.883C48.6201 178.785 48.6459 178.689 48.6899 178.6C49.5627 176.818 50.5446 175.091 51.6299 173.43C51.7392 173.275 51.9031 173.168 52.0886 173.129C52.2741 173.09 52.4675 173.122 52.6299 173.22C52.7884 173.326 52.8998 173.49 52.9408 173.676C52.9817 173.862 52.9492 174.057 52.8499 174.22C51.795 175.825 50.8431 177.495 49.9999 179.22C49.9481 179.348 49.8617 179.459 49.7504 179.54C49.6391 179.621 49.5073 179.67 49.3699 179.68ZM55.1199 170.68C54.9526 170.682 54.79 170.625 54.6599 170.52C54.5819 170.459 54.5169 170.383 54.4686 170.296C54.4203 170.209 54.3897 170.114 54.3786 170.015C54.3674 169.917 54.3759 169.817 54.4036 169.722C54.4313 169.626 54.4776 169.537 54.5399 169.46C55.7895 167.916 57.125 166.444 58.5399 165.05C58.6805 164.91 58.8711 164.831 59.0699 164.831C59.2686 164.831 59.4593 164.91 59.5999 165.05C59.7403 165.191 59.8192 165.381 59.8192 165.58C59.8192 165.779 59.7403 165.97 59.5999 166.11C58.2371 167.47 56.9485 168.902 55.7399 170.4C55.6624 170.486 55.566 170.552 55.4584 170.594C55.3507 170.635 55.2348 170.651 55.1199 170.64V170.68ZM62.6399 163C62.5308 163 62.4232 162.976 62.3247 162.929C62.2261 162.882 62.1391 162.814 62.0699 162.73C61.9432 162.577 61.8817 162.38 61.8985 162.182C61.9153 161.984 62.0092 161.8 62.1599 161.67C63.6822 160.404 65.2676 159.216 66.9099 158.11C67.0711 158.011 67.2637 157.977 67.4491 158.014C67.6345 158.051 67.7991 158.157 67.9099 158.31C68.0215 158.476 68.0631 158.68 68.0257 158.876C67.9882 159.073 67.8747 159.247 67.7099 159.36C66.1076 160.436 64.5622 161.594 63.0799 162.83C62.9543 162.931 62.8006 162.99 62.6399 163Z" fill="#E0E0E0"/>
<path d="M69.1395 241.61C69.0322 241.611 68.9261 241.587 68.8295 241.54C67.8995 241.12 66.9795 240.67 66.0995 240.19C66.0135 240.145 65.9372 240.083 65.875 240.008C65.8129 239.934 65.7661 239.847 65.7373 239.755C65.7085 239.662 65.6983 239.564 65.7073 239.467C65.7162 239.37 65.7442 239.276 65.7895 239.19C65.8829 239.018 66.0397 238.89 66.2265 238.832C66.4133 238.774 66.6153 238.791 66.7895 238.88C67.6495 239.34 68.5395 239.78 69.4395 240.19C69.5939 240.262 69.7192 240.384 69.7949 240.537C69.8706 240.689 69.8922 240.863 69.8562 241.029C69.8201 241.196 69.7285 241.345 69.5965 241.452C69.4644 241.56 69.2997 241.619 69.1295 241.62L69.1395 241.61Z" fill="#E0E0E0"/>
<path d="M411.189 205.32L453.489 178.24L472.119 184.22L411.189 205.32Z" fill="#B72851"/>
<path d="M411.189 205.32L447.749 174.84L439.619 165.46L411.189 205.32Z" fill="#B72851"/>
<path d="M447.749 174.84V181.91L411.189 205.32L447.749 174.84Z" fill="white"/>
<path d="M456 171.89C455.818 171.891 455.643 171.823 455.51 171.7C455.362 171.568 455.272 171.383 455.259 171.184C455.246 170.986 455.311 170.791 455.44 170.64C456.742 169.188 457.898 167.61 458.89 165.93C458.99 165.758 459.156 165.632 459.349 165.582C459.542 165.531 459.747 165.559 459.92 165.66C460.092 165.761 460.217 165.926 460.268 166.119C460.319 166.312 460.29 166.518 460.19 166.69C459.142 168.451 457.93 170.108 456.57 171.64C456.498 171.72 456.41 171.784 456.312 171.827C456.213 171.87 456.107 171.892 456 171.89ZM461.72 162.57C461.63 162.584 461.539 162.584 461.45 162.57C461.355 162.534 461.269 162.479 461.196 162.408C461.123 162.338 461.065 162.253 461.026 162.16C460.987 162.067 460.967 161.966 460.967 161.865C460.968 161.763 460.989 161.663 461.03 161.57C461.736 159.749 462.265 157.863 462.61 155.94C462.645 155.744 462.758 155.57 462.922 155.456C463.086 155.343 463.288 155.299 463.485 155.335C463.681 155.371 463.855 155.483 463.968 155.647C464.082 155.811 464.125 156.014 464.09 156.21C463.721 158.225 463.162 160.201 462.42 162.11C462.363 162.249 462.266 162.367 462.141 162.449C462.016 162.531 461.869 162.573 461.72 162.57ZM463.86 151.84C463.762 151.839 463.665 151.818 463.575 151.779C463.485 151.74 463.404 151.684 463.336 151.613C463.268 151.542 463.215 151.459 463.179 151.367C463.144 151.276 463.127 151.178 463.13 151.08C463.13 150.82 463.13 150.56 463.13 150.3C463.125 148.602 462.992 146.908 462.73 145.23C462.701 145.033 462.751 144.832 462.869 144.671C462.986 144.51 463.163 144.402 463.36 144.37C463.557 144.344 463.756 144.395 463.916 144.512C464.077 144.63 464.185 144.804 464.22 145C464.49 146.754 464.627 148.526 464.63 150.3C464.63 150.57 464.63 150.84 464.63 151.11C464.622 151.308 464.537 151.495 464.393 151.632C464.249 151.768 464.058 151.843 463.86 151.84ZM462.35 141C462.189 141 462.032 140.947 461.904 140.849C461.776 140.752 461.683 140.615 461.64 140.46C461.066 138.584 460.347 136.755 459.49 134.99C459.446 134.902 459.42 134.805 459.414 134.707C459.408 134.608 459.421 134.51 459.454 134.416C459.486 134.323 459.537 134.237 459.604 134.164C459.67 134.091 459.75 134.032 459.84 133.99C460.019 133.904 460.225 133.893 460.412 133.958C460.599 134.024 460.753 134.161 460.84 134.34C461.734 136.174 462.48 138.077 463.07 140.03C463.099 140.124 463.109 140.223 463.1 140.321C463.09 140.418 463.061 140.513 463.015 140.6C462.968 140.687 462.905 140.763 462.828 140.825C462.752 140.887 462.664 140.933 462.57 140.96C462.5 140.988 462.425 141.001 462.35 141ZM457.71 131.07C457.583 131.071 457.459 131.04 457.348 130.978C457.238 130.917 457.145 130.828 457.08 130.72C456.007 129.074 454.828 127.501 453.55 126.01C453.485 125.935 453.436 125.849 453.405 125.755C453.374 125.661 453.362 125.562 453.369 125.464C453.377 125.365 453.404 125.269 453.448 125.181C453.493 125.093 453.555 125.014 453.63 124.95C453.704 124.886 453.79 124.837 453.883 124.806C453.976 124.775 454.074 124.763 454.171 124.771C454.269 124.778 454.364 124.805 454.452 124.85C454.539 124.894 454.616 124.955 454.68 125.03C456.007 126.573 457.23 128.204 458.34 129.91C458.432 130.075 458.46 130.268 458.42 130.452C458.379 130.636 458.273 130.799 458.12 130.91C458 130.998 457.858 131.05 457.71 131.06V131.07ZM450.71 122.66C450.519 122.66 450.336 122.584 450.2 122.45C448.76 121.102 447.247 119.834 445.67 118.65C445.591 118.591 445.524 118.517 445.474 118.432C445.424 118.348 445.391 118.254 445.377 118.156C445.363 118.059 445.369 117.959 445.393 117.864C445.418 117.769 445.461 117.679 445.52 117.6C445.579 117.521 445.653 117.455 445.738 117.405C445.822 117.355 445.916 117.322 446.014 117.308C446.111 117.294 446.21 117.299 446.306 117.324C446.401 117.348 446.491 117.391 446.57 117.45C448.195 118.665 449.751 119.97 451.23 121.36C451.341 121.463 451.418 121.598 451.452 121.746C451.485 121.893 451.472 122.048 451.416 122.189C451.36 122.33 451.262 122.45 451.136 122.534C451.01 122.618 450.861 122.662 450.71 122.66ZM441.94 116C441.798 115.999 441.659 115.957 441.54 115.88C440.86 115.46 440.15 115.04 439.43 114.63C438.43 114.07 437.43 113.51 436.37 112.98C436.273 112.941 436.185 112.883 436.112 112.808C436.04 112.734 435.983 112.645 435.946 112.547C435.91 112.45 435.894 112.345 435.9 112.241C435.906 112.137 435.934 112.035 435.981 111.943C436.028 111.85 436.095 111.768 436.176 111.702C436.257 111.636 436.35 111.588 436.451 111.561C436.551 111.533 436.657 111.527 436.76 111.542C436.863 111.558 436.962 111.594 437.05 111.65C438.1 112.19 439.15 112.75 440.17 113.33C440.91 113.74 441.63 114.17 442.33 114.61C442.491 114.713 442.607 114.874 442.654 115.06C442.7 115.246 442.674 115.443 442.58 115.61C442.515 115.724 442.422 115.82 442.31 115.888C442.198 115.957 442.071 115.995 441.94 116ZM352.29 115.49C352.158 115.489 352.028 115.453 351.914 115.386C351.8 115.32 351.706 115.225 351.64 115.11C351.545 114.941 351.52 114.742 351.571 114.555C351.621 114.368 351.743 114.208 351.91 114.11C353.65 113.11 355.44 112.11 357.25 111.27C357.427 111.183 357.632 111.171 357.82 111.234C358.007 111.298 358.161 111.433 358.25 111.61C358.333 111.79 358.343 111.994 358.278 112.181C358.212 112.368 358.077 112.522 357.9 112.61C356.12 113.48 354.36 114.41 352.65 115.4C352.538 115.455 352.414 115.479 352.29 115.47V115.49ZM432.19 110.92C432.086 110.921 431.983 110.897 431.89 110.85C430.09 110.06 428.23 109.32 426.37 108.66C426.181 108.593 426.028 108.453 425.942 108.272C425.857 108.091 425.847 107.883 425.915 107.695C425.982 107.507 426.122 107.353 426.303 107.268C426.484 107.182 426.691 107.173 426.88 107.24C428.77 107.92 430.66 108.67 432.5 109.48C432.66 109.548 432.792 109.67 432.872 109.825C432.952 109.98 432.976 110.158 432.939 110.328C432.903 110.499 432.808 110.651 432.671 110.759C432.534 110.867 432.364 110.924 432.19 110.92ZM362.14 110.61C361.992 110.611 361.847 110.568 361.724 110.486C361.601 110.404 361.506 110.287 361.45 110.15C361.409 110.058 361.386 109.959 361.384 109.859C361.382 109.759 361.401 109.659 361.438 109.565C361.475 109.472 361.531 109.387 361.602 109.316C361.672 109.245 361.757 109.188 361.85 109.15C363.7 108.37 365.6 107.65 367.5 107C367.595 106.961 367.698 106.941 367.801 106.943C367.904 106.945 368.006 106.968 368.1 107.012C368.194 107.055 368.278 107.117 368.347 107.194C368.415 107.271 368.468 107.362 368.5 107.46C368.536 107.557 368.553 107.659 368.549 107.762C368.545 107.865 368.52 107.966 368.476 108.06C368.432 108.153 368.37 108.236 368.293 108.305C368.217 108.374 368.127 108.427 368.03 108.46C366.16 109.1 364.28 109.81 362.47 110.57C362.362 110.6 362.25 110.607 362.14 110.59V110.61ZM421.87 107.15C421.8 107.16 421.729 107.16 421.66 107.15C419.77 106.6 417.83 106.15 415.9 105.68C415.803 105.659 415.712 105.619 415.631 105.563C415.549 105.507 415.48 105.435 415.427 105.352C415.373 105.269 415.337 105.176 415.319 105.079C415.302 104.981 415.304 104.882 415.325 104.785C415.346 104.689 415.385 104.597 415.442 104.516C415.498 104.435 415.57 104.366 415.653 104.312C415.736 104.259 415.829 104.222 415.926 104.205C416.023 104.187 416.123 104.189 416.22 104.21C418.22 104.64 420.16 105.15 422.08 105.71C422.253 105.761 422.402 105.872 422.5 106.024C422.598 106.176 422.638 106.358 422.612 106.536C422.587 106.715 422.497 106.878 422.361 106.997C422.225 107.115 422.05 107.18 421.87 107.18V107.15ZM372.52 107C372.356 107 372.197 106.945 372.067 106.846C371.937 106.747 371.843 106.608 371.8 106.45C371.772 106.356 371.764 106.258 371.774 106.161C371.785 106.063 371.815 105.969 371.863 105.884C371.91 105.798 371.974 105.723 372.051 105.662C372.127 105.602 372.215 105.557 372.31 105.53C374.24 104.99 376.22 104.53 378.19 104.09C378.289 104.058 378.395 104.048 378.499 104.059C378.603 104.07 378.704 104.104 378.794 104.156C378.885 104.209 378.964 104.28 379.025 104.365C379.087 104.45 379.13 104.546 379.151 104.649C379.173 104.751 379.173 104.857 379.151 104.96C379.13 105.062 379.087 105.159 379.025 105.244C378.964 105.329 378.886 105.4 378.795 105.453C378.704 105.506 378.604 105.539 378.5 105.55C376.56 105.96 374.62 106.44 372.72 106.97L372.52 107ZM411.15 104.74H411C409.05 104.43 407.06 104.18 405.1 104C404.996 103.999 404.894 103.977 404.8 103.934C404.706 103.892 404.622 103.83 404.552 103.754C404.483 103.677 404.43 103.587 404.397 103.489C404.364 103.392 404.352 103.288 404.361 103.185C404.37 103.082 404.4 102.982 404.449 102.891C404.499 102.801 404.566 102.721 404.648 102.658C404.729 102.595 404.823 102.549 404.923 102.523C405.023 102.498 405.128 102.493 405.23 102.51C407.23 102.69 409.23 102.94 411.23 103.26C411.425 103.295 411.599 103.404 411.714 103.564C411.83 103.725 411.879 103.924 411.85 104.12C411.814 104.282 411.727 104.428 411.6 104.534C411.473 104.641 411.315 104.703 411.15 104.71V104.74ZM383.26 104.67C383.082 104.67 382.909 104.607 382.774 104.491C382.638 104.376 382.548 104.216 382.52 104.04C382.491 103.843 382.541 103.642 382.659 103.481C382.776 103.32 382.953 103.212 383.15 103.18C385.15 102.88 387.15 102.63 389.15 102.46C389.248 102.452 389.347 102.463 389.442 102.492C389.536 102.522 389.623 102.57 389.699 102.634C389.775 102.697 389.837 102.775 389.883 102.863C389.928 102.951 389.956 103.047 389.965 103.145C389.973 103.244 389.962 103.343 389.932 103.437C389.903 103.531 389.855 103.619 389.791 103.695C389.727 103.77 389.649 103.833 389.562 103.878C389.474 103.924 389.378 103.952 389.28 103.96C387.28 104.13 385.33 104.36 383.38 104.67H383.26ZM400.21 103.67C398.21 103.6 396.21 103.59 394.26 103.67C394.161 103.676 394.063 103.661 393.97 103.627C393.878 103.594 393.793 103.542 393.721 103.474C393.649 103.407 393.591 103.326 393.552 103.236C393.512 103.146 393.491 103.049 393.49 102.95C393.486 102.851 393.501 102.753 393.536 102.66C393.571 102.567 393.624 102.483 393.692 102.411C393.76 102.339 393.842 102.282 393.932 102.242C394.023 102.202 394.121 102.181 394.22 102.18C396.22 102.11 398.22 102.12 400.22 102.18C400.318 102.183 400.415 102.205 400.505 102.245C400.595 102.285 400.676 102.342 400.744 102.414C400.812 102.485 400.865 102.57 400.9 102.662C400.936 102.754 400.952 102.852 400.95 102.95C400.935 103.138 400.851 103.313 400.714 103.442C400.578 103.572 400.398 103.646 400.21 103.65V103.67Z" fill="#E0E0E0"/>
<path d="M396.44 219.94V218.34H396.05C395.456 217.256 394.555 216.372 393.46 215.8C391.225 214.666 388.755 214.075 386.25 214.075C383.744 214.075 381.274 214.666 379.04 215.8C377.944 216.372 377.043 217.256 376.45 218.34H376.06V219.89C376.06 221.42 377.06 222.96 379.06 224.13C381.295 225.258 383.765 225.846 386.27 225.846C388.774 225.846 391.244 225.258 393.48 224.13C395.46 223 396.45 221.46 396.44 219.94Z" fill="#37474F"/>
<path d="M386.25 224.23C391.877 224.23 396.44 221.593 396.44 218.34C396.44 215.087 391.877 212.45 386.25 212.45C380.622 212.45 376.06 215.087 376.06 218.34C376.06 221.593 380.622 224.23 386.25 224.23Z" fill="#455A64"/>
<path d="M383.63 169.3V217.65C383.651 217.879 383.733 218.099 383.866 218.287C384 218.475 384.18 218.624 384.39 218.72C384.965 219.011 385.6 219.162 386.245 219.162C386.889 219.162 387.525 219.011 388.1 218.72C388.312 218.626 388.495 218.478 388.631 218.29C388.766 218.102 388.849 217.881 388.87 217.65V169.3H383.63Z" fill="#37474F"/>
<path d="M398 133.11C395.45 131.64 393.13 131.52 391.39 132.49L359 151.21L375.25 183.8L407.75 165V150.74C407.75 144.11 403.38 136.22 398 133.11Z" fill="#455A64"/>
<path d="M375.25 169.53V183.8L355.76 172.54V158.28C355.76 151.65 360.12 148.8 365.5 151.91C368.95 153.91 371.98 157.85 373.71 162.17C374.678 164.506 375.2 167.002 375.25 169.53Z" fill="#37474F"/>
<path d="M375.25 169.53V183.8L355.76 172.54L373.71 162.17C374.678 164.506 375.2 167.002 375.25 169.53Z" fill="#263238"/>
<path d="M372 174.42C370.21 169.24 364.39 162.52 359 159.42C353.61 156.32 350.71 157.99 352.5 163.17L355.75 172.55L375.25 183.81C375.25 183.81 373.8 179.6 372 174.42Z" fill="#455A64"/>
<path d="M385.409 170.07L384.319 169.44C384.085 169.332 383.827 169.289 383.57 169.313C383.314 169.338 383.069 169.43 382.859 169.58C382.257 169.974 381.756 170.504 381.396 171.128C381.036 171.752 380.829 172.451 380.789 173.17C380.762 173.427 380.804 173.687 380.912 173.923C381.019 174.159 381.187 174.361 381.399 174.51L382.399 175.09L382.589 174.78C382.797 174.735 382.996 174.657 383.179 174.55C383.781 174.158 384.283 173.63 384.642 173.007C385.002 172.385 385.21 171.687 385.249 170.97C385.248 170.791 385.225 170.613 385.179 170.44L385.409 170.07Z" fill="#263238"/>
<path d="M383.899 170.19C383.297 170.582 382.796 171.11 382.436 171.732C382.076 172.354 381.868 173.053 381.829 173.77C381.829 175.09 382.759 175.62 383.899 174.96C384.502 174.569 385.004 174.04 385.363 173.418C385.723 172.796 385.931 172.098 385.969 171.38C385.999 170.06 384.999 169.53 383.899 170.19Z" fill="#37474F"/>
<path d="M383.9 173.14C383.821 173.14 383.743 173.125 383.67 173.094C383.597 173.064 383.531 173.02 383.476 172.964C383.42 172.909 383.376 172.842 383.345 172.77C383.315 172.697 383.3 172.619 383.3 172.54V151.91C383.3 151.751 383.363 151.598 383.476 151.486C383.588 151.373 383.741 151.31 383.9 151.31C384.059 151.31 384.212 151.373 384.324 151.486C384.437 151.598 384.5 151.751 384.5 151.91V172.54C384.5 172.699 384.437 172.852 384.324 172.964C384.212 173.077 384.059 173.14 383.9 173.14Z" fill="#263238"/>
<path d="M384.439 152.45V157.83L390.209 151.91L384.439 152.45Z" fill="#37474F"/>
<path d="M81.0798 330.91C80.5798 331.18 71.3998 333.78 67.9998 329.29C64.5998 324.8 70.2498 317.8 67.0598 315.22C63.8698 312.64 54.9298 315.22 52.7798 309.8C50.6298 304.38 56.9998 302.04 53.4198 296.57C51.1598 293.12 44.8398 291.22 45.1298 288.01C45.5498 283.32 54.1898 282.01 61.7298 287.08C69.2698 292.15 72.7898 287.99 75.1798 287.65C77.5698 287.31 82.7298 288.06 82.5698 296.46C82.4098 304.86 81.0798 330.91 81.0798 330.91Z" fill="#2E3192"/>
<path d="M81.6899 319C81.5706 319 81.4552 318.957 81.3638 318.881C81.2725 318.804 81.2109 318.698 81.1899 318.58C78.5599 302.58 60.0299 289.65 50.3899 286.87C50.3261 286.853 50.2665 286.823 50.2145 286.782C50.1626 286.741 50.1195 286.691 50.0877 286.633C50.0559 286.575 50.0362 286.511 50.0297 286.445C50.0232 286.38 50.0301 286.313 50.0499 286.25C50.087 286.123 50.1732 286.015 50.2895 285.952C50.4057 285.888 50.5426 285.873 50.6699 285.91C60.5199 288.76 79.4799 302.05 82.1799 318.42C82.2001 318.55 82.1685 318.683 82.0918 318.789C82.015 318.896 81.8994 318.968 81.7699 318.99L81.6899 319Z" fill="white"/>
<path d="M59.8301 305.61C59.7201 305.611 59.6129 305.576 59.5249 305.51C59.437 305.444 59.3733 305.351 59.3437 305.245C59.314 305.139 59.3202 305.026 59.3611 304.924C59.4021 304.822 59.4755 304.736 59.5701 304.68C59.8701 304.5 67.0101 300.33 74.0301 302.28C74.1627 302.315 74.2762 302.401 74.3456 302.519C74.415 302.637 74.4346 302.778 74.4001 302.91C74.3656 303.043 74.2799 303.156 74.1617 303.226C74.0436 303.295 73.9027 303.315 73.7701 303.28C67.1501 301.44 60.1501 305.53 60.0801 305.57C60.0023 305.607 59.9155 305.621 59.8301 305.61Z" fill="white"/>
<path d="M342.5 246.42C346.44 246.96 353.15 244.68 353.63 238.12C354.11 231.56 356.82 229.78 361.79 228.71C366.76 227.64 368.22 225.91 368.79 222.79C369.36 219.67 365.58 215.94 366.64 211.24C367.7 206.54 371.24 206.55 374.72 201.24C376.95 197.82 372.38 192.6 364.77 194.84C357.16 197.08 357.77 201.99 350.16 202.62C342.55 203.25 337.78 207.87 337.63 213.62C337.48 219.37 342.5 246.42 342.5 246.42Z" fill="#2E3192"/>
<path opacity="0.2" d="M342.5 246.42C346.44 246.96 353.15 244.68 353.63 238.12C354.11 231.56 356.82 229.78 361.79 228.71C366.76 227.64 368.22 225.91 368.79 222.79C369.36 219.67 365.58 215.94 366.64 211.24C367.7 206.54 371.24 206.55 374.72 201.24C376.95 197.82 372.38 192.6 364.77 194.84C357.16 197.08 357.77 201.99 350.16 202.62C342.55 203.25 337.78 207.87 337.63 213.62C337.48 219.37 342.5 246.42 342.5 246.42Z" fill="black"/>
<path d="M341.06 233.84H341C340.935 233.827 340.874 233.801 340.82 233.765C340.765 233.728 340.719 233.681 340.683 233.626C340.646 233.571 340.621 233.51 340.609 233.445C340.596 233.381 340.597 233.314 340.61 233.25C344.29 215.06 364.36 198.41 369.25 196.71C369.382 196.666 369.527 196.677 369.652 196.74C369.776 196.803 369.871 196.913 369.915 197.045C369.958 197.178 369.948 197.322 369.885 197.447C369.822 197.572 369.712 197.666 369.58 197.71C364.8 199.37 345.19 215.71 341.58 233.5C341.543 233.606 341.472 233.697 341.377 233.758C341.283 233.82 341.172 233.849 341.06 233.84Z" fill="white"/>
<path d="M76.8799 227.39C76.9287 226.489 77.1896 225.611 77.6414 224.829C78.0932 224.047 78.7231 223.383 79.4799 222.89L212.39 146.15C213.195 145.746 214.084 145.535 214.985 145.535C215.886 145.535 216.775 145.746 217.58 146.15L220.51 147.85C221.268 148.341 221.9 149.005 222.352 149.787C222.804 150.57 223.063 151.448 223.11 152.35V254.23C223.059 255.132 222.797 256.008 222.345 256.79C221.894 257.571 221.265 258.236 220.51 258.73L87.5999 335.46C86.7943 335.87 85.9035 336.083 84.9999 336.083C84.0963 336.083 83.2055 335.87 82.3999 335.46L79.4799 333.77C78.7242 333.277 78.0951 332.612 77.6435 331.83C77.1919 331.049 76.9303 330.172 76.8799 329.27V227.39Z" fill="#2E3192"/>
<path opacity="0.3" d="M76.8799 227.39C76.9287 226.489 77.1896 225.611 77.6414 224.829C78.0932 224.047 78.7231 223.383 79.4799 222.89L212.39 146.15C213.195 145.746 214.084 145.535 214.985 145.535C215.886 145.535 216.775 145.746 217.58 146.15L220.51 147.85C221.268 148.341 221.9 149.005 222.352 149.787C222.804 150.57 223.063 151.448 223.11 152.35V254.23C223.059 255.132 222.797 256.008 222.345 256.79C221.894 257.571 221.265 258.236 220.51 258.73L87.5999 335.46C86.7943 335.87 85.9035 336.083 84.9999 336.083C84.0963 336.083 83.2055 335.87 82.3999 335.46L79.4799 333.77C78.7242 333.277 78.0951 332.612 77.6435 331.83C77.1919 331.049 76.9303 330.172 76.8799 329.27V227.39Z" fill="black"/>
<path d="M89.0599 231.43L77.6399 224.83C77.173 225.605 76.9114 226.486 76.8799 227.39V329.27C76.9303 330.171 77.1919 331.048 77.6435 331.83C78.0951 332.612 78.7242 333.276 79.4799 333.77L82.3999 335.46C83.2055 335.869 84.0963 336.083 84.9999 336.083C85.9035 336.083 86.7943 335.869 87.5999 335.46L89.0599 334.62V231.43Z" fill="#2E3192"/>
<path opacity="0.5" d="M89.0599 231.43L77.6399 224.83C77.173 225.605 76.9114 226.486 76.8799 227.39V329.27C76.9303 330.171 77.1919 331.048 77.6435 331.83C78.0951 332.612 78.7242 333.276 79.4799 333.77L82.3999 335.46C83.2055 335.869 84.0963 336.083 84.9999 336.083C85.9035 336.083 86.7943 335.869 87.5999 335.46L89.0599 334.62V231.43Z" fill="black"/>
<path d="M223.11 152.35V254.23C223.076 255.163 222.797 256.07 222.3 256.86C221.916 257.526 221.399 258.105 220.78 258.56L220.68 258.62L220.51 258.73L87.6001 335.46C87.3457 335.64 87.0501 335.752 86.7407 335.787C86.4313 335.822 86.1181 335.779 85.8301 335.66C85.5532 335.486 85.3294 335.239 85.1831 334.946C85.0368 334.654 84.9735 334.327 85.0001 334V232.08C84.9774 231.716 85.0436 231.351 85.1929 231.017C85.3422 230.684 85.5702 230.391 85.8573 230.165C86.1444 229.939 86.4821 229.786 86.8413 229.719C87.2006 229.652 87.5707 229.673 87.9201 229.78L143.81 243.07L151.13 244.81C151.994 244.972 152.886 244.895 153.709 244.586C154.532 244.278 155.255 243.75 155.8 243.06L164.28 231.25L221.36 151.78C222.32 150.44 223.11 150.69 223.11 152.35Z" fill="#2E3192"/>
<path opacity="0.2" d="M223.11 152.35V254.23C223.076 255.163 222.797 256.07 222.3 256.86C221.916 257.526 221.399 258.105 220.78 258.56L220.68 258.62L220.51 258.73L87.6001 335.46C87.3457 335.64 87.0501 335.752 86.7407 335.787C86.4313 335.822 86.1181 335.779 85.8301 335.66C85.5532 335.486 85.3294 335.239 85.1831 334.946C85.0368 334.654 84.9735 334.327 85.0001 334V232.08C84.9774 231.716 85.0436 231.351 85.1929 231.017C85.3422 230.684 85.5702 230.391 85.8573 230.165C86.1444 229.939 86.4821 229.786 86.8413 229.719C87.2006 229.652 87.5707 229.673 87.9201 229.78L143.81 243.07L151.13 244.81C151.994 244.972 152.886 244.895 153.709 244.586C154.532 244.278 155.255 243.75 155.8 243.06L164.28 231.25L221.36 151.78C222.32 150.44 223.11 150.69 223.11 152.35Z" fill="black"/>
<path d="M220.51 258.73L220.68 258.62L220.78 258.56C221.399 258.104 221.916 257.525 222.3 256.86C222.792 256.082 223.071 255.189 223.11 254.27L164.28 231.27L203.68 268.47L220.51 258.73Z" fill="#2E3192"/>
<path opacity="0.6" d="M220.51 258.73L220.68 258.62L220.78 258.56C221.399 258.104 221.916 257.525 222.3 256.86C222.792 256.082 223.071 255.189 223.11 254.27L164.28 231.27L203.68 268.47L220.51 258.73Z" fill="black"/>
<path d="M85 334C84.9618 334.332 85.0174 334.669 85.1606 334.971C85.3038 335.273 85.5287 335.529 85.81 335.71C86.098 335.828 86.4113 335.872 86.7207 335.837C87.0301 335.802 87.3256 335.69 87.58 335.51L133.36 309L143.81 243L85 332.27V334Z" fill="#2E3192"/>
<path opacity="0.6" d="M85 334C84.9618 334.332 85.0174 334.669 85.1606 334.971C85.3038 335.273 85.5287 335.529 85.81 335.71C86.098 335.828 86.4113 335.872 86.7207 335.837C87.0301 335.802 87.3256 335.69 87.58 335.51L133.36 309L143.81 243L85 332.27V334Z" fill="black"/>
<path d="M222.3 256.86C221.916 257.525 221.399 258.104 220.78 258.56L220.68 258.62L87.6001 335.46C87.3457 335.64 87.0501 335.752 86.7407 335.787C86.4313 335.822 86.1181 335.778 85.8301 335.66L149.48 234.05C150.759 232.015 152.729 230.508 155.028 229.807C157.327 229.105 159.803 229.256 162 230.23L222.3 256.86Z" fill="#2E3192"/>
<path opacity="0.2" d="M222.3 256.86C221.916 257.525 221.399 258.104 220.78 258.56L220.68 258.62L87.6001 335.46C87.3457 335.64 87.0501 335.752 86.7407 335.787C86.4313 335.822 86.1181 335.778 85.8301 335.66L149.48 234.05C150.759 232.015 152.729 230.508 155.028 229.807C157.327 229.105 159.803 229.256 162 230.23L222.3 256.86Z" fill="black"/>
<path d="M85 229.08L146.13 256.08C148.331 257.052 150.808 257.197 153.108 256.49C155.408 255.783 157.375 254.27 158.65 252.23L222.84 149.5L85 229.08Z" fill="#2E3192"/>
<path opacity="0.6" d="M85 229.08L146.13 256.08C148.331 257.052 150.808 257.197 153.108 256.49C155.408 255.783 157.375 254.27 158.65 252.23L222.84 149.5L85 229.08Z" fill="black"/>
<path d="M85 229.08L146.56 252.08C148.687 252.874 151.022 252.921 153.179 252.212C155.336 251.503 157.188 250.081 158.43 248.18L222.84 149.5L85 229.08Z" fill="#2E3192"/>
<path opacity="0.2" d="M85 229.08L146.56 252.08C148.687 252.874 151.022 252.921 153.179 252.212C155.336 251.503 157.188 250.081 158.43 248.18L222.84 149.5L85 229.08Z" fill="black"/>
<path d="M99.5801 239.94C99.6265 239.038 99.8864 238.16 100.338 237.377C100.79 236.595 101.422 235.931 102.18 235.44L235.09 158.7C235.896 158.291 236.786 158.078 237.69 158.078C238.594 158.078 239.484 158.291 240.29 158.7L243.22 160.39C243.975 160.884 244.603 161.549 245.053 162.331C245.503 163.113 245.762 163.989 245.81 164.89V266.77C245.761 267.671 245.501 268.547 245.051 269.329C244.601 270.11 243.974 270.775 243.22 271.27L110.3 348C109.495 348.405 108.606 348.616 107.705 348.616C106.804 348.616 105.915 348.405 105.11 348L102.18 346.31C101.425 345.816 100.796 345.151 100.345 344.37C99.8932 343.588 99.6313 342.711 99.5801 341.81V239.94Z" fill="#455A64"/>
<path d="M99.5801 239.94C99.6265 239.038 99.8864 238.16 100.338 237.377C100.79 236.595 101.422 235.931 102.18 235.44L235.09 158.7C235.896 158.291 236.786 158.078 237.69 158.078C238.594 158.078 239.484 158.291 240.29 158.7L243.22 160.39C243.975 160.884 244.603 161.549 245.053 162.331C245.503 163.113 245.762 163.989 245.81 164.89V266.77C245.761 267.671 245.501 268.547 245.051 269.329C244.601 270.11 243.974 270.775 243.22 271.27L110.3 348C109.495 348.405 108.606 348.616 107.705 348.616C106.804 348.616 105.915 348.405 105.11 348L102.18 346.31C101.425 345.816 100.796 345.151 100.345 344.37C99.8932 343.588 99.6313 342.711 99.5801 341.81V239.94Z" fill="#455A64"/>
<path d="M111.77 244L100.34 237.41C99.872 238.184 99.6103 239.066 99.5801 239.97V341.82C99.6313 342.721 99.8932 343.598 100.345 344.379C100.796 345.161 101.425 345.826 102.18 346.32L105.11 348.01C105.915 348.415 106.804 348.625 107.705 348.625C108.606 348.625 109.495 348.415 110.3 348.01L111.77 347.16V244Z" fill="#263238"/>
<path d="M245.82 164.89V266.77C245.786 267.703 245.506 268.61 245.009 269.4C244.625 270.066 244.108 270.645 243.49 271.1L243.389 271.16L243.219 271.27L110.309 348C110.055 348.18 109.76 348.292 109.45 348.327C109.141 348.362 108.828 348.319 108.539 348.2C108.258 348.019 108.033 347.763 107.89 347.461C107.747 347.159 107.691 346.823 107.729 346.49V244.62C107.707 244.256 107.773 243.891 107.922 243.557C108.072 243.224 108.3 242.931 108.587 242.705C108.874 242.479 109.211 242.326 109.571 242.259C109.93 242.192 110.3 242.213 110.649 242.32L166.539 255.61L173.859 257.35C174.723 257.512 175.615 257.435 176.438 257.126C177.262 256.818 177.985 256.29 178.529 255.6L186.999 243.79L244.079 164.32C244.999 163 245.82 163.23 245.82 164.89Z" fill="#37474F"/>
<path d="M243.22 271.27L243.39 271.16L243.49 271.1C244.109 270.645 244.626 270.066 245.01 269.4C245.496 268.624 245.771 267.735 245.81 266.82L186.99 243.82L226.38 281L243.22 271.27Z" fill="#263238"/>
<path d="M107.709 346.5C107.671 346.833 107.727 347.169 107.87 347.471C108.013 347.773 108.238 348.029 108.519 348.21C108.807 348.329 109.121 348.372 109.43 348.337C109.74 348.302 110.035 348.19 110.289 348.01L156.049 321.59L166.499 255.59L107.689 344.79L107.709 346.5Z" fill="#263238"/>
<path d="M245 269.4C244.616 270.066 244.099 270.645 243.48 271.1L243.38 271.16L110.31 348C110.056 348.18 109.76 348.292 109.451 348.327C109.141 348.362 108.828 348.319 108.54 348.2L172.18 246.6C173.456 244.562 175.425 243.051 177.724 242.346C180.024 241.641 182.5 241.788 184.7 242.76L245 269.4Z" fill="#37474F"/>
<path d="M107.71 241.63L168.84 268.63C171.04 269.599 173.515 269.743 175.812 269.036C178.11 268.329 180.076 266.818 181.35 264.78L245.54 162L107.71 241.63Z" fill="#263238"/>
<path d="M107.71 241.63L169.26 264.63C171.389 265.427 173.725 265.475 175.885 264.766C178.044 264.057 179.898 262.633 181.14 260.73L245.54 162L107.71 241.63Z" fill="#37474F"/>
<path d="M197.07 320.81V218.93C197.163 216.997 197.767 215.123 198.82 213.5L262.21 125.23C263.367 123.617 264.977 122.385 266.837 121.691C268.696 120.996 270.72 120.871 272.65 121.33L332.26 135.5C334.181 136.011 336.034 136.75 337.78 137.7L340.71 139.39C341.464 139.886 342.09 140.551 342.54 141.332C342.99 142.114 343.25 142.99 343.3 143.89V245.77C343.249 246.67 342.988 247.545 342.538 248.327C342.088 249.108 341.462 249.773 340.71 250.27L207.79 327C206.986 327.407 206.097 327.619 205.195 327.619C204.294 327.619 203.405 327.407 202.6 327L199.67 325.31C198.915 324.816 198.286 324.152 197.834 323.37C197.382 322.588 197.121 321.711 197.07 320.81Z" fill="#2E3192"/>
<path opacity="0.3" d="M197.07 320.81V218.93C197.163 216.997 197.767 215.123 198.82 213.5L262.21 125.23C263.367 123.617 264.977 122.385 266.837 121.691C268.696 120.996 270.72 120.871 272.65 121.33L332.26 135.5C334.181 136.011 336.034 136.75 337.78 137.7L340.71 139.39C341.464 139.886 342.09 140.551 342.54 141.332C342.99 142.114 343.25 142.99 343.3 143.89V245.77C343.249 246.67 342.988 247.545 342.538 248.327C342.088 249.108 341.462 249.773 340.71 250.27L207.79 327C206.986 327.407 206.097 327.619 205.195 327.619C204.294 327.619 203.405 327.407 202.6 327L199.67 325.31C198.915 324.816 198.286 324.152 197.834 323.37C197.382 322.588 197.121 321.711 197.07 320.81Z" fill="white"/>
<path d="M209.25 169.69V299.69C209.25 301.34 210.42 302.02 211.85 301.19L336.64 229.19C337.397 228.698 338.028 228.034 338.48 227.252C338.931 226.47 339.192 225.592 339.24 224.69V94.6901C339.24 93.0301 338.08 92.3601 336.64 93.1901L211.85 165.19C211.093 165.683 210.463 166.347 210.012 167.129C209.56 167.911 209.299 168.788 209.25 169.69Z" fill="#FAFAFA"/>
<path d="M210.69 302.06C210.367 302.063 210.05 301.98 209.77 301.82C209.427 301.592 209.154 301.275 208.978 300.904C208.801 300.532 208.73 300.12 208.77 299.71V169.71C208.817 168.719 209.1 167.754 209.596 166.895C210.092 166.036 210.786 165.307 211.62 164.77L336.41 92.7702C336.735 92.5049 337.134 92.345 337.553 92.3117C337.972 92.2784 338.391 92.3733 338.754 92.5839C339.118 92.7944 339.409 93.1106 339.588 93.4904C339.768 93.8702 339.828 94.2956 339.76 94.7102V224.71C339.713 225.7 339.43 226.664 338.934 227.522C338.438 228.38 337.744 229.106 336.91 229.64L212.12 301.64C211.689 301.905 211.195 302.05 210.69 302.06ZM337.8 93.2802C337.477 93.2987 337.164 93.3984 336.89 93.5702L212.1 165.62C211.42 166.071 210.855 166.673 210.447 167.379C210.039 168.085 209.8 168.876 209.75 169.69V299.69C209.69 299.925 209.708 300.172 209.802 300.395C209.896 300.619 210.06 300.805 210.269 300.926C210.479 301.047 210.722 301.097 210.962 301.067C211.202 301.037 211.426 300.929 211.6 300.76L336.39 228.76C337.07 228.31 337.636 227.708 338.043 227.002C338.451 226.295 338.689 225.504 338.74 224.69V94.6902C338.768 94.4557 338.736 94.2179 338.647 93.9991C338.557 93.7804 338.414 93.5881 338.23 93.4402C338.103 93.3489 337.955 93.2936 337.8 93.2802Z" fill="#E0E0E0"/>
<path d="M206.56 221.41L197.56 216.21C197.269 217.089 197.107 218.005 197.08 218.93V320.81C197.13 321.712 197.392 322.589 197.844 323.37C198.295 324.152 198.924 324.817 199.68 325.31L202.6 327C203.404 327.41 204.293 327.623 205.195 327.623C206.097 327.623 206.986 327.41 207.79 327L209.04 326.29L206.56 221.41Z" fill="#2E3192"/>
<g opacity="0.1">
<path opacity="0.1" d="M206.56 221.41L197.56 216.21C197.269 217.089 197.107 218.005 197.08 218.93V320.81C197.13 321.712 197.392 322.589 197.844 323.37C198.295 324.152 198.924 324.817 199.68 325.31L202.6 327C203.404 327.41 204.293 327.623 205.195 327.623C206.097 327.623 206.986 327.41 207.79 327L209.04 326.29L206.56 221.41Z" fill="black"/>
</g>
<path d="M343.31 143.89V245.77C343.276 246.703 342.997 247.61 342.5 248.4C342.116 249.066 341.598 249.645 340.98 250.1L340.88 250.16L340.71 250.27L207.8 327C207.545 327.18 207.25 327.292 206.94 327.327C206.631 327.362 206.318 327.319 206.03 327.2C205.748 327.019 205.523 326.763 205.38 326.461C205.237 326.159 205.182 325.823 205.22 325.49V223.62C205.197 223.256 205.263 222.891 205.413 222.557C205.562 222.224 205.79 221.931 206.077 221.705C206.364 221.479 206.702 221.326 207.061 221.259C207.42 221.192 207.79 221.213 208.14 221.32L264 234.61L271.32 236.35C272.185 236.514 273.079 236.438 273.904 236.129C274.729 235.821 275.454 235.292 276 234.6L284.48 222.79L341.56 143.32C342.52 142 343.31 142.23 343.31 143.89Z" fill="#2E3192"/>
<path opacity="0.3" d="M343.31 143.89V245.77C343.276 246.703 342.997 247.61 342.5 248.4C342.116 249.066 341.598 249.645 340.98 250.1L340.88 250.16L340.71 250.27L207.8 327C207.545 327.18 207.25 327.292 206.94 327.327C206.631 327.362 206.318 327.319 206.03 327.2C205.748 327.019 205.523 326.763 205.38 326.461C205.237 326.159 205.182 325.823 205.22 325.49V223.62C205.197 223.256 205.263 222.891 205.413 222.557C205.562 222.224 205.79 221.931 206.077 221.705C206.364 221.479 206.702 221.326 207.061 221.259C207.42 221.192 207.79 221.213 208.14 221.32L264 234.61L271.32 236.35C272.185 236.514 273.079 236.438 273.904 236.129C274.729 235.821 275.454 235.292 276 234.6L284.48 222.79L341.56 143.32C342.52 142 343.31 142.23 343.31 143.89Z" fill="white"/>
<path d="M340.709 250.27L340.879 250.16L340.979 250.1C341.598 249.644 342.115 249.065 342.499 248.4C342.985 247.62 343.261 246.728 343.299 245.81L284.479 222.81L323.869 260L340.709 250.27Z" fill="#2E3192"/>
<path d="M205.2 325.5C205.161 325.833 205.217 326.169 205.36 326.471C205.503 326.773 205.728 327.029 206.01 327.21C206.298 327.329 206.611 327.372 206.92 327.337C207.23 327.302 207.525 327.19 207.78 327.01L253.54 300.59L263.99 234.59L205.18 323.79L205.2 325.5Z" fill="#2E3192"/>
<path d="M342.5 248.4C342.116 249.066 341.599 249.645 340.98 250.1L340.88 250.16L207.8 327C207.546 327.18 207.25 327.292 206.941 327.327C206.632 327.362 206.318 327.319 206.03 327.2L269.67 225.6C270.946 223.564 272.913 222.055 275.21 221.35C277.507 220.645 279.982 220.79 282.18 221.76L342.5 248.4Z" fill="#2E3192"/>
<path opacity="0.3" d="M342.5 248.4C342.116 249.066 341.599 249.645 340.98 250.1L340.88 250.16L207.8 327C207.546 327.18 207.25 327.292 206.941 327.327C206.632 327.362 206.318 327.319 206.03 327.2L269.67 225.6C270.946 223.564 272.913 222.055 275.21 221.35C277.507 220.645 279.982 220.79 282.18 221.76L342.5 248.4Z" fill="white"/>
<path d="M264.2 199.63C263.033 199.811 261.84 199.705 260.723 199.322C259.606 198.938 258.6 198.289 257.79 197.43C256.27 195.74 255.51 193.13 255.51 189.62C255.512 185.66 256.361 181.746 258 178.14C259.682 174.43 262.004 171.045 264.86 168.14C267.931 164.956 271.431 162.216 275.26 160C279.013 157.84 282.216 156.644 284.87 156.41C287.54 156.17 289.55 156.86 290.93 158.46C292.31 160.06 292.99 162.51 292.99 165.79C293.048 169.043 292.277 172.257 290.75 175.13C289.404 177.732 287.352 179.902 284.83 181.39C283.959 182.009 282.892 182.287 281.83 182.17C281.452 182.095 281.104 181.913 280.827 181.645C280.55 181.378 280.357 181.035 280.27 180.66C279.437 182.235 278.379 183.68 277.13 184.95C275.866 186.255 274.425 187.375 272.85 188.28C270.13 189.82 267.96 190.28 266.36 189.75C264.76 189.22 264 187.6 264 184.9C264.023 181.507 265.068 178.2 267 175.41C269.103 172.318 271.896 169.757 275.16 167.93C276.523 167.119 278.004 166.525 279.55 166.17C280.699 165.859 281.91 165.859 283.06 166.17V176.7C283.06 177.55 283.21 178.07 283.5 178.27C283.79 178.47 284.27 178.37 284.95 177.98C286.216 177.156 287.154 175.914 287.6 174.47C288.276 172.52 288.598 170.464 288.55 168.4C288.55 165.774 287.976 163.864 286.83 162.67C286.217 162.071 285.469 161.628 284.65 161.377C283.83 161.127 282.963 161.076 282.12 161.23C279.678 161.603 277.34 162.475 275.25 163.79C270.828 166.243 267.017 169.661 264.1 173.79C261.404 177.665 259.972 182.279 260 187C260 189.874 260.59 191.97 261.77 193.29C262.382 193.951 263.147 194.45 263.999 194.743C264.85 195.036 265.761 195.114 266.65 194.97C269.138 194.618 271.524 193.742 273.65 192.4C275.117 191.552 276.506 190.575 277.8 189.48C279.005 188.485 280.101 187.366 281.07 186.14C281.17 186.011 281.288 185.897 281.42 185.8C281.51 185.75 281.6 185.8 281.68 185.92L282.78 187.92C282.82 188 282.85 188.084 282.87 188.17C282.835 188.393 282.726 188.597 282.56 188.75C281.351 190.203 280.013 191.542 278.56 192.75C277.03 194.033 275.394 195.184 273.67 196.19C270.797 198.004 267.567 199.178 264.2 199.63ZM277.2 180.83C278.152 179.707 278.707 178.301 278.78 176.83V170.73C277.352 170.851 275.978 171.325 274.78 172.11C272.872 173.183 271.247 174.695 270.04 176.52C268.907 178.195 268.298 180.169 268.29 182.19C268.29 183.88 268.71 184.89 269.56 185.19C270.41 185.49 271.72 185.19 273.51 184.12C274.959 183.282 276.227 182.164 277.24 180.83H277.2Z" fill="#B72851"/>
<path d="M136.84 209.65L127.09 204H127.02C123.69 202.12 119.1 202.4 114.02 205.33C103.81 211.22 95.54 225.55 95.54 237.33C95.54 243.22 97.6 247.33 100.93 249.33L110 254.52L111.64 251.79C113.5 251.373 115.287 250.679 116.94 249.73C127.14 243.83 135.42 229.5 135.42 217.73C135.415 216.139 135.22 214.555 134.84 213.01L136.84 209.65Z" fill="#F28F8F"/>
<path d="M136.84 209.65L127.09 204H127.02C123.69 202.12 119.1 202.4 114.02 205.33C103.81 211.22 95.54 225.55 95.54 237.33C95.54 243.22 97.6 247.33 100.93 249.33L110 254.52L111.64 251.79C113.5 251.373 115.287 250.679 116.94 249.73C127.14 243.83 135.42 229.5 135.42 217.73C135.415 216.139 135.22 214.555 134.84 213.01L136.84 209.65Z" fill="#B72851"/>
<path opacity="0.4" d="M136.84 209.65L127.09 204H127.02C123.69 202.12 119.1 202.4 114.02 205.33C103.81 211.22 95.54 225.55 95.54 237.33C95.54 243.22 97.6 247.33 100.93 249.33L110 254.52L111.64 251.79C113.5 251.373 115.287 250.679 116.94 249.73C127.14 243.83 135.42 229.5 135.42 217.73C135.415 216.139 135.22 214.555 134.84 213.01L136.84 209.65Z" fill="black"/>
<path d="M123.39 210.7C113.18 216.6 104.91 230.93 104.91 242.7C104.91 254.47 113.18 259.26 123.39 253.37C133.6 247.48 141.87 233.15 141.87 221.37C141.87 209.59 133.6 204.81 123.39 210.7Z" fill="#B72851"/>
<path d="M116.17 245.52C115.98 245.52 115.88 245.41 115.88 245.24C115.9 245.052 115.954 244.869 116.04 244.7L116.97 242.61C117.031 242.405 117.153 242.224 117.32 242.09C117.458 242.027 117.608 241.993 117.76 241.99C118.592 241.94 119.413 241.776 120.2 241.5C121.246 241.148 122.252 240.685 123.2 240.12C124.675 239.321 125.969 238.224 127 236.9C127.773 235.898 128.204 234.675 128.23 233.41C128.23 231.2 126.88 230.88 124.18 232.41L121.55 234C121.12 234.24 120.82 234.33 120.64 234.25C120.46 234.17 120.37 233.93 120.37 233.53V232.7C120.356 232.347 120.45 231.998 120.64 231.7C120.881 231.375 121.192 231.108 121.55 230.92L124.16 229.41C125.206 228.841 126.093 228.019 126.74 227.02C127.282 226.182 127.58 225.208 127.6 224.21C127.6 222.07 126.093 221.87 123.08 223.61C121.227 224.666 119.558 226.017 118.14 227.61C118.007 227.76 117.859 227.898 117.7 228.02C117.641 228.048 117.575 228.055 117.511 228.041C117.448 228.026 117.391 227.991 117.35 227.94L116.46 226.94C116.41 226.894 116.37 226.838 116.343 226.776C116.315 226.715 116.301 226.648 116.3 226.58C116.32 226.351 116.419 226.135 116.58 225.97C117.466 224.862 118.472 223.856 119.58 222.97C120.87 221.919 122.245 220.975 123.69 220.15C124.995 219.338 126.434 218.766 127.94 218.46C128.414 218.345 128.907 218.334 129.386 218.429C129.864 218.524 130.316 218.722 130.71 219.01C131.065 219.352 131.339 219.77 131.512 220.232C131.685 220.694 131.753 221.189 131.71 221.68C131.687 222.781 131.442 223.866 130.99 224.87C130.507 226.029 129.83 227.097 128.99 228.03C129.422 227.885 129.883 227.853 130.331 227.935C130.778 228.017 131.198 228.211 131.55 228.5C131.858 228.859 132.092 229.275 132.238 229.725C132.384 230.175 132.439 230.649 132.4 231.12C132.323 233.337 131.546 235.473 130.18 237.22C128.503 239.47 126.361 241.332 123.9 242.68C120.38 244.74 117.803 245.687 116.17 245.52Z" fill="white"/>
<path d="M291 352.87C288.28 349.71 290.7 344.46 293.34 337.65C296.24 330.16 300.72 317.43 300.72 317.43L332.53 310.86C332.53 310.86 366.42 310.21 369.53 316.69C372.05 321.88 349.73 329.69 346.53 329.97L326.94 331L324.88 332L311.12 349.41L291 352.87Z" fill="#2E3192"/>
<path d="M349.61 322C347.14 324.513 344.838 327.185 342.72 330C336.99 338 327.92 352.53 327.92 352.53C327.92 352.53 329.33 357.13 333.66 356.93C333.66 356.93 363.46 329.1 365.9 326.53C369.59 322.63 372.55 316.2 366.17 315.67C359.79 315.14 352.09 319.32 349.61 322Z" fill="#2E3192"/>
<path d="M342.559 330.16C342.559 330.16 347.879 322.38 353.389 319.16C353.389 319.16 347.909 320.24 339.609 330.34L342.559 330.16Z" fill="#2E3192"/>
<path opacity="0.1" d="M342.559 330.16C342.559 330.16 347.879 322.38 353.389 319.16C353.389 319.16 347.909 320.24 339.609 330.34L342.559 330.16Z" fill="black"/>
<path d="M346.18 340L344.09 340.4L346.03 347.57C346.03 347.57 347.91 347.39 348.56 347.43C349.507 347.205 350.419 346.852 351.27 346.38L350.77 342L348.47 339.6L346.18 340Z" fill="#FFA8A7"/>
<path d="M362.68 341.69C363.677 342.092 364.581 342.696 365.335 343.464C366.088 344.231 366.676 345.146 367.06 346.15C367.505 347.201 367.869 348.284 368.15 349.39C368.48 350.55 368.32 352.52 366.85 352.84C366.372 352.896 365.888 352.809 365.46 352.59C362.51 351.45 359.63 350.13 356.61 349.17C354.022 348.212 351.312 347.623 348.56 347.42C349.185 346.457 349.498 345.325 349.455 344.177C349.412 343.03 349.016 341.924 348.32 341.01C347.728 340.463 346.98 340.113 346.18 340.01C346.94 339.67 347.65 339.23 348.38 338.82C349.739 337.87 351.404 337.46 353.05 337.67C354.31 337.94 355.27 338.94 356.34 339.67C358.38 341 360.35 340.91 362.68 341.69Z" fill="#263238"/>
<path d="M295.29 346C297.92 345.19 302.12 344.47 314.58 343.83C327.04 343.19 344.09 340.39 344.09 340.39C346.99 343.18 346.03 347.56 346.03 347.56C346.03 347.56 323.9 354.56 316.69 355.49C305.21 356.97 301.25 356.86 296.07 355.75C290.25 354.5 286.58 348.67 295.29 346Z" fill="#2E3192"/>
<path d="M340.829 286.65L350.189 309.02L343.489 313.14L330.609 291.33L340.829 286.65Z" fill="#F28F8F"/>
<path d="M321.47 265.57C326.59 265.63 332.22 267.49 334.16 271.5L342.16 288C342.16 288 337.64 294.62 330.46 294.15L321.47 265.57Z" fill="#E0E0E0"/>
<path d="M287.43 300.34C287.49 299.47 288.74 295.22 290.08 290.64L299.8 294L297.19 302.23L289 310C287.226 307.112 286.662 303.641 287.43 300.34Z" fill="#FFA8A7"/>
<path d="M311 265.88C304.9 267.35 296.59 269.26 294.18 275.88C291.77 282.5 288.32 294.19 288.32 294.19C289.66 296.51 297.01 298.43 299.56 297.09L300.76 293.09V317.41C305.53 322.6 329.06 321.27 332.57 310.84V277.71C332.57 272.41 329.63 266.04 321.5 265.57L311 265.88Z" fill="#FAFAFA"/>
<path d="M300.729 293.11L303.789 283.48L300.729 297.42V293.11Z" fill="#E0E0E0"/>
<path d="M308.68 238.77C308.136 238.7 307.584 238.753 307.065 238.927C306.545 239.1 306.072 239.388 305.68 239.77C304.39 241.09 304.68 243.53 305.68 249.13L309.68 249.58L308.68 238.77Z" fill="#263238"/>
<path d="M331.89 237.15C332.747 237.154 333.594 236.98 334.38 236.64C335.6 235.94 335.92 237.33 335.25 238.53C334.807 239.395 334.15 240.133 333.341 240.672C332.533 241.211 331.599 241.534 330.63 241.61C330.63 241.44 329.49 238.5 329.49 238.5L331.89 237.15Z" fill="#263238"/>
<path d="M310.55 249.64C309.96 249.99 309.11 248.86 308.38 248.09C308.094 247.763 307.728 247.513 307.319 247.366C306.91 247.219 306.47 247.179 306.04 247.249C305.611 247.319 305.207 247.497 304.865 247.767C304.524 248.036 304.257 248.389 304.09 248.79C302.88 251.34 305.63 254.73 307.24 255.85C307.692 256.24 308.255 256.476 308.849 256.527C309.444 256.577 310.039 256.438 310.55 256.13L310.97 265.88C311.683 267.443 312.772 268.804 314.141 269.842C315.509 270.881 317.113 271.564 318.81 271.83C324.53 272.6 323.35 267.88 321.47 265.57V262C322.902 262.306 324.374 262.38 325.83 262.22C326.57 262.02 328.35 259.87 329.5 257.46C330.79 254.76 332.94 249.96 331.03 241.83C328.97 233.11 319.6 232.83 314.03 236.36C308.46 239.89 310.55 249.64 310.55 249.64Z" fill="#FFA8A7"/>
<path d="M310.55 250.63C310.25 250.63 309.12 248.76 308.38 248.09C307.38 247.16 308.68 238.77 308.68 238.77C308.68 238.77 307.68 235.58 309.68 233.47C311.68 231.36 315.6 231.71 318.46 231.61C321.964 231.629 325.435 230.932 328.66 229.56C332.72 227.8 333.02 227.56 333.52 229.37C334.02 231.18 334.22 235.23 331.8 237.96L330.48 240.11C330.48 240.11 329.25 241.11 325.48 241.61C321.71 242.11 315.25 240.04 314.48 239.93C313.38 239.78 313.15 240.84 312.56 243.74C312 246.29 311.55 250.61 310.55 250.63Z" fill="#263238"/>
<path d="M308.689 239.42L305.109 237.5C305.227 237.262 305.391 237.05 305.592 236.876C305.792 236.702 306.026 236.57 306.278 236.487C306.53 236.404 306.796 236.372 307.061 236.394C307.326 236.415 307.583 236.488 307.819 236.61C308.296 236.878 308.652 237.319 308.814 237.842C308.976 238.365 308.931 238.929 308.689 239.42Z" fill="#263238"/>
<path d="M321.46 262C321.46 262 316.16 260.93 314.31 260C313.221 259.429 312.329 258.544 311.75 257.46C312.031 258.548 312.528 259.568 313.21 260.46C314.56 262.19 321.46 263.46 321.46 263.46V262Z" fill="#F28F8F"/>
<path d="M321.63 249.44C321.622 249.648 321.553 249.849 321.432 250.018C321.311 250.187 321.143 250.317 320.949 250.391C320.754 250.465 320.543 250.48 320.34 250.435C320.137 250.39 319.952 250.286 319.807 250.136C319.663 249.986 319.566 249.797 319.528 249.593C319.491 249.388 319.514 249.177 319.595 248.986C319.676 248.795 319.812 248.631 319.985 248.517C320.159 248.402 320.362 248.34 320.57 248.34C320.712 248.343 320.852 248.373 320.982 248.43C321.112 248.487 321.229 248.569 321.328 248.671C321.426 248.773 321.504 248.893 321.555 249.025C321.607 249.158 321.633 249.299 321.63 249.44Z" fill="#263238"/>
<path d="M320.51 245.44L318.23 246.69C318.072 246.377 318.039 246.016 318.138 245.68C318.236 245.344 318.459 245.058 318.76 244.88C318.911 244.798 319.077 244.747 319.248 244.731C319.419 244.715 319.591 244.733 319.755 244.786C319.919 244.838 320.07 244.923 320.2 245.035C320.329 245.148 320.435 245.285 320.51 245.44Z" fill="#263238"/>
<path d="M321 256.54L323.43 257.46C323.376 257.622 323.29 257.772 323.177 257.9C323.064 258.029 322.927 258.134 322.773 258.208C322.62 258.283 322.452 258.326 322.282 258.335C322.111 258.344 321.94 258.318 321.78 258.26C321.452 258.13 321.188 257.878 321.042 257.557C320.897 257.237 320.881 256.872 321 256.54Z" fill="#F28F8F"/>
<path d="M331.1 246.32L329.03 244.72C329.128 244.581 329.254 244.464 329.398 244.374C329.543 244.285 329.704 244.226 329.873 244.201C330.041 244.176 330.212 244.185 330.377 244.228C330.542 244.27 330.696 244.346 330.83 244.45C331.107 244.668 331.289 244.983 331.339 245.331C331.389 245.679 331.304 246.033 331.1 246.32Z" fill="#263238"/>
<path d="M330.46 249.14C330.452 249.348 330.383 249.549 330.262 249.718C330.141 249.887 329.973 250.016 329.779 250.09C329.584 250.165 329.373 250.18 329.17 250.135C328.967 250.089 328.782 249.985 328.638 249.836C328.493 249.686 328.396 249.497 328.358 249.293C328.321 249.088 328.344 248.877 328.425 248.686C328.506 248.494 328.642 248.331 328.816 248.216C328.989 248.101 329.192 248.04 329.4 248.04C329.542 248.043 329.682 248.073 329.812 248.13C329.942 248.187 330.059 248.268 330.158 248.37C330.256 248.473 330.334 248.593 330.386 248.725C330.437 248.857 330.463 248.998 330.46 249.14Z" fill="#263238"/>
<path d="M325.46 249.01L324.46 255.33L327.96 254.92L325.46 249.01Z" fill="#F28F8F"/>
<path d="M361.939 320.78L340.389 308.34C340.201 308.232 339.987 308.176 339.769 308.176C339.552 308.176 339.338 308.232 339.149 308.34L301.359 330.16L323.519 343L361.939 320.78Z" fill="#37474F"/>
<path d="M323.32 341.13L311.7 334.43L345.68 314.81L357.36 321.48L323.32 341.13Z" fill="#263238"/>
<path d="M317.609 322.49L317.829 322.61L323.519 325.9L333.649 320.05L333.859 319.93L327.949 316.52L317.609 322.49Z" fill="#263238"/>
<path d="M317.83 322.61L323.52 325.9L333.65 320.05L327.95 316.76L317.83 322.61Z" fill="#263238"/>
<path d="M301.359 330.16V330.67C301.357 331.031 301.447 331.386 301.622 331.702C301.798 332.017 302.052 332.282 302.359 332.47L322.439 344.06C322.755 344.244 323.114 344.34 323.479 344.34C323.845 344.34 324.204 344.244 324.519 344.06L360.859 323.06C361.167 322.871 361.42 322.606 361.595 322.291C361.77 321.976 361.861 321.621 361.859 321.26V320.75L323.519 343L301.359 330.16Z" fill="#263238"/>
<path d="M323.52 343V344.38C323.872 344.376 324.217 344.28 324.52 344.1L360.86 323.1C361.167 322.911 361.42 322.646 361.595 322.331C361.77 322.016 361.861 321.661 361.86 321.3V320.79L323.52 343Z" fill="#263238"/>
<path d="M324.109 343.27C324.453 343.402 324.822 343.454 325.189 343.425C325.555 343.396 325.911 343.285 326.229 343.1L362.409 322.21C362.723 322.03 362.993 321.782 363.199 321.485C363.405 321.187 363.542 320.847 363.599 320.49L367.599 296.88C367.609 296.744 367.609 296.607 367.599 296.47C367.597 295.813 367.335 295.184 366.869 294.72L329.269 316.43C329.038 316.564 328.839 316.747 328.687 316.967C328.535 317.186 328.433 317.437 328.389 317.7L324.109 343.27Z" fill="#263238"/>
<path d="M323.52 343L323.77 343.14C323.88 343.203 323.993 343.26 324.11 343.31L328.39 317.74C328.433 317.477 328.535 317.226 328.687 317.007C328.839 316.787 329.038 316.604 329.27 316.47L366.87 294.76C366.716 294.617 366.548 294.49 366.37 294.38L328.7 316.09C328.467 316.224 328.267 316.407 328.113 316.626C327.96 316.846 327.856 317.096 327.81 317.36L323.52 343Z" fill="#455A64"/>
<path d="M344.48 321.46C345.049 319.486 346.356 317.807 348.13 316.77C349.88 315.77 351.08 316.22 350.82 317.77C350.25 319.744 348.943 321.424 347.17 322.46C345.42 323.51 344.22 323 344.48 321.46Z" fill="#37474F"/>
<path d="M297.19 302.21C297.19 302.21 303.68 327.21 306.42 329C309.16 330.79 314.26 332.1 316.7 333C319.14 333.9 320.25 335.13 319.83 335.47C319.41 335.81 315.89 336.18 314.67 336.61C313.45 337.04 315.03 339.01 317.73 341.1C320.43 343.19 322.73 343 322.43 344.39C322.13 345.78 316.11 347.17 311.03 344.19C305.95 341.21 304.41 337.19 301.38 333.78C298.35 330.37 291.43 316.2 289 310C289 310 289.23 298.48 293 299.21C296.77 299.94 297.19 302.21 297.19 302.21Z" fill="#FFA8A7"/>
<path d="M328.07 352.87C328.53 353.98 330.12 357.04 333.66 356.87L342.36 348.73L328.07 352.87Z" fill="#2E3192"/>
<path opacity="0.1" d="M328.07 352.87C328.53 353.98 330.12 357.04 333.66 356.87L342.36 348.73L328.07 352.87Z" fill="black"/>
<path d="M333.32 357.84C333.324 357.877 333.324 357.914 333.32 357.95C333.324 357.914 333.324 357.877 333.32 357.84Z" fill="#263238"/>
<path d="M330.699 367.19C330.616 364.572 331.047 361.962 331.969 359.51C331.551 359.803 331.067 359.99 330.561 360.056C330.054 360.122 329.539 360.065 329.059 359.89C326.149 359.02 325.419 354.96 325.879 354.08C325.459 354.45 325.019 354.8 324.589 355.16C323.21 356.086 322.229 357.495 321.839 359.11C321.639 360.38 322.229 361.63 322.519 362.89C323.079 365.29 322.519 367.79 322.429 370.25C322.45 371.324 322.69 372.382 323.135 373.359C323.581 374.336 324.222 375.211 325.019 375.93C325.839 376.73 326.722 377.462 327.659 378.12C328 378.504 328.452 378.772 328.952 378.888C329.452 379.004 329.976 378.962 330.451 378.767C330.926 378.573 331.329 378.236 331.605 377.803C331.88 377.371 332.015 376.863 331.989 376.35C331.609 373.23 330.879 370.44 330.699 367.19Z" fill="#263238"/>
<path d="M334 356.35C333.73 356.86 333.49 357.35 333.28 357.84C333.53 357.36 333.77 356.86 334 356.35Z" fill="#37474F"/>
<path d="M325.859 354.08L326.049 353.91L325.859 354.08Z" fill="#37474F"/>
</svg>
