<svg width="500" height="500" viewBox="0 0 500 500" fill="none" xmlns="http://www.w3.org/2000/svg">
<path d="M250 476.36C374.27 476.36 475.01 418.197 475.01 346.45C475.01 274.703 374.27 216.54 250 216.54C125.731 216.54 24.9902 274.703 24.9902 346.45C24.9902 418.197 125.731 476.36 250 476.36Z" fill="#F5F5F5"/>
<path d="M366.03 410.52C396.168 410.52 420.6 396.413 420.6 379.01C420.6 361.608 396.168 347.5 366.03 347.5C335.892 347.5 311.46 361.608 311.46 379.01C311.46 396.413 335.892 410.52 366.03 410.52Z" fill="#E6E6E6"/>
<path d="M157.05 35.8198C147.97 30.5698 135.43 31.3098 121.57 39.3098C93.8797 55.3098 71.4197 94.1998 71.4297 126.19C71.4297 142.24 77.0897 153.49 86.2197 158.7C88.5997 160.06 98.0497 165.52 100.45 166.91C109.52 172.15 122.06 171.4 135.91 163.41C163.6 147.41 186.06 108.52 186.06 76.5298C186.06 60.5298 180.44 49.3298 171.38 44.0898" fill="#B72851"/>
<path opacity="0.2" d="M71.4297 126.189C71.4297 142.239 77.0897 153.489 86.2197 158.699C88.5997 160.059 98.0497 165.519 100.45 166.909C109.52 172.149 122.05 171.399 135.9 163.409L71.4297 126.189Z" fill="black"/>
<path opacity="0.1" d="M78.7397 91.8301C74.0997 103.29 71.4297 115.15 71.4297 126.19L135.9 163.41C145.46 157.89 154.39 149.64 161.99 139.89L78.7397 91.8301Z" fill="black"/>
<path opacity="0.4" d="M161.999 139.89C176.419 121.39 186.059 97.4798 186.059 76.5298C186.059 60.5298 180.439 49.3298 171.379 44.0898L157.049 35.8198C147.969 30.5698 135.429 31.3098 121.569 39.3098C103.439 49.7898 87.5693 70.0798 78.7393 91.8298L161.999 139.89Z" fill="white"/>
<path d="M135.9 47.5794C108.21 63.5794 85.75 102.469 85.75 134.449C85.75 166.429 108.21 179.449 135.91 163.449C163.61 147.449 186.08 108.559 186.06 76.5694C186.04 44.5794 163.57 31.5894 135.9 47.5794Z" fill="#B72851"/>
<path d="M135.899 55.8097C112.139 69.5297 92.8994 102.9 92.8994 130.33C92.8994 157.76 112.169 168.89 135.899 155.18C159.629 141.47 178.899 108.09 178.899 80.6497C178.899 53.2097 159.659 42.0897 135.899 55.8097Z" fill="#FAFAFA"/>
<path d="M135.9 63.9993C116.08 75.4893 100 103.329 100 126.219C100 149.109 116.07 158.389 135.9 146.939C155.73 135.489 171.79 107.659 171.79 84.7693C171.79 61.8793 155.73 52.5893 135.9 63.9993Z" fill="#B72851"/>
<path d="M135.9 72.2701C120.01 81.4501 107.14 103.76 107.14 122.1C107.14 140.44 120.02 147.89 135.91 138.71C151.8 129.53 164.67 107.23 164.67 88.8801C164.67 70.5301 151.79 63.1001 135.9 72.2701Z" fill="#FAFAFA"/>
<path d="M135.9 80.5C123.9 87.4 114.26 104.19 114.27 117.99C114.28 131.79 123.96 137.38 135.91 130.48C147.86 123.58 157.54 106.8 157.54 93C157.54 79.2 147.85 73.6 135.9 80.5Z" fill="#B72851"/>
<path d="M135.9 88.7398C127.9 93.3598 121.39 104.62 121.39 113.87C121.39 123.12 127.89 126.87 135.91 122.25C143.93 117.63 150.42 106.37 150.42 97.1098C150.42 87.8498 143.92 84.1098 135.9 88.7398Z" fill="#FAFAFA"/>
<path d="M135.9 97.0001C133.751 98.4024 131.963 100.291 130.681 102.513C129.399 104.735 128.659 107.228 128.52 109.79C128.52 114.49 131.83 116.4 135.91 114.05C138.057 112.647 139.844 110.758 141.126 108.536C142.408 106.314 143.149 103.821 143.29 101.26C143.29 96.5201 140 94.6101 135.9 97.0001Z" fill="#B72851"/>
<path d="M248 162.15L231.63 155.36L221.5 154.88V156.72L237 165.68L248 163.98V162.15Z" fill="#B72851"/>
<path d="M221.5 154.88L231.63 155.36L248 162.15L237 163.85L221.5 154.88Z" fill="#B72851"/>
<path opacity="0.2" d="M237 165.679V163.849L248 162.149V163.979L237 165.679Z" fill="black"/>
<path opacity="0.1" d="M237 163.85L221.5 154.88V156.72L237 165.68V163.85Z" fill="black"/>
<path d="M151.76 105.839L133.67 102.359V105.839L137.69 117.449L143.75 111.649L151.76 109.329V105.839Z" fill="#37474F"/>
<path d="M133.67 102.359L137.69 113.969L143.75 108.159L151.76 105.839L133.67 102.359Z" fill="#455A64"/>
<path d="M137.689 113.97V117.45L143.749 111.65V108.16L137.689 113.97Z" fill="#263238"/>
<path d="M143.75 108.16L151.76 105.84V109.33L143.75 111.65V108.16Z" fill="#263238"/>
<path d="M144.829 108.16C144.641 108.058 144.427 108.012 144.213 108.026C143.999 108.04 143.793 108.114 143.619 108.24C143.132 108.564 142.727 108.998 142.437 109.507C142.147 110.016 141.98 110.585 141.949 111.17C141.926 111.383 141.96 111.598 142.048 111.793C142.136 111.988 142.275 112.157 142.449 112.28L244.809 171.45L247.139 167.29L144.829 108.16Z" fill="#455A64"/>
<path d="M142.319 109.729C142.091 110.176 141.964 110.668 141.949 111.169C141.926 111.382 141.96 111.597 142.048 111.793C142.136 111.988 142.275 112.156 142.449 112.279L244.809 171.449L245.859 169.589L142.319 109.729Z" fill="#37474F"/>
<path d="M245.999 167.409C245.508 167.729 245.1 168.16 244.808 168.667C244.516 169.175 244.348 169.745 244.319 170.329C244.319 171.419 245.069 171.859 245.999 171.329C246.489 171.007 246.895 170.574 247.185 170.065C247.476 169.555 247.641 168.985 247.669 168.399C247.639 167.319 246.889 166.869 245.999 167.409Z" fill="#263238"/>
<path d="M235.91 166.32V166.31V164.47L220.41 155.51V157.35L221.24 163.2L232.96 172.67L235.91 166.32Z" fill="#B72851"/>
<path opacity="0.2" d="M220.41 155.51L221.24 161.35V163.19L220.41 157.35V155.51Z" fill="black"/>
<path opacity="0.2" d="M235.91 164.47L232.96 170.82V172.66L235.91 166.31V164.47Z" fill="black"/>
<path opacity="0.1" d="M221.239 161.35L232.959 170.82V172.66L221.239 163.19V161.35Z" fill="black"/>
<path d="M72.3998 225.93L98.8598 210.65C100.132 210.004 101.538 209.668 102.965 209.668C104.391 209.668 105.798 210.004 107.07 210.65L110.41 212.58C111.606 213.361 112.602 214.412 113.316 215.649C114.03 216.886 114.442 218.274 114.52 219.7V250.24C114.444 251.665 114.032 253.052 113.318 254.288C112.603 255.524 111.607 256.573 110.41 257.35L83.9998 272.63C82.7277 273.276 81.3213 273.612 79.8948 273.612C78.4683 273.612 77.0619 273.276 75.7898 272.63L72.3998 270.7C71.2056 269.921 70.2119 268.871 69.4996 267.635C68.7872 266.4 68.3762 265.014 68.2998 263.59V233C68.3815 231.583 68.7951 230.205 69.5073 228.977C70.2195 227.748 71.2103 226.705 72.3998 225.93Z" fill="#2E3192"/>
<path d="M114.52 219.7C114.52 217.08 112.68 216.02 110.41 217.32L83.9996 232.6C82.8036 233.378 81.808 234.427 81.0938 235.663C80.3797 236.898 79.9671 238.285 79.8896 239.71V270.26C79.8896 272.88 81.7296 273.94 83.9996 272.63L110.45 257.35C111.647 256.573 112.643 255.523 113.358 254.288C114.072 253.052 114.484 251.665 114.56 250.24L114.52 219.7Z" fill="#2E3192"/>
<path opacity="0.1" d="M68.2998 263.59C68.3706 265.015 68.7793 266.403 69.4921 267.64C70.205 268.876 71.2017 269.925 72.3998 270.7L75.7498 272.63C76.9065 273.214 78.1739 273.546 79.4684 273.605C80.7628 273.664 82.055 273.447 83.2598 272.97C81.3198 273.7 79.8498 272.61 79.8498 270.26V239.72C79.9001 238.29 80.313 236.896 81.0498 235.67L69.4998 229C68.7695 230.211 68.3567 231.587 68.2998 233V263.59Z" fill="black"/>
<path opacity="0.4" d="M114.47 219C114.16 216.91 112.47 216.15 110.41 217.34L84 232.6C82.7808 233.354 81.7782 234.412 81.09 235.67L69.5 229C70.1879 227.748 71.1867 226.694 72.4 225.94L98.86 210.66C100.132 210.014 101.538 209.678 102.965 209.678C104.392 209.678 105.798 210.014 107.07 210.66L110.41 212.6C111.503 213.316 112.431 214.258 113.131 215.361C113.831 216.465 114.288 217.706 114.47 219Z" fill="white"/>
<path d="M103 247.71C104.77 243.761 105.674 239.478 105.65 235.15C106.517 233.812 107.244 232.388 107.82 230.9C107.079 231.773 106.244 232.561 105.33 233.25C106.251 231.958 106.901 230.491 107.24 228.94C106.444 230.048 105.517 231.055 104.48 231.94C104.021 231.598 103.463 231.413 102.89 231.413C102.317 231.413 101.759 231.598 101.3 231.94C98.4999 233.56 96.4299 238.25 97.0699 241.51C93.4499 243.35 90.2499 242.9 88.0699 240.62C86.9299 243.89 87.4799 246.98 89.4199 247.62C88.8183 247.978 88.1137 248.123 87.4199 248.03C87.4199 250.75 88.8199 252.42 90.9099 251.78C90.3645 252.315 89.7141 252.73 88.9999 253C89.5599 255 91.1599 255.73 93.0699 254.68C91.5875 257.322 89.3431 259.454 86.6299 260.8C87.7671 261.049 88.9428 261.067 90.0869 260.852C91.2311 260.637 92.3203 260.195 93.2899 259.55C97.5899 257.07 100.9 252.55 103 247.73" fill="white"/>
<path d="M209.43 225.93L235.89 210.65C237.162 210.004 238.568 209.668 239.995 209.668C241.421 209.668 242.828 210.004 244.1 210.65L247.44 212.58C248.636 213.361 249.632 214.412 250.346 215.649C251.06 216.886 251.472 218.274 251.55 219.7V250.24C251.474 251.665 251.062 253.052 250.348 254.288C249.633 255.524 248.637 256.573 247.44 257.35L221 272.63C219.728 273.276 218.321 273.612 216.895 273.612C215.468 273.612 214.062 273.276 212.79 272.63L209.44 270.7C208.246 269.921 207.252 268.871 206.54 267.635C205.827 266.4 205.416 265.014 205.34 263.59V233C205.42 231.584 205.833 230.206 206.543 228.978C207.253 227.75 208.242 226.706 209.43 225.93Z" fill="#2E3192"/>
<path d="M251.55 219.7C251.55 217.08 249.71 216.02 247.44 217.33L221 232.6C219.804 233.378 218.808 234.428 218.094 235.663C217.38 236.899 216.967 238.285 216.89 239.71V270.26C216.89 272.88 218.73 273.94 221 272.63L247.45 257.36C248.646 256.58 249.641 255.528 250.356 254.291C251.07 253.054 251.482 251.666 251.56 250.24L251.55 219.7Z" fill="#2E3192"/>
<path opacity="0.4" d="M251.5 219C251.19 216.91 249.5 216.15 247.44 217.34L221 232.6C219.781 233.354 218.778 234.412 218.09 235.67L206.53 229C207.218 227.748 208.217 226.694 209.43 225.94L235.89 210.66C237.162 210.014 238.569 209.678 239.995 209.678C241.422 209.678 242.828 210.014 244.1 210.66L247.44 212.6C248.534 213.316 249.461 214.258 250.162 215.361C250.862 216.465 251.318 217.706 251.5 219Z" fill="white"/>
<path opacity="0.1" d="M205.33 263.59C205.406 265.014 205.817 266.4 206.53 267.635C207.242 268.871 208.236 269.921 209.43 270.7L212.78 272.63C213.938 273.21 215.206 273.539 216.5 273.596C217.794 273.653 219.085 273.436 220.29 272.96C218.35 273.69 216.88 272.6 216.88 270.26V239.71C216.93 238.28 217.343 236.886 218.08 235.66L206.53 229C205.801 230.212 205.389 231.587 205.33 233V263.59Z" fill="black"/>
<path d="M209.43 317.13L235.89 301.86C237.162 301.214 238.568 300.878 239.995 300.878C241.421 300.878 242.828 301.214 244.1 301.86L247.44 303.79C248.636 304.568 249.632 305.618 250.346 306.853C251.06 308.089 251.472 309.475 251.55 310.9V341.45C251.472 342.875 251.059 344.261 250.345 345.496C249.631 346.732 248.635 347.781 247.44 348.56L221 363.83C219.728 364.476 218.321 364.812 216.895 364.812C215.468 364.812 214.062 364.476 212.79 363.83L209.44 361.9C208.245 361.121 207.251 360.071 206.539 358.836C205.826 357.6 205.415 356.214 205.34 354.79V324.24C205.414 322.817 205.823 321.431 206.534 320.196C207.245 318.96 208.237 317.91 209.43 317.13Z" fill="#2E3192"/>
<path d="M251.55 310.9C251.55 308.28 249.71 307.22 247.44 308.53L221 323.8C219.804 324.579 218.809 325.629 218.095 326.864C217.381 328.099 216.968 329.486 216.89 330.91V361.46C216.89 364.08 218.73 365.14 221 363.83L247.45 348.56C248.646 347.782 249.641 346.733 250.355 345.497C251.07 344.262 251.482 342.875 251.56 341.45L251.55 310.9Z" fill="#2E3192"/>
<path d="M231.41 347.4C232.003 346.86 232.506 346.229 232.9 345.53C233.87 343.785 234.389 341.826 234.41 339.83C234.462 338.912 234.287 337.995 233.9 337.16C233.766 336.875 233.549 336.636 233.279 336.474C233.008 336.312 232.695 336.234 232.38 336.25C232.78 335.711 233.116 335.127 233.38 334.51C233.798 333.45 234.006 332.319 233.99 331.18C234.045 330.228 233.834 329.279 233.38 328.44C232.71 327.44 231.58 327.36 229.97 328.25L223.62 331.92V352.17L229.54 348.75C230.208 348.365 230.834 347.913 231.41 347.4ZM226.25 333.92L229.11 332.27C229.578 331.965 230.107 331.767 230.66 331.69C231.14 331.69 231.37 332.21 231.37 333.15C231.4 333.883 231.215 334.61 230.84 335.24C230.485 335.776 230.009 336.221 229.45 336.54L226.25 338.39V333.92ZM226.25 347.14V341.74L229.49 339.87C229.875 339.602 230.331 339.456 230.8 339.45C231.36 339.53 231.64 340.09 231.64 341.14C231.684 342.208 231.379 343.262 230.77 344.14C230.411 344.603 229.957 344.985 229.44 345.26L226.25 347.14Z" fill="white"/>
<path d="M236.64 343.32C237.16 343.642 237.764 343.801 238.375 343.777C238.985 343.754 239.576 343.55 240.07 343.19C241.72 342.187 243.003 340.679 243.73 338.89C244.226 337.868 244.543 336.769 244.67 335.64L242.07 337.14C241.946 337.602 241.772 338.048 241.55 338.47C241.233 339.095 240.744 339.616 240.14 339.97C239.941 340.116 239.712 340.215 239.469 340.258C239.226 340.302 238.977 340.289 238.74 340.22C238.073 339.98 237.74 339.12 237.74 337.64L244.82 333.55C244.844 332.576 244.817 331.602 244.74 330.63C244.673 329.701 244.407 328.798 243.96 327.98C243.802 327.652 243.567 327.368 243.274 327.152C242.981 326.935 242.64 326.794 242.28 326.74C241.473 326.695 240.673 326.912 240 327.36C238.444 328.325 237.227 329.751 236.52 331.44C235.578 333.56 235.121 335.862 235.18 338.18C235.167 340.954 235.653 342.667 236.64 343.32ZM238.46 332.32C238.767 331.595 239.3 330.988 239.98 330.59C240.193 330.423 240.453 330.326 240.724 330.313C240.994 330.301 241.262 330.373 241.49 330.52C241.737 330.787 241.925 331.103 242.04 331.448C242.156 331.793 242.197 332.159 242.16 332.52L237.78 335C237.851 334.075 238.082 333.168 238.46 332.32Z" fill="white"/>
<path d="M242.67 322.09L236.95 325.39V327.43L242.67 324.13V322.09Z" fill="white"/>
<path opacity="0.4" d="M251.5 310.19C251.19 308.1 249.5 307.35 247.44 308.53L221 323.8C219.781 324.554 218.778 325.612 218.09 326.87L206.54 320.19C207.231 318.94 208.229 317.886 209.44 317.13L235.9 301.85C237.173 301.209 238.579 300.875 240.005 300.875C241.431 300.875 242.837 301.209 244.11 301.85L247.45 303.79C248.542 304.507 249.467 305.449 250.166 306.553C250.864 307.656 251.319 308.896 251.5 310.19Z" fill="white"/>
<path opacity="0.1" d="M205.33 354.79C205.406 356.215 205.816 357.601 206.529 358.836C207.241 360.072 208.235 361.122 209.43 361.9L212.78 363.83C213.938 364.413 215.205 364.744 216.5 364.8C217.794 364.857 219.086 364.639 220.29 364.16C218.35 364.89 216.88 363.8 216.88 361.46V330.91C216.936 329.497 217.349 328.121 218.08 326.91L206.53 320.23C205.793 321.457 205.38 322.851 205.33 324.28V354.79Z" fill="black"/>
<path d="M182.14 338.51C182.062 337.087 181.65 335.701 180.938 334.466C180.226 333.231 179.233 332.181 178.04 331.4L174.69 329.47C173.418 328.825 172.011 328.488 170.585 328.488C169.158 328.488 167.752 328.825 166.48 329.47L140 344.74C138.803 345.521 137.808 346.572 137.094 347.809C136.38 349.046 135.967 350.434 135.89 351.86V382.4C135.967 383.827 136.38 385.215 137.094 386.452C137.808 387.689 138.803 388.74 140 389.52L143.34 391.45C144.613 392.091 146.019 392.425 147.445 392.425C148.87 392.425 150.276 392.091 151.55 391.45L178 376.17C179.193 375.39 180.186 374.34 180.898 373.104C181.61 371.869 182.022 370.484 182.1 369.06L182.14 338.51Z" fill="#2E3192"/>
<path opacity="0.55" d="M135.92 382.41C135.997 383.834 136.41 385.221 137.124 386.456C137.838 387.692 138.834 388.741 140.03 389.52L143.37 391.45C144.527 392.035 145.794 392.367 147.089 392.423C148.384 392.48 149.676 392.261 150.88 391.78C148.95 392.51 147.48 391.42 147.48 389.08V358.53C147.535 357.115 147.951 355.738 148.69 354.53L137.13 347.85C136.393 349.076 135.98 350.47 135.93 351.9L135.92 382.41Z" fill="black"/>
<path opacity="0.45" d="M182.139 338.49C182.139 335.87 180.299 334.81 178.039 336.12L151.579 351.39C150.385 352.171 149.39 353.223 148.678 354.46C147.966 355.697 147.555 357.085 147.479 358.51V389.05C147.479 391.72 149.309 392.75 151.579 391.45L177.999 376.15C179.194 375.371 180.188 374.321 180.901 373.086C181.613 371.851 182.024 370.464 182.1 369.04L182.139 338.49Z" fill="black"/>
<path opacity="0.35" d="M182.09 337.801C181.78 335.721 180.09 334.961 178.03 336.141L151.59 351.411C150.371 352.165 149.368 353.223 148.68 354.481L137.13 347.811C137.815 346.556 138.814 345.502 140.03 344.751L166.48 329.471C167.754 328.825 169.162 328.488 170.59 328.488C172.018 328.488 173.426 328.825 174.7 329.471L178 331.401C179.098 332.114 180.032 333.054 180.737 334.158C181.442 335.262 181.904 336.504 182.09 337.801Z" fill="black"/>
<path d="M159.12 369.58C159.37 369.58 159.6 369.31 159.67 368.83C159.72 368.5 159.84 367.67 159.9 367.33C159.96 366.99 159.9 366.72 159.74 366.47C159.17 365.605 158.913 364.571 159.01 363.54C159.01 359.22 161.1 354.13 164.47 352.19C167.47 350.47 169.09 352.33 169.09 356.08C169.09 361.01 167.68 365.98 165.57 367.2C164.41 367.87 163.57 366.89 163.82 364.92C164.15 362.56 164.82 359.85 164.82 358.28C164.82 356.88 164.33 356 163.32 356.58C162.13 357.27 161.18 359.71 161.18 362.24C161.152 363.091 161.274 363.941 161.54 364.75C161.54 364.75 160.32 373.38 160.11 374.89C159.865 377.057 159.865 379.244 160.11 381.41C160.11 381.6 160.3 381.55 160.38 381.35C161.257 379.168 161.927 376.908 162.38 374.6C162.52 373.76 163.16 369.45 163.16 369.45C163.55 370.36 164.68 370.7 165.88 370.01C169.45 367.95 171.88 361.54 171.88 354.83C171.88 349.76 169.09 346.65 164.88 349.1C159.6 352.1 156.94 359.5 156.94 364.36C156.84 367.3 157.56 369.5 159.12 369.58Z" fill="white"/>
<path d="M72.3998 317.13L98.8598 301.86C100.132 301.214 101.538 300.878 102.965 300.878C104.391 300.878 105.798 301.214 107.07 301.86L110.41 303.79C111.606 304.568 112.601 305.618 113.316 306.853C114.03 308.089 114.442 309.475 114.52 310.9V341.45C114.442 342.875 114.029 344.261 113.315 345.496C112.6 346.732 111.605 347.781 110.41 348.56L83.9998 363.83C82.7277 364.476 81.3213 364.812 79.8948 364.812C78.4683 364.812 77.0619 364.476 75.7898 363.83L72.3998 361.9C71.205 361.121 70.211 360.071 69.4985 358.836C68.7861 357.6 68.3754 356.214 68.2998 354.79V324.24C68.3754 322.816 68.7861 321.43 69.4985 320.194C70.211 318.959 71.205 317.909 72.3998 317.13Z" fill="#2E3192"/>
<path opacity="0.1" d="M68.2998 354.79C68.3754 356.216 68.786 357.603 69.4984 358.84C70.2108 360.078 71.2048 361.129 72.3998 361.91L75.7498 363.84C76.908 364.42 78.1755 364.749 79.4696 364.806C80.7637 364.863 82.0552 364.646 83.2598 364.17C81.3198 364.9 79.8498 363.81 79.8498 361.47V330.92C79.9001 329.49 80.313 328.097 81.0498 326.87L69.4998 320.2C68.763 321.427 68.3501 322.82 68.2998 324.25V354.79Z" fill="black"/>
<path d="M114.52 310.91C114.52 308.29 112.68 307.23 110.41 308.54L83.9996 323.81C82.8041 324.589 81.809 325.638 81.0949 326.874C80.3808 328.109 79.9679 329.495 79.8896 330.92V361.47C79.8896 364.09 81.7296 365.15 83.9996 363.84L110.45 348.57C111.645 347.791 112.64 346.742 113.354 345.506C114.068 344.271 114.481 342.885 114.56 341.46L114.52 310.91Z" fill="#2E3192"/>
<path opacity="0.4" d="M114.47 310.19C114.16 308.1 112.47 307.35 110.41 308.53L84 323.8C82.7808 324.554 81.7782 325.612 81.09 326.87L69.5 320.19C70.1905 318.94 71.1886 317.886 72.4 317.13L98.86 301.85C100.133 301.209 101.539 300.875 102.965 300.875C104.391 300.875 105.797 301.209 107.07 301.85L110.41 303.79C111.503 304.506 112.431 305.448 113.131 306.551C113.831 307.655 114.288 308.896 114.47 310.19Z" fill="white"/>
<path d="M97.1898 325.1C99.8898 323.53 100.19 323.36 101.28 322.81C101.857 322.467 102.502 322.255 103.17 322.19C103.376 322.167 103.585 322.185 103.784 322.244C103.983 322.302 104.169 322.399 104.33 322.53C104.699 322.806 104.966 323.196 105.09 323.64C105.325 324.387 105.443 325.166 105.44 325.95C105.44 327.35 105.5 327.77 105.5 331.38C105.5 334.99 105.5 335.38 105.44 336.88C105.422 337.793 105.304 338.702 105.09 339.59C104.927 340.287 104.672 340.96 104.33 341.59C104.023 342.204 103.633 342.773 103.17 343.28C102.613 343.88 101.977 344.401 101.28 344.83C100.21 345.51 99.8898 345.71 97.1898 347.27C94.4898 348.83 94.1898 349.01 93.0898 349.56C92.5158 349.901 91.8742 350.113 91.2098 350.18C91.002 350.203 90.7917 350.185 90.5909 350.126C90.3902 350.068 90.2029 349.971 90.0398 349.84C89.6792 349.556 89.414 349.169 89.2798 348.73C89.0448 347.982 88.9267 347.203 88.9298 346.42C88.8798 345.02 88.8698 344.6 88.8698 340.99C88.8698 337.38 88.8698 336.99 88.9298 335.49C88.948 334.576 89.0654 333.668 89.2798 332.78C89.4516 332.085 89.7068 331.413 90.0398 330.78C90.3464 330.163 90.7404 329.594 91.2098 329.09C91.7598 328.487 92.3928 327.965 93.0898 327.54C94.1598 326.86 94.4798 326.66 97.1898 325.1ZM97.1898 322.66C94.4298 324.25 94.0898 324.47 93.0098 325.16C91.1856 326.28 89.7103 327.887 88.7498 329.8C88.2325 330.77 87.8394 331.801 87.5798 332.87C87.2943 334.032 87.1367 335.223 87.1098 336.42C87.1098 337.89 87.0498 338.36 87.0498 342.03C87.0498 345.7 87.0498 346.16 87.1098 347.57C87.1116 348.588 87.2701 349.6 87.5798 350.57C87.7824 351.25 88.1912 351.851 88.7498 352.29C89.2576 352.686 89.8985 352.873 90.5398 352.81C91.4086 352.72 92.2478 352.444 92.9998 352C94.0798 351.44 94.4198 351.26 97.1798 349.67C99.9398 348.08 100.27 347.86 101.36 347.17C103.172 346.039 104.642 344.434 105.61 342.53C106.127 341.56 106.52 340.528 106.78 339.46C107.065 338.294 107.223 337.1 107.25 335.9C107.25 334.43 107.31 333.97 107.31 330.3C107.31 326.63 107.31 326.17 107.25 324.76C107.248 323.742 107.09 322.73 106.78 321.76C106.58 321.078 106.171 320.476 105.61 320.04C105.102 319.643 104.461 319.457 103.82 319.52C102.951 319.596 102.11 319.866 101.36 320.31C100.27 320.87 99.9298 321.05 97.1798 322.64" fill="white"/>
<path d="M97.1895 329.24C94.3095 330.9 91.9795 335.35 91.9795 339.19C91.9795 343.03 94.3095 344.78 97.1895 343.12C100.069 341.46 102.389 337.01 102.389 333.17C102.389 329.33 100.059 327.58 97.1895 329.24ZM97.1895 340.69C95.3195 341.76 93.8095 340.62 93.8095 338.13C93.828 336.864 94.1435 335.62 94.7305 334.498C95.3176 333.376 96.1598 332.407 97.1895 331.67C99.0495 330.6 100.569 331.74 100.569 334.23C100.549 335.496 100.232 336.739 99.6453 337.861C99.0584 338.982 98.2174 339.951 97.1895 340.69Z" fill="white"/>
<path d="M103.81 325.14C103.803 325.594 103.689 326.04 103.479 326.443C103.269 326.846 102.968 327.194 102.6 327.46C101.93 327.85 101.38 327.46 101.38 326.54C101.386 326.084 101.5 325.637 101.712 325.233C101.924 324.83 102.228 324.483 102.6 324.22C103.27 323.83 103.81 324.22 103.81 325.14Z" fill="white"/>
<path d="M182.14 247.36C182.062 245.935 181.651 244.548 180.939 243.311C180.227 242.074 179.234 241.022 178.04 240.24L174.69 238.31C173.418 237.665 172.011 237.328 170.585 237.328C169.158 237.328 167.752 237.665 166.48 238.31L140 253.59C138.804 254.368 137.808 255.418 137.094 256.653C136.38 257.889 135.967 259.275 135.89 260.7V291.25C135.967 292.675 136.38 294.062 137.094 295.297C137.808 296.532 138.804 297.582 140 298.36L143.34 300.29C144.612 300.936 146.018 301.272 147.445 301.272C148.871 301.272 150.278 300.936 151.55 300.29L178 285C179.194 284.218 180.187 283.166 180.899 281.929C181.611 280.692 182.022 279.305 182.1 277.88L182.14 247.36Z" fill="#2E3192"/>
<path opacity="0.55" d="M135.92 291.25C135.997 292.676 136.41 294.064 137.124 295.301C137.838 296.538 138.834 297.59 140.03 298.37L143.37 300.3C144.528 300.88 145.796 301.209 147.09 301.266C148.384 301.323 149.675 301.106 150.88 300.63C148.95 301.36 147.48 300.27 147.48 297.93V267.38C147.529 265.949 147.946 264.554 148.69 263.33L137.13 256.66C136.401 257.872 135.989 259.247 135.93 260.66L135.92 291.25Z" fill="black"/>
<path opacity="0.45" d="M182.139 247.36C182.139 244.74 180.299 243.68 178.039 244.99L151.579 260.26C150.385 261.039 149.391 262.089 148.678 263.324C147.966 264.56 147.555 265.946 147.479 267.37V297.92C147.479 300.54 149.309 301.6 151.579 300.29L177.999 285C179.194 284.219 180.189 283.168 180.901 281.93C181.613 280.693 182.024 279.306 182.1 277.88L182.139 247.36Z" fill="black"/>
<path d="M162.049 289.51L166.46 286.96V272.22L169.539 270.45L169.869 265.32L166.46 267.32V264.51C166.46 263.35 166.64 262.79 167.46 262.3L169.85 260.92V255.8L166.789 257.56C165.285 258.361 164.039 259.573 163.196 261.055C162.353 262.536 161.949 264.227 162.029 265.93V269.87L159.729 271.19V276.19L162.029 274.86L162.049 289.51Z" fill="white"/>
<path opacity="0.35" d="M182.09 246.65C181.78 244.56 180.09 243.8 178.03 244.99L151.59 260.26C150.368 261.012 149.365 262.07 148.68 263.33L137.13 256.65C137.815 255.396 138.814 254.342 140.03 253.59L166.48 238.31C167.754 237.665 169.162 237.328 170.59 237.328C172.018 237.328 173.426 237.665 174.7 238.31L178.03 240.25C179.125 240.965 180.053 241.906 180.754 243.01C181.454 244.114 181.91 245.355 182.09 246.65Z" fill="black"/>
<path d="M371.57 167.6C377.95 167.89 380.99 168.88 384.33 172.81C387.67 176.74 404.33 200.91 404.33 200.91C404.33 200.91 401.38 209.19 394.92 208.48L382.24 193.14L371.57 167.6Z" fill="#FFA8A7"/>
<path d="M370.72 167.61C370.72 167.61 375.3 167.01 378.57 168.19C381.84 169.37 384.39 172.12 386.31 174.66C388.23 177.2 392.31 182.92 392.31 182.92C392.31 182.92 389.26 189.32 380.94 194.14L370.72 167.61Z" fill="#E0E0E0"/>
<path d="M363.12 160.65H360.91C355.499 160.65 350.309 158.501 346.481 154.676C342.654 150.85 340.503 145.661 340.5 140.25C340.5 135.012 342.581 129.988 346.285 126.285C349.988 122.581 355.012 120.5 360.25 120.5H363.77C369.008 120.5 374.032 122.581 377.735 126.285C381.439 129.988 383.52 135.012 383.52 140.25C383.517 145.66 381.367 150.847 377.542 154.672C373.717 158.497 368.53 160.647 363.12 160.65Z" fill="#263238"/>
<path d="M341.85 182.86C345.362 182.857 348.73 181.46 351.212 178.976C353.695 176.491 355.09 173.123 355.09 169.61V156.37C351.578 156.37 348.21 157.765 345.728 160.248C343.245 162.731 341.85 166.099 341.85 169.61V182.86Z" fill="#263238"/>
<path d="M348.86 375V373.62C349.41 375.24 351.94 382.22 355.77 385.72C358.82 388.5 362.98 391.72 364.04 394.82C365.1 397.92 358.25 399.12 355.4 398.62C352.09 398.03 347.81 396.16 345.48 393.29C343.84 391.29 342.8 388.89 341.62 387.29C340.44 385.69 337.76 383.93 337.12 382.1C336.78 381.1 337.19 378.89 337.68 377.03C338.17 375.17 338.61 373.44 339.19 373.6C339.19 373.81 339.19 374.65 339.19 374.65C340.569 375.732 342.278 376.307 344.03 376.28C345.44 376.35 348.87 376.07 348.86 375Z" fill="#263238"/>
<path d="M358.53 388.16C357.59 387.31 356.64 386.49 355.77 385.7C353.09 383.26 351.05 379.11 349.88 376.28C349.215 374.665 348.875 372.936 348.88 371.19V365.68H339.21V374.68V374.92H339.26C339.73 376.92 344.17 382.27 346.69 385.75C348.38 388.09 351.59 391.06 355.42 391.57C359 392.06 360.9 390.91 358.53 388.16Z" fill="#FFA8A7"/>
<path d="M383 365.46V364.08C383.55 365.7 386.08 372.68 389.91 376.18C392.96 378.96 397.12 382.18 398.18 385.27C399.24 388.36 392.39 389.58 389.54 389.08C386.23 388.49 381.95 386.61 379.62 383.75C377.98 381.75 376.93 379.35 375.76 377.75C374.59 376.15 371.89 374.39 371.26 372.56C370.91 371.56 371.33 369.35 371.81 367.48C372.26 365.77 372.75 363.9 373.33 364.06V365.11C374.708 366.194 376.418 366.769 378.17 366.74C379.57 366.82 383 366.54 383 365.46Z" fill="#263238"/>
<path d="M392.66 378.63C391.72 377.78 390.77 376.96 389.9 376.17C387.22 373.72 385.18 369.58 384.01 366.75C383.345 365.136 383.006 363.406 383.01 361.66V356.15H373.34V365.15V365.39H373.39C373.86 367.39 378.29 372.74 380.81 376.22C382.5 378.56 385.72 381.53 389.55 382.04C393.17 382.53 395 381.38 392.66 378.63Z" fill="#FFA8A7"/>
<path d="M341.12 224.73C333.62 241.1 341.39 298.73 341.39 298.73C341.16 301.39 338.13 306.62 336.99 318.31C335.66 332.12 339.09 366.81 339.09 366.81C340.564 367.666 342.224 368.149 343.927 368.217C345.629 368.285 347.323 367.936 348.86 367.2C348.86 367.2 358.08 314.96 359.81 301.2C361.32 289.2 364.23 262.85 364.23 262.85L368.89 301.13C367.682 305.005 366.809 308.976 366.28 313C365.49 321.08 373.28 358.7 373.28 358.7C373.28 358.7 376.62 359.92 382.95 358.99C382.95 358.99 385.72 309.06 386.45 299.33C387.68 282.98 386.92 231.98 383.92 222.33L341.12 224.73Z" fill="#2E3192"/>
<path opacity="0.7" d="M341.12 224.73C333.62 241.1 341.39 298.73 341.39 298.73C341.16 301.39 338.13 306.62 336.99 318.31C335.66 332.12 339.09 366.81 339.09 366.81C340.564 367.666 342.224 368.149 343.927 368.217C345.629 368.285 347.323 367.936 348.86 367.2C348.86 367.2 358.08 314.96 359.81 301.2C361.32 289.2 364.23 262.85 364.23 262.85L368.89 301.13C367.682 305.005 366.809 308.976 366.28 313C365.49 321.08 373.28 358.7 373.28 358.7C373.28 358.7 376.62 359.92 382.95 358.99C382.95 358.99 385.72 309.06 386.45 299.33C387.68 282.98 386.92 231.98 383.92 222.33L341.12 224.73Z" fill="black"/>
<path opacity="0.3" d="M364.23 262.91L366.66 247.71C366.66 247.71 376.95 245.57 381.66 241.18C381.66 241.18 376.76 247.28 369.49 249.27L366.72 261L368.58 298.66L364.23 262.91Z" fill="black"/>
<path d="M354.34 167.85C351.49 168.05 350.54 167.98 348.47 168.19C344.34 168.62 343.34 174.66 341.65 178.19C339.89 182.104 339.728 186.55 341.2 190.58L347.89 210C347.89 210 344.76 217.58 341.12 224.74C357.92 234.12 378.91 229.19 383.96 222.34C384.17 220.89 382.88 209.54 382.08 202.13C385.08 194.7 385.82 190 384.57 185.13C382.25 176.02 373.95 167.64 371.57 167.65L354.34 167.85Z" fill="#EBEBEB"/>
<path d="M340.06 127.4L342.97 132.08C342.673 132.286 342.336 132.428 341.982 132.5C341.628 132.572 341.263 132.572 340.909 132.499C340.555 132.426 340.219 132.282 339.922 132.076C339.625 131.87 339.373 131.606 339.18 131.3C338.798 130.662 338.677 129.9 338.841 129.175C339.004 128.449 339.441 127.813 340.06 127.4Z" fill="#263238"/>
<path d="M336.87 132.73L342.33 131.97C342.397 132.325 342.392 132.69 342.314 133.044C342.236 133.397 342.088 133.731 341.878 134.025C341.667 134.319 341.4 134.568 341.091 134.756C340.782 134.944 340.438 135.068 340.08 135.12C339.341 135.208 338.596 135.009 337.999 134.564C337.402 134.12 336.998 133.463 336.87 132.73Z" fill="#263238"/>
<path d="M376.16 129.2C378.43 130.54 381.23 136.25 380.96 148.2C380.72 158.35 377.43 160.86 375.78 161.58C374.13 162.3 370.94 161.87 367.84 161.35V167.62C367.84 167.62 372.12 172.41 371.84 175.21C371.56 178.01 365.65 178.66 361.65 175.93C359.052 174.061 356.822 171.729 355.07 169.05V154.35C355.07 154.35 352.98 157.15 349.56 154.87C346.14 152.59 346 147 348 145C350 143 354.35 143.56 355.15 146.35C355.15 146.35 360.22 142.58 360.22 133.25C360.24 129.33 370.75 128.87 376.16 129.2Z" fill="#FFA8A7"/>
<path d="M367.31 145.27C367.323 145.441 367.303 145.613 367.249 145.776C367.195 145.939 367.109 146.09 366.997 146.219C366.884 146.349 366.747 146.454 366.593 146.53C366.439 146.606 366.271 146.65 366.1 146.66C365.756 146.668 365.422 146.541 365.171 146.305C364.921 146.069 364.773 145.744 364.76 145.4C364.745 145.226 364.765 145.05 364.82 144.884C364.875 144.718 364.963 144.565 365.079 144.434C365.195 144.303 365.337 144.197 365.495 144.122C365.653 144.048 365.825 144.006 366 144C366.34 144 366.668 144.132 366.912 144.369C367.157 144.607 367.299 144.93 367.31 145.27Z" fill="#263238"/>
<path d="M368.84 154.41L372.31 155.52C372.247 155.752 372.138 155.97 371.989 156.159C371.84 156.348 371.655 156.505 371.444 156.62C371.233 156.736 371.001 156.808 370.761 156.832C370.522 156.856 370.28 156.832 370.05 156.76C369.583 156.602 369.195 156.269 368.97 155.83C368.744 155.391 368.697 154.882 368.84 154.41Z" fill="#F28F8F"/>
<path d="M365.89 140.64L363 141.76C362.919 141.574 362.876 141.373 362.875 141.171C362.874 140.968 362.914 140.767 362.992 140.58C363.071 140.393 363.186 140.224 363.332 140.083C363.478 139.942 363.65 139.832 363.84 139.76C364.23 139.623 364.656 139.638 365.036 139.801C365.416 139.964 365.72 140.263 365.89 140.64Z" fill="#263238"/>
<path d="M378 145.41C378.002 145.661 377.93 145.907 377.793 146.117C377.656 146.327 377.46 146.493 377.23 146.593C377 146.693 376.745 146.723 376.498 146.679C376.251 146.635 376.022 146.52 375.84 146.347C375.658 146.175 375.53 145.952 375.474 145.708C375.417 145.463 375.433 145.208 375.521 144.972C375.608 144.737 375.763 144.533 375.965 144.385C376.168 144.237 376.41 144.152 376.66 144.14C377.005 144.134 377.339 144.264 377.589 144.502C377.84 144.739 377.987 145.065 378 145.41Z" fill="#263238"/>
<path d="M372.04 144.71L372.24 152.39L376.28 151.14L372.04 144.71Z" fill="#F28F8F"/>
<path d="M367.84 161.38C364.58 160.95 357.84 159.02 356.84 156.38C357.254 157.726 358.075 158.91 359.19 159.77C361.19 161.48 367.86 163.42 367.86 163.42L367.84 161.38Z" fill="#F28F8F"/>
<path d="M358.64 226.55C357.323 226.246 356.08 225.683 354.984 224.893C353.887 224.103 352.96 223.102 352.255 221.949C351.55 220.797 351.082 219.515 350.878 218.179C350.675 216.843 350.74 215.48 351.07 214.17C351.12 213.993 351.181 213.82 351.25 213.65C351.481 212.946 351.942 212.341 352.558 211.931C353.175 211.521 353.912 211.33 354.65 211.39C353.572 210.674 352.646 209.753 351.925 208.679C351.204 207.604 350.703 206.398 350.45 205.13C350.45 205.13 347.72 191.9 348.1 194.13C348.48 196.36 347.1 188.05 348.8 183.35L342.17 179.27L340.92 180.14C339.901 183.571 339.999 187.237 341.2 190.61L347.89 210C345.275 214.74 343.012 219.667 341.12 224.74C353.5 231.65 368.12 230.79 377.03 227.12C370.919 228.091 364.679 227.897 358.64 226.55Z" fill="#E0E0E0"/>
<path d="M348.47 168.19C343.76 168.27 341.47 169.56 335.2 176.43C331.3 180.74 314.26 198.75 314.26 198.75C314.26 198.75 288.65 193.66 287.32 192.69C285.99 191.72 285.94 190.28 285.87 188.84C285.8 187.4 285.49 184.27 285.57 183.34C285.72 181.72 283.63 182.69 282.69 184.4C281.75 186.11 281.88 188.98 281.35 189.61C280.82 190.24 274.47 185.86 271.35 183.75C268.23 181.64 265.84 179.69 264.53 181.23C263.59 182.33 264.86 184.07 267.16 185.97C268.426 186.938 269.603 188.016 270.68 189.19C270.99 189.55 270.44 190.05 270.25 190.33C269.9 190.87 269.25 191.75 269.36 192.42C269.461 192.77 269.528 193.128 269.56 193.49C269.56 194.32 268.67 194.93 268.56 195.76C268.5 196.36 268.88 196.92 268.91 197.53C268.91 197.91 268.82 198.3 268.85 198.69C268.918 199.066 269.067 199.423 269.289 199.734C269.51 200.045 269.797 200.303 270.13 200.49C272.31 202.05 274.79 202.23 277.29 202.88C279.37 203.42 281.37 203.38 283.71 203.77C286.05 204.16 315.01 214.01 319.91 211.61C324.41 209.4 345.78 188.61 345.78 188.61C353 179.91 348.47 168.19 348.47 168.19Z" fill="#FFA8A7"/>
<path d="M349.89 168.08C349.89 168.08 343.6 167.27 340 170.79C335.46 175.22 327.82 183.32 327.82 183.32C327.82 183.32 331.18 191.82 339.62 195.32C339.62 195.32 346.45 190.15 348.47 186.32C350.49 182.49 351.71 176.11 349.89 168.08Z" fill="#E0E0E0"/>
<path d="M422.94 191.06L389 200L379.66 238.4L411.93 229.03L422.94 191.06Z" fill="#2E3192"/>
<path opacity="0.25" d="M422.94 191.06L389 200L379.66 238.4L411.93 229.03L422.94 191.06Z" fill="black"/>
<g opacity="0.1">
<path opacity="0.1" d="M407.6 218.25C408.174 219.432 409.081 220.421 410.208 221.096C411.336 221.771 412.636 222.102 413.95 222.05L414.2 221.2L407.6 218.25Z" fill="black"/>
</g>
<g opacity="0.1">
<path opacity="0.1" d="M412.721 197.16C412.721 197.16 412.841 196.58 413.001 195.86C413.161 195.14 411.161 195.12 408.551 195.8L403.551 197.09C400.941 197.77 398.691 198.9 398.551 199.61L398.271 200.91L412.721 197.16Z" fill="black"/>
</g>
<path d="M415.32 192.29C415.42 191.85 414.61 191.73 413.52 192.03L411.52 192.58C411.52 192.58 412.11 189.78 407.72 190.76C403.33 191.74 402.36 194.92 402.36 194.92L400.25 195.52C399.08 195.85 398.02 196.52 397.88 196.92L397.63 197.73L415.12 193.12C415.12 193.12 415.22 192.74 415.32 192.29Z" fill="#37474F"/>
<path d="M412.91 193.67C411.31 194.06 410.65 194.27 410.41 195.38C410.17 196.49 410.02 197.56 410.02 197.56L402.29 199.56C402.29 199.56 402.66 197.97 402.78 197.35C402.9 196.73 402.63 196.35 401.4 196.68L401.3 196.19L413.42 193.1L412.91 193.67Z" fill="#37474F"/>
<path d="M413.18 197.28L413.46 195.99C413.62 195.27 411.62 195.24 409.01 195.92L404.01 197.22C401.4 197.89 399.16 199.02 399.01 199.74L398.73 201.03L413.18 197.28Z" fill="#37474F"/>
<path d="M419.36 203.39C419.36 203.39 418.09 207.73 417.8 208.76C417.51 209.79 413.71 211.66 411.22 212.34C408.73 213.02 405.99 213.84 407.17 217.34C408.26 220.56 412.37 221.29 414.46 221.2C416.55 221.11 419.46 219.11 420.54 215.89C421.97 211.78 421.2 207.4 421.77 205C422.34 202.6 420.61 202 419.36 203.39Z" fill="#FFA8A7"/>
<path d="M355.17 145.53V150.53C355.619 150.53 356.064 150.442 356.479 150.27C356.894 150.098 357.271 149.846 357.588 149.528C357.906 149.211 358.158 148.834 358.33 148.419C358.501 148.004 358.59 147.559 358.59 147.11V141.5L355.17 145.53Z" fill="#263238"/>
<path d="M368.84 122C373.349 122 377.673 123.791 380.861 126.979C384.049 130.167 385.84 134.491 385.84 139V141.2H377.53C375.66 141.2 373.854 140.522 372.445 139.292C371.037 138.062 370.122 136.363 369.87 134.51L369.56 141.2C368.023 141.201 366.542 140.625 365.408 139.586C364.275 138.547 363.573 137.121 363.44 135.59L363.34 134.5C363.194 136.325 362.366 138.028 361.021 139.27C359.675 140.512 357.911 141.201 356.08 141.2H355.34L354.49 129.2L368.84 122Z" fill="#263238"/>
<path d="M354.68 145.32H361.29C361.29 145.37 361.29 145.42 361.29 145.47C361.293 146.563 361.729 147.611 362.503 148.384C363.277 149.156 364.326 149.59 365.42 149.59H366C367.094 149.59 368.143 149.156 368.917 148.384C369.691 147.611 370.127 146.563 370.13 145.47C370.131 145.187 370.101 144.906 370.04 144.63C370.29 144.285 370.617 144.004 370.996 143.809C371.375 143.615 371.794 143.512 372.22 143.51C372.545 143.479 372.873 143.519 373.182 143.626C373.491 143.733 373.773 143.905 374.01 144.13C373.862 144.551 373.784 144.993 373.78 145.44C373.783 146.533 374.219 147.581 374.993 148.354C375.767 149.126 376.816 149.56 377.91 149.56H378.54C379.099 149.587 379.657 149.501 380.182 149.306C380.706 149.111 381.186 148.812 381.591 148.426C381.996 148.04 382.319 147.576 382.539 147.062C382.76 146.548 382.873 145.994 382.873 145.435C382.873 144.875 382.76 144.322 382.539 143.807C382.319 143.293 381.996 142.829 381.591 142.443C381.186 142.058 380.706 141.758 380.182 141.563C379.657 141.368 379.099 141.282 378.54 141.31H378C377.262 141.312 376.539 141.513 375.905 141.891C375.272 142.269 374.752 142.811 374.4 143.46C373.798 142.981 373.036 142.752 372.27 142.82C371.362 142.85 370.501 143.226 369.86 143.87C369.549 143.114 369.022 142.467 368.343 142.012C367.665 141.556 366.867 141.312 366.05 141.31H365.42C364.479 141.319 363.57 141.649 362.843 142.246C362.116 142.842 361.614 143.669 361.42 144.59H354C354.259 144.801 354.488 145.046 354.68 145.32ZM374.56 145.47C374.555 145.015 374.64 144.564 374.81 144.142C374.981 143.721 375.234 143.338 375.554 143.015C375.874 142.692 376.255 142.436 376.675 142.262C377.095 142.087 377.545 141.998 378 142H378.63C379.54 142 380.412 142.361 381.055 143.004C381.699 143.648 382.06 144.52 382.06 145.43C382.06 146.339 381.699 147.212 381.055 147.855C380.412 148.498 379.54 148.86 378.63 148.86H378C377.095 148.862 376.226 148.508 375.582 147.873C374.938 147.238 374.571 146.374 374.56 145.47ZM361.98 145.47C361.98 145.019 362.069 144.573 362.241 144.157C362.413 143.741 362.666 143.363 362.985 143.044C363.303 142.726 363.681 142.473 364.097 142.301C364.514 142.128 364.96 142.04 365.41 142.04H366C366.91 142.04 367.782 142.401 368.425 143.044C369.069 143.688 369.43 144.56 369.43 145.47C369.43 146.379 369.069 147.252 368.425 147.895C367.782 148.538 366.91 148.9 366 148.9H365.37C364.471 148.884 363.614 148.516 362.983 147.874C362.353 147.233 362 146.369 362 145.47H361.98Z" fill="#2E3192"/>
<path opacity="0.5" d="M354.68 145.32H361.29C361.29 145.37 361.29 145.42 361.29 145.47C361.293 146.563 361.729 147.611 362.503 148.384C363.277 149.156 364.326 149.59 365.42 149.59H366C367.094 149.59 368.143 149.156 368.917 148.384C369.691 147.611 370.127 146.563 370.13 145.47C370.131 145.187 370.101 144.906 370.04 144.63C370.29 144.285 370.617 144.004 370.996 143.809C371.375 143.615 371.794 143.512 372.22 143.51C372.545 143.479 372.873 143.519 373.182 143.626C373.491 143.733 373.773 143.905 374.01 144.13C373.862 144.551 373.784 144.993 373.78 145.44C373.783 146.533 374.219 147.581 374.993 148.354C375.767 149.126 376.816 149.56 377.91 149.56H378.54C379.099 149.587 379.657 149.501 380.182 149.306C380.706 149.111 381.186 148.812 381.591 148.426C381.996 148.04 382.319 147.576 382.539 147.062C382.76 146.548 382.873 145.994 382.873 145.435C382.873 144.875 382.76 144.322 382.539 143.807C382.319 143.293 381.996 142.829 381.591 142.443C381.186 142.058 380.706 141.758 380.182 141.563C379.657 141.368 379.099 141.282 378.54 141.31H378C377.262 141.312 376.539 141.513 375.905 141.891C375.272 142.269 374.752 142.811 374.4 143.46C373.798 142.981 373.036 142.752 372.27 142.82C371.362 142.85 370.501 143.226 369.86 143.87C369.549 143.114 369.022 142.467 368.343 142.012C367.665 141.556 366.867 141.312 366.05 141.31H365.42C364.479 141.319 363.57 141.649 362.843 142.246C362.116 142.842 361.614 143.669 361.42 144.59H354C354.259 144.801 354.488 145.046 354.68 145.32ZM374.56 145.47C374.555 145.015 374.64 144.564 374.81 144.142C374.981 143.721 375.234 143.338 375.554 143.015C375.874 142.692 376.255 142.436 376.675 142.262C377.095 142.087 377.545 141.998 378 142H378.63C379.54 142 380.412 142.361 381.055 143.004C381.699 143.648 382.06 144.52 382.06 145.43C382.06 146.339 381.699 147.212 381.055 147.855C380.412 148.498 379.54 148.86 378.63 148.86H378C377.095 148.862 376.226 148.508 375.582 147.873C374.938 147.238 374.571 146.374 374.56 145.47ZM361.98 145.47C361.98 145.019 362.069 144.573 362.241 144.157C362.413 143.741 362.666 143.363 362.985 143.044C363.303 142.726 363.681 142.473 364.097 142.301C364.514 142.128 364.96 142.04 365.41 142.04H366C366.91 142.04 367.782 142.401 368.425 143.044C369.069 143.688 369.43 144.56 369.43 145.47C369.43 146.379 369.069 147.252 368.425 147.895C367.782 148.538 366.91 148.9 366 148.9H365.37C364.471 148.884 363.614 148.516 362.983 147.874C362.353 147.233 362 146.369 362 145.47H361.98Z" fill="black"/>
</svg>
