<svg width="500" height="500" viewBox="0 0 500 500" fill="none" xmlns="http://www.w3.org/2000/svg">
<path d="M250 485.63C368.289 485.63 464.18 430.265 464.18 361.97C464.18 293.674 368.289 238.31 250 238.31C131.712 238.31 35.8203 293.674 35.8203 361.97C35.8203 430.265 131.712 485.63 250 485.63Z" fill="#F5F5F5"/>
<path d="M412.6 391.41L262 304.44C259.313 302.887 256.264 302.069 253.16 302.069C250.056 302.069 247.007 302.887 244.32 304.44L191 335.18C190.119 335.683 189.387 336.411 188.877 337.289C188.368 338.167 188.1 339.164 188.1 340.18C188.1 341.195 188.368 342.192 188.877 343.07C189.387 343.948 190.119 344.676 191 345.18L341.64 432.18C344.327 433.732 347.376 434.55 350.48 434.55C353.584 434.55 356.633 433.732 359.32 432.18L412.6 401.4C413.479 400.895 414.209 400.167 414.717 399.29C415.224 398.413 415.492 397.418 415.492 396.405C415.492 395.391 415.224 394.396 414.717 393.519C414.209 392.642 413.479 391.914 412.6 391.41Z" fill="#E0E0E0"/>
<path d="M126.33 418.83C152.26 418.83 173.28 406.697 173.28 391.73C173.28 376.763 152.26 364.63 126.33 364.63C100.4 364.63 79.3799 376.763 79.3799 391.73C79.3799 406.697 100.4 418.83 126.33 418.83Z" fill="#E0E0E0"/>
<path d="M85.3504 360.83L76.2204 366.13C76.2204 366.13 80.8204 351.43 78.2204 336.63C77.6052 333.143 76.3435 329.802 74.5004 326.78C73.7804 325.29 68.2804 316.06 73.1304 311.78C77.9804 307.5 89.3404 315.99 88.8304 338.78C88.6039 346.247 87.4346 353.656 85.3504 360.83Z" fill="#B72851"/>
<path opacity="0.3" d="M85.3504 360.83L76.2204 366.13C76.2204 366.13 80.8204 351.43 78.2204 336.63C77.6052 333.143 76.3435 329.802 74.5004 326.78C73.7804 325.29 68.2804 316.06 73.1304 311.78C77.9804 307.5 89.3404 315.99 88.8304 338.78C88.6039 346.247 87.4346 353.656 85.3504 360.83Z" fill="black"/>
<path d="M81.0998 363.72C81.0537 363.73 81.0059 363.73 80.9598 363.72C80.907 363.702 80.8583 363.674 80.8165 363.637C80.7747 363.6 80.7407 363.555 80.7165 363.504C80.6923 363.454 80.6784 363.4 80.6755 363.344C80.6726 363.288 80.6809 363.232 80.6998 363.18C80.6998 363.09 84.1398 353.63 83.9598 338.42C83.7798 323.21 75.8898 315.28 75.8098 315.2C75.7302 315.12 75.6855 315.012 75.6855 314.9C75.6855 314.787 75.7302 314.679 75.8098 314.6C75.8894 314.52 75.9973 314.476 76.1098 314.476C76.2223 314.476 76.3302 314.52 76.4098 314.6C76.4898 314.68 84.6198 322.93 84.7998 338.41C84.9798 353.89 81.5298 363.41 81.4998 363.47C81.4647 363.546 81.4082 363.61 81.3372 363.655C81.2661 363.699 81.1836 363.722 81.0998 363.72Z" fill="white"/>
<path d="M78.2603 365L63.1803 373.87C63.1803 373.87 56.2702 372.87 56.8002 366.35C57.3302 359.83 60.1203 358.35 56.6303 355.46C53.1403 352.57 52.2303 352.46 52.4003 349.62C52.5703 346.78 54.4503 345.62 55.3403 344.49C56.2303 343.36 58.7003 341 57.0003 337.64C55.3003 334.28 52.9003 331.01 56.4003 329.46C58.4903 328.53 62.0003 329.69 64.3303 332.16C66.6603 334.63 68.5702 336.41 70.7802 336.98C72.9902 337.55 77.5802 337.6 77.4303 341.4C77.2803 345.2 76.2902 346.51 77.2102 348.2C78.9002 351.37 86.3203 353.09 78.2603 365Z" fill="#B72851"/>
<path d="M72.1204 369C72.008 368.99 71.9042 368.936 71.8312 368.85C71.7583 368.764 71.722 368.653 71.7304 368.54C71.7304 368.32 73.3504 346.22 58.0204 331.73C57.9422 331.65 57.8984 331.542 57.8984 331.43C57.8984 331.318 57.9422 331.21 58.0204 331.13C58.0586 331.091 58.1044 331.059 58.1551 331.038C58.2058 331.016 58.2603 331.005 58.3154 331.005C58.3704 331.005 58.4249 331.016 58.4756 331.038C58.5263 331.059 58.5721 331.091 58.6104 331.13C74.2404 345.9 72.6104 368.39 72.6104 368.62C72.6057 368.678 72.5889 368.735 72.5611 368.786C72.5334 368.837 72.4952 368.882 72.4491 368.918C72.403 368.954 72.35 368.98 72.2934 368.994C72.2368 369.008 72.1779 369.01 72.1204 369Z" fill="white"/>
<path d="M69.4203 349.73C69.3646 349.728 69.31 349.714 69.2599 349.69C69.2097 349.665 69.165 349.631 69.1285 349.589C69.092 349.547 69.0645 349.498 69.0476 349.445C69.0307 349.391 69.0248 349.335 69.0303 349.28C69.1414 347.428 69.6371 345.62 70.486 343.971C71.3348 342.321 72.5181 340.867 73.9603 339.7C74.0049 339.667 74.0555 339.643 74.1094 339.63C74.1632 339.616 74.2192 339.614 74.2741 339.622C74.3289 339.63 74.3816 339.65 74.429 339.678C74.4764 339.707 74.5177 339.745 74.5503 339.79C74.6135 339.882 74.6384 339.995 74.6198 340.105C74.6011 340.215 74.5403 340.314 74.4503 340.38C73.1178 341.492 72.0249 342.864 71.2376 344.41C70.4504 345.957 69.9852 347.648 69.8703 349.38C69.8531 349.484 69.7972 349.578 69.7138 349.643C69.6304 349.708 69.5256 349.739 69.4203 349.73Z" fill="white"/>
<path d="M70.5298 353.57C70.4714 353.569 70.4137 353.556 70.3604 353.532C70.3071 353.508 70.2593 353.473 70.2198 353.43C70.2198 353.43 66.3798 349.33 57.7598 350.52C57.6484 350.534 57.5358 350.504 57.4467 350.436C57.3577 350.367 57.2994 350.266 57.2848 350.155C57.2703 350.044 57.3005 349.931 57.369 349.842C57.4374 349.753 57.5384 349.694 57.6498 349.68C66.7298 348.43 70.6498 352.68 70.8498 352.87C70.8895 352.908 70.921 352.954 70.9425 353.005C70.964 353.055 70.9751 353.11 70.9751 353.165C70.9751 353.22 70.964 353.274 70.9425 353.325C70.921 353.376 70.8895 353.422 70.8498 353.46C70.8086 353.502 70.7583 353.533 70.7028 353.552C70.6472 353.572 70.588 353.578 70.5298 353.57Z" fill="white"/>
<path d="M366.82 408.93L245.32 338.78C236.75 333.84 229.8 320.56 229.8 309.13V48.9999C229.8 37.5699 236.75 32.3199 245.32 37.2699L366.82 107.42C375.4 112.37 382.35 125.64 382.35 137.07V397.2C382.35 408.63 375.4 413.88 366.82 408.93Z" fill="#455A64"/>
<path d="M380.82 99.2103L259.31 29.0603C255.65 26.9503 252.31 26.7003 249.63 28.0003C249.304 28.1604 248.99 28.3442 248.69 28.5503L235.08 36.4603C237.81 34.8303 241.4 34.9503 245.33 37.2203L366.83 107.37C375.41 112.32 382.36 125.59 382.36 137.02V397.2C382.36 403.2 380.36 407.56 377.36 409.55L390.79 401.73C394.21 399.9 396.39 395.44 396.39 389.04V128.87C396.34 117.44 389.39 104.16 380.82 99.2103Z" fill="#37474F"/>
<path d="M382.35 137.001V397.201C382.35 403.201 380.35 407.561 377.35 409.551L390.78 401.731C394.2 399.901 396.38 395.441 396.38 389.041V128.851L382.38 136.971L382.35 137.001Z" fill="#263238"/>
<path d="M396.34 149.07L382.35 157.15V163.45L396.34 155.38V149.07Z" fill="#37474F"/>
<path d="M390.209 191C388.959 191.73 387.939 191 387.939 189.29V175.76C387.953 174.911 388.165 174.077 388.56 173.325C388.954 172.573 389.519 171.924 390.209 171.43C391.459 170.71 392.469 171.43 392.469 173.14V186.71C392.452 187.551 392.238 188.377 391.846 189.122C391.454 189.866 390.893 190.509 390.209 191Z" fill="#37474F"/>
<path d="M387.94 189.33V175.76C387.953 174.911 388.166 174.078 388.56 173.326C388.954 172.574 389.519 171.924 390.21 171.43C390.417 171.288 390.657 171.202 390.908 171.179C391.158 171.156 391.41 171.198 391.64 171.3L389.95 170.43C389.717 170.317 389.458 170.267 389.2 170.286C388.942 170.306 388.693 170.393 388.48 170.54C387.789 171.034 387.224 171.684 386.83 172.436C386.436 173.188 386.223 174.021 386.21 174.87V188.44C386.171 188.783 386.222 189.13 386.357 189.447C386.492 189.764 386.706 190.041 386.98 190.25L388.76 191.18C388.471 190.973 388.243 190.692 388.099 190.367C387.954 190.042 387.9 189.684 387.94 189.33Z" fill="#455A64"/>
<path d="M390.209 223.89C388.959 224.61 387.939 223.89 387.939 222.18V208.61C387.953 207.761 388.165 206.927 388.56 206.175C388.954 205.423 389.519 204.774 390.209 204.28C391.459 203.56 392.469 204.28 392.469 205.99V219.56C392.458 220.409 392.247 221.242 391.855 221.994C391.462 222.746 390.899 223.396 390.209 223.89Z" fill="#37474F"/>
<path d="M387.94 222.18V208.61C387.953 207.761 388.166 206.927 388.56 206.175C388.954 205.423 389.519 204.774 390.21 204.28C390.416 204.135 390.656 204.047 390.907 204.024C391.158 204.001 391.411 204.045 391.64 204.15L389.95 203.27C389.718 203.152 389.459 203.1 389.199 203.119C388.94 203.139 388.691 203.229 388.48 203.38C387.789 203.874 387.224 204.523 386.83 205.275C386.436 206.027 386.223 206.861 386.21 207.71V221.28C386.171 221.622 386.222 221.969 386.357 222.286C386.492 222.603 386.706 222.88 386.98 223.09L388.76 224.02C388.473 223.813 388.245 223.534 388.101 223.211C387.957 222.887 387.901 222.532 387.94 222.18Z" fill="#455A64"/>
<path d="M362.6 114.68L243.19 45.68C242.69 45.39 242.122 45.2369 241.543 45.2363C240.965 45.2357 240.397 45.3876 239.896 45.6766C239.395 45.9656 238.979 46.3815 238.69 46.8825C238.401 47.3834 238.249 47.9517 238.25 48.53V309.13C238.25 317.83 244.41 328.5 251.95 332.85L368.46 400.12C369.01 400.436 369.633 400.603 370.268 400.604C370.902 400.604 371.526 400.438 372.076 400.122C372.626 399.807 373.084 399.352 373.405 398.804C373.725 398.257 373.895 397.634 373.9 397V134.25C373.9 127.08 368.81 118.27 362.6 114.68Z" fill="#2E3192"/>
<path opacity="0.5" d="M362.6 114.68L243.19 45.68C242.69 45.39 242.122 45.2369 241.543 45.2363C240.965 45.2357 240.397 45.3876 239.896 45.6766C239.395 45.9656 238.979 46.3815 238.69 46.8825C238.401 47.3834 238.249 47.9517 238.25 48.53V309.13C238.25 317.83 244.41 328.5 251.95 332.85L368.46 400.12C369.01 400.436 369.633 400.603 370.268 400.604C370.902 400.604 371.526 400.438 372.076 400.122C372.626 399.807 373.084 399.352 373.405 398.804C373.725 398.257 373.895 397.634 373.9 397V134.25C373.9 127.08 368.81 118.27 362.6 114.68Z" fill="white"/>
<path d="M278.89 63.7305L280.74 71.5205L320.32 94.3405L327.16 90.7005L278.89 63.7305Z" fill="#455A64"/>
<path d="M290.53 71.2607C290.53 72.5507 289.62 73.0707 288.53 72.4307C287.946 72.0426 287.461 71.5229 287.113 70.9133C286.766 70.3038 286.566 69.6213 286.53 68.9207C286.53 67.6307 287.44 67.1007 288.53 67.7507C289.115 68.1388 289.6 68.6585 289.947 69.2681C290.295 69.8776 290.494 70.5601 290.53 71.2607Z" fill="#263238"/>
<path d="M317.19 87.7406C316.973 87.7411 316.76 87.686 316.57 87.5806L296.36 76.2806C296.203 76.2059 296.063 76.0998 295.948 75.9687C295.834 75.8376 295.747 75.6843 295.695 75.5185C295.642 75.3526 295.624 75.1777 295.641 75.0045C295.659 74.8313 295.712 74.6636 295.797 74.5118C295.882 74.36 295.998 74.2274 296.136 74.1221C296.275 74.0168 296.434 73.9411 296.603 73.8997C296.772 73.8583 296.948 73.8521 297.119 73.8815C297.291 73.9109 297.455 73.9753 297.6 74.0706L317.81 85.3606C318.056 85.4974 318.25 85.7121 318.361 85.971C318.471 86.2299 318.493 86.5183 318.422 86.7907C318.351 87.0632 318.192 87.3044 317.969 87.4763C317.746 87.6483 317.472 87.7412 317.19 87.7406Z" fill="#263238"/>
<path d="M214.27 351.359C240.37 366.93 308.27 407.46 341.88 427.7C342.881 428.302 344.025 428.627 345.193 428.642C346.362 428.657 347.514 428.362 348.531 427.786C349.548 427.211 350.394 426.375 350.982 425.366C351.571 424.356 351.88 423.208 351.88 422.04V141.21C351.882 138.014 351.048 134.873 349.46 132.099C347.873 129.326 345.587 127.016 342.83 125.4L213.66 49.6995C212.657 49.1109 211.516 48.7979 210.353 48.7921C209.189 48.7863 208.046 49.088 207.037 49.6666C206.028 50.2451 205.189 51.0801 204.607 52.0869C204.024 53.0936 203.718 54.2364 203.72 55.3995V332.78C203.717 336.525 204.688 340.207 206.538 343.465C208.387 346.722 211.052 349.442 214.27 351.359Z" fill="#F5F5F5"/>
<path d="M213.76 352.22C234.72 364.74 255.673 377.253 276.62 389.76L313.33 411.76L329.73 421.6L337 426C339.23 427.34 341.59 429.27 344.23 429.63C345.306 429.761 346.397 429.663 347.433 429.343C348.468 429.023 349.424 428.487 350.238 427.771C351.052 427.056 351.706 426.176 352.156 425.19C352.606 424.204 352.842 423.134 352.85 422.05C352.85 421.56 352.85 421.05 352.85 420.57V161.83C352.85 155.09 352.85 148.35 352.85 141.61C352.877 138.121 351.98 134.687 350.25 131.657C348.52 128.627 346.019 126.11 343 124.36C340.05 122.61 337.09 120.89 334.13 119.16L291.86 94.3699L241.65 64.9999C232.6 59.6399 223.59 54.2299 214.47 48.9999C213.285 48.2699 211.924 47.8743 210.532 47.8552C209.14 47.8361 207.769 48.1942 206.565 48.8914C205.36 49.5886 204.366 50.599 203.689 51.8154C203.012 53.0317 202.678 54.4086 202.72 55.7999C202.72 58.0199 202.72 60.2399 202.72 62.4599V310C202.72 317.333 202.72 324.667 202.72 332C202.643 336.032 203.617 340.015 205.546 343.556C207.474 347.098 210.291 350.077 213.72 352.2C214.82 352.88 215.83 351.15 214.72 350.48C207.94 346.31 204.67 339.29 204.67 331.48V76.9999C204.67 69.9999 204.67 62.9999 204.67 55.9999C204.608 55.0947 204.75 54.1872 205.086 53.3443C205.422 52.5014 205.943 51.7447 206.61 51.1299C208.84 49.2299 211.53 49.6199 213.85 50.9799L223.85 56.8399L266.72 81.9999L315.78 110.76C324.54 115.89 333.33 120.99 342.07 126.16C344.812 127.771 347.073 130.085 348.622 132.863C350.171 135.64 350.95 138.781 350.88 141.96C350.88 144.34 350.88 146.73 350.88 149.12V420.12C350.88 420.72 350.88 421.33 350.88 421.93C350.887 422.96 350.613 423.973 350.089 424.859C349.564 425.746 348.808 426.473 347.902 426.963C346.996 427.453 345.974 427.687 344.945 427.641C343.916 427.595 342.918 427.269 342.06 426.7C331.76 420.62 321.54 414.37 311.28 408.22C287.527 393.96 263.767 379.737 240 365.55L214.77 350.5C214.543 350.388 214.283 350.367 214.041 350.439C213.799 350.512 213.594 350.673 213.466 350.891C213.338 351.108 213.297 351.367 213.352 351.613C213.406 351.86 213.552 352.076 213.76 352.22Z" fill="#E0E0E0"/>
<path d="M281.5 383.12L273.19 378.33C272.349 377.73 271.661 376.94 271.181 376.024C270.702 375.109 270.444 374.093 270.43 373.06V364.45C270.43 362.45 271.66 361.45 273.19 362.36L281.5 367.16C282.338 367.763 283.023 368.553 283.501 369.469C283.978 370.384 284.235 371.398 284.25 372.43V381C284.25 383.07 283 384 281.5 383.12Z" fill="#E0E0E0"/>
<path d="M277.34 376.82C277.089 376.658 276.881 376.438 276.731 376.179C276.582 375.92 276.496 375.629 276.48 375.33V369.17C276.48 368.62 276.86 368.39 277.34 368.67C277.592 368.832 277.801 369.052 277.951 369.311C278.1 369.57 278.186 369.861 278.2 370.16V376.32C278.2 376.87 277.82 377.09 277.34 376.82Z" fill="white"/>
<path d="M280 375.28L274.66 372.2C274.41 372.036 274.203 371.816 274.054 371.557C273.904 371.298 273.817 371.009 273.8 370.71C273.8 370.16 274.19 369.93 274.66 370.21L280 373.29C280.25 373.454 280.458 373.674 280.607 373.933C280.756 374.192 280.843 374.482 280.86 374.78C280.87 375.33 280.48 375.55 280 375.28Z" fill="white"/>
<path d="M251.35 352.61C252.33 353.213 253.137 354.061 253.69 355.07C254.98 357.3 254.98 359.72 253.69 360.47C253.314 360.643 252.9 360.713 252.489 360.672C252.077 360.632 251.684 360.483 251.35 360.24C250.392 359.61 249.594 358.765 249.021 357.772C248.448 356.779 248.116 355.665 248.05 354.52C247.958 354.106 248.001 353.672 248.172 353.284C248.343 352.895 248.633 352.57 249.001 352.358C249.368 352.145 249.794 352.055 250.217 352.1C250.639 352.146 251.036 352.324 251.35 352.61ZM251.35 350.61C250.842 350.243 250.246 350.017 249.622 349.956C248.998 349.894 248.37 349.999 247.8 350.26C245.8 351.39 245.8 355.06 247.8 358.46C248.643 359.993 249.866 361.284 251.35 362.21C251.859 362.578 252.456 362.805 253.081 362.869C253.707 362.932 254.337 362.829 254.91 362.57C256.91 361.43 256.91 357.76 254.91 354.36C254.066 352.825 252.839 351.533 251.35 350.61Z" fill="#E0E0E0"/>
<path d="M258.66 370.08C258.406 369.916 258.197 369.693 258.05 369.43L254.3 362.93C253.96 362.35 253.96 361.72 254.3 361.52C254.64 361.32 255.18 361.64 255.52 362.23L259.27 368.73C259.61 369.31 259.61 369.94 259.27 370.14C259.171 370.181 259.064 370.196 258.957 370.186C258.851 370.176 258.749 370.139 258.66 370.08Z" fill="#E0E0E0"/>
<path d="M309.53 383.72C307.45 382.52 305.77 383.84 305.77 386.67C305.77 383.84 304.09 380.58 302.01 379.38C299.93 378.18 298.26 379.5 298.26 382.33C298.26 389.52 305.77 396.93 305.77 396.93C305.77 396.93 313.29 398.2 313.29 391C313.29 388.18 311.6 384.92 309.53 383.72Z" fill="#E0E0E0"/>
<path d="M333.59 401.46C333.59 403.58 332.1 404.46 330.26 403.38C329.289 402.749 328.482 401.897 327.903 400.894C327.325 399.891 326.991 398.766 326.93 397.61C326.93 395.49 328.42 394.61 330.26 395.69C331.229 396.322 332.036 397.174 332.615 398.177C333.194 399.179 333.527 400.304 333.59 401.46Z" fill="#E0E0E0"/>
<path d="M330.26 403.38C327.54 401.81 325.34 403.48 325.34 407.11V408.23L335.19 413.92V412.79C335.19 409.17 333 405 330.26 403.38Z" fill="#E0E0E0"/>
<path d="M227.05 336.15L220.41 338.34V347.65L225.56 350.65V345.57C225.56 344.62 226.23 344.23 227.05 344.71C227.486 344.994 227.849 345.376 228.11 345.826C228.37 346.276 228.521 346.781 228.55 347.3V352.37L233.7 355.37V346L227.05 336.15Z" fill="#E0E0E0"/>
<path d="M250.31 326.57L219.45 308.76C217.02 307.35 215.05 303.59 215.05 300.36V266.29C215.05 263.05 217.05 261.57 219.45 262.97L250.31 280.79C252.74 282.19 254.7 285.95 254.7 289.19V323.25C254.7 326.49 252.74 328 250.31 326.57Z" fill="#2E3192"/>
<path opacity="0.5" d="M250.31 326.57L219.45 308.76C217.02 307.35 215.05 303.59 215.05 300.36V266.29C215.05 263.05 217.05 261.57 219.45 262.97L250.31 280.79C252.74 282.19 254.7 285.95 254.7 289.19V323.25C254.7 326.49 252.74 328 250.31 326.57Z" fill="white"/>
<path d="M219.7 297.11L250.06 314.64L241.09 291.31L234.88 298.68L228.53 289.64L219.7 297.11Z" fill="#2E3192"/>
<path d="M230.23 282.56C230.283 283.52 230.561 284.454 231.042 285.287C231.523 286.119 232.194 286.826 233 287.35C234.53 288.24 235.77 287.52 235.77 285.75C235.712 284.797 235.431 283.871 234.95 283.046C234.469 282.221 233.801 281.52 233 281C231.47 280.08 230.23 280.79 230.23 282.56Z" fill="#2E3192"/>
<path d="M293.23 351.37L262.37 333.56C259.94 332.15 257.97 328.39 257.97 325.16V291.09C257.97 287.85 259.97 286.37 262.37 287.77L293.23 305.59C295.66 306.99 297.63 310.75 297.63 313.99V348.05C297.63 351.29 295.66 352.78 293.23 351.37Z" fill="#2E3192"/>
<path opacity="0.5" d="M293.23 351.37L262.37 333.56C259.94 332.15 257.97 328.39 257.97 325.16V291.09C257.97 287.85 259.97 286.37 262.37 287.77L293.23 305.59C295.66 306.99 297.63 310.75 297.63 313.99V348.05C297.63 351.29 295.66 352.78 293.23 351.37Z" fill="white"/>
<path d="M262.62 321.909L292.98 339.439L284.01 316.109L277.8 323.479L271.45 314.439L262.62 321.909Z" fill="#2E3192"/>
<path d="M273.15 307.36C273.203 308.32 273.481 309.254 273.962 310.087C274.443 310.919 275.114 311.626 275.92 312.15C277.45 313.04 278.69 312.32 278.69 310.55C278.638 309.59 278.36 308.656 277.879 307.824C277.397 306.991 276.726 306.284 275.92 305.76C274.39 304.88 273.15 305.59 273.15 307.36Z" fill="#2E3192"/>
<path d="M336.16 376.17L305.29 358.36C302.87 356.95 300.9 353.19 300.9 349.96V315.89C300.9 312.65 302.9 311.17 305.29 312.57L336.16 330.39C338.58 331.79 340.55 335.55 340.55 338.79V372.85C340.55 376.09 338.58 377.58 336.16 376.17Z" fill="#2E3192"/>
<path opacity="0.5" d="M336.16 376.17L305.29 358.36C302.87 356.95 300.9 353.19 300.9 349.96V315.89C300.9 312.65 302.9 311.17 305.29 312.57L336.16 330.39C338.58 331.79 340.55 335.55 340.55 338.79V372.85C340.55 376.09 338.58 377.58 336.16 376.17Z" fill="white"/>
<path d="M305.55 346.71L335.9 364.24L326.94 340.9L320.73 348.28L314.37 339.24L305.55 346.71Z" fill="#2E3192"/>
<path d="M316.08 332.159C316.132 333.12 316.41 334.054 316.892 334.886C317.373 335.718 318.044 336.425 318.85 336.95C320.38 337.84 321.61 337.12 321.61 335.35C321.56 334.39 321.283 333.456 320.804 332.624C320.324 331.792 319.655 331.084 318.85 330.559C317.32 329.669 316.08 330.389 316.08 332.159Z" fill="#2E3192"/>
<path d="M351.88 400.39C351.764 400.389 351.65 400.358 351.55 400.3L203.42 314.78C203.343 314.736 203.276 314.677 203.222 314.607C203.168 314.537 203.128 314.457 203.105 314.371C203.081 314.286 203.075 314.197 203.087 314.109C203.098 314.021 203.126 313.936 203.17 313.86C203.214 313.783 203.273 313.715 203.343 313.661C203.413 313.607 203.493 313.567 203.578 313.544C203.664 313.521 203.753 313.515 203.841 313.526C203.929 313.537 204.013 313.566 204.09 313.61L352.22 399.13C352.298 399.174 352.366 399.234 352.42 399.305C352.475 399.375 352.515 399.456 352.538 399.543C352.561 399.629 352.567 399.719 352.556 399.808C352.544 399.897 352.515 399.982 352.47 400.06C352.408 400.161 352.322 400.244 352.218 400.302C352.115 400.36 351.999 400.39 351.88 400.39Z" fill="#E0E0E0"/>
<path d="M351.88 322.45C351.764 322.45 351.65 322.419 351.55 322.36L203.42 236.84C203.276 236.745 203.173 236.599 203.133 236.431C203.093 236.264 203.118 236.087 203.203 235.937C203.288 235.787 203.427 235.675 203.592 235.624C203.756 235.572 203.934 235.585 204.09 235.66L352.22 321.19C352.298 321.233 352.367 321.291 352.422 321.361C352.477 321.431 352.518 321.511 352.541 321.597C352.564 321.683 352.57 321.773 352.558 321.861C352.546 321.949 352.516 322.034 352.47 322.11C352.41 322.214 352.324 322.3 352.22 322.359C352.117 322.419 351.999 322.45 351.88 322.45Z" fill="#E0E0E0"/>
<path d="M342.83 125.4L213.66 49.6995C212.657 49.1109 211.516 48.7979 210.353 48.7921C209.189 48.7863 208.046 49.088 207.037 49.6666C206.028 50.2451 205.189 51.0801 204.607 52.0869C204.024 53.0936 203.718 54.2364 203.72 55.3995V67.5795L351.84 153.11V141.21C351.846 138.018 351.018 134.879 349.438 132.106C347.857 129.333 345.579 127.021 342.83 125.4Z" fill="#E0E0E0"/>
<path d="M257.634 178.042C267.405 172.401 267.404 154.105 257.632 137.179C247.859 120.252 232.015 111.103 222.244 116.745C212.472 122.387 212.473 140.682 222.246 157.609C232.018 174.535 247.862 183.684 257.634 178.042Z" fill="#2E3192"/>
<path d="M228.102 233.489C231.168 231.718 231.169 225.98 228.104 220.671C225.038 215.362 220.068 212.493 217.002 214.263C213.937 216.033 213.936 221.772 217.001 227.081C220.066 232.39 225.037 235.259 228.102 233.489Z" fill="#E0E0E0"/>
<path d="M249.3 239.62C249.3 244.62 245.78 246.62 241.45 244.16C239.164 242.669 237.261 240.661 235.896 238.298C234.53 235.936 233.74 233.284 233.59 230.56C233.59 225.56 237.11 223.56 241.45 226.03C243.734 227.519 245.634 229.526 246.998 231.887C248.362 234.248 249.151 236.897 249.3 239.62Z" fill="#E0E0E0"/>
<path d="M268.18 250.83C268.18 255.83 264.67 257.83 260.33 255.36C258.045 253.869 256.144 251.861 254.78 249.498C253.416 247.135 252.628 244.484 252.48 241.76C252.48 236.76 256 234.76 260.33 237.23C262.617 238.719 264.52 240.726 265.884 243.09C267.248 245.453 268.035 248.105 268.18 250.83Z" fill="#E0E0E0"/>
<path d="M287.07 261.64C287.07 266.64 283.56 268.64 279.22 266.18C276.937 264.688 275.036 262.679 273.673 260.317C272.309 257.954 271.52 255.304 271.37 252.58C271.37 247.58 274.89 245.58 279.22 248.05C281.506 249.538 283.408 251.544 284.772 253.906C286.136 256.267 286.923 258.917 287.07 261.64Z" fill="#E0E0E0"/>
<path d="M303.656 277.242C306.722 275.472 306.722 269.734 303.657 264.425C300.592 259.116 295.622 256.247 292.556 258.017C289.49 259.787 289.49 265.526 292.555 270.835C295.62 276.144 300.59 279.013 303.656 277.242Z" fill="#E0E0E0"/>
<path d="M323.631 288.447C326.697 286.676 326.697 280.938 323.632 275.629C320.567 270.32 315.597 267.451 312.531 269.221C309.465 270.991 309.464 276.73 312.529 282.039C315.595 287.348 320.565 290.217 323.631 288.447Z" fill="#E0E0E0"/>
<path d="M265 204C264.824 204.001 264.652 203.957 264.5 203.87L214.45 174.97C214.221 174.838 214.054 174.621 213.984 174.366C213.915 174.112 213.949 173.84 214.08 173.61C214.145 173.496 214.232 173.395 214.337 173.314C214.441 173.234 214.56 173.174 214.688 173.14C214.815 173.106 214.948 173.097 215.079 173.114C215.209 173.131 215.335 173.174 215.45 173.24L265.5 202.14C265.687 202.252 265.833 202.421 265.916 202.623C265.998 202.826 266.012 203.049 265.955 203.26C265.898 203.471 265.774 203.657 265.602 203.791C265.429 203.924 265.218 203.998 265 204Z" fill="#2E3192"/>
<path d="M295.92 232.36C295.743 232.364 295.57 232.315 295.42 232.22L214.42 185.46C214.301 185.398 214.195 185.312 214.11 185.207C214.024 185.103 213.961 184.982 213.923 184.853C213.886 184.723 213.875 184.588 213.891 184.454C213.907 184.32 213.951 184.191 214.018 184.074C214.086 183.957 214.176 183.855 214.284 183.774C214.392 183.693 214.515 183.635 214.646 183.603C214.777 183.571 214.913 183.566 215.046 183.587C215.179 183.609 215.306 183.658 215.42 183.73L296.42 230.49C296.534 230.556 296.634 230.644 296.713 230.749C296.793 230.854 296.851 230.973 296.885 231.101C296.918 231.228 296.926 231.36 296.908 231.491C296.89 231.621 296.847 231.747 296.78 231.86C296.693 232.011 296.568 232.137 296.417 232.225C296.266 232.313 296.095 232.359 295.92 232.36Z" fill="#2E3192"/>
<path d="M340.44 270.2C340.265 270.202 340.093 270.157 339.94 270.07L214.42 197.59C214.192 197.458 214.024 197.241 213.955 196.987C213.886 196.732 213.92 196.46 214.05 196.23C214.116 196.116 214.203 196.015 214.307 195.935C214.412 195.854 214.531 195.795 214.658 195.76C214.786 195.726 214.919 195.717 215.049 195.734C215.18 195.751 215.306 195.794 215.42 195.86L340.94 268.33C341.133 268.439 341.284 268.609 341.37 268.814C341.455 269.018 341.471 269.245 341.413 269.459C341.356 269.673 341.23 269.861 341.054 269.996C340.877 270.13 340.662 270.202 340.44 270.2Z" fill="#2E3192"/>
<path d="M338.06 281.41C333.72 278.91 330.21 280.94 330.21 285.94C330.355 288.665 331.142 291.317 332.506 293.68C333.87 296.043 335.773 298.051 338.06 299.54V281.41Z" fill="#E0E0E0"/>
<path d="M296.68 164.82C296.534 164.817 296.39 164.779 296.26 164.71L280.83 155.79C280.641 155.681 280.502 155.502 280.445 155.291C280.388 155.08 280.416 154.855 280.525 154.665C280.634 154.476 280.814 154.337 281.025 154.28C281.236 154.222 281.461 154.251 281.65 154.36L297.09 163.27C297.249 163.361 297.373 163.502 297.443 163.67C297.514 163.839 297.526 164.026 297.48 164.202C297.433 164.379 297.329 164.535 297.185 164.647C297.04 164.759 296.863 164.82 296.68 164.82Z" fill="#2E3192"/>
<path d="M282.26 149.72V144L281.1 143.33V141.55L284.19 143.34V150.85L282.26 149.72Z" fill="#37474F"/>
<path d="M291.23 151.14C291.23 153.61 290.17 154.36 288.29 153.27C287.34 152.709 286.563 151.897 286.044 150.923C285.525 149.949 285.285 148.851 285.35 147.75C285.35 145.3 286.35 144.54 288.29 145.64C289.234 146.203 290.006 147.013 290.524 147.982C291.041 148.951 291.286 150.043 291.23 151.14ZM287.33 148.89C287.33 150.5 287.6 151.25 288.33 151.66C289.06 152.07 289.28 151.6 289.28 150C289.28 148.4 289.01 147.64 288.33 147.25C287.65 146.86 287.33 147.29 287.33 148.89Z" fill="#37474F"/>
<path d="M297.79 154.93C297.79 157.4 296.74 158.15 294.86 157.07C293.913 156.503 293.138 155.689 292.62 154.714C292.102 153.74 291.86 152.642 291.92 151.54C291.92 149.09 292.92 148.33 294.86 149.43C295.805 149.99 296.578 150.8 297.095 151.77C297.612 152.74 297.852 153.833 297.79 154.93ZM293.9 152.68C293.9 154.29 294.17 155.05 294.9 155.45C295.63 155.85 295.85 155.45 295.85 153.79C295.85 152.13 295.58 151.44 294.9 151.05C294.22 150.66 293.9 151.08 293.9 152.68Z" fill="#37474F"/>
<path d="M317.56 177.22C317.416 177.217 317.276 177.18 317.15 177.11L301.71 168.19C301.52 168.081 301.382 167.901 301.325 167.69C301.267 167.479 301.296 167.254 301.405 167.065C301.514 166.875 301.693 166.736 301.904 166.679C302.115 166.622 302.34 166.651 302.53 166.76L318 175.67C318.159 175.76 318.283 175.901 318.353 176.07C318.423 176.238 318.436 176.425 318.39 176.602C318.343 176.778 318.239 176.935 318.095 177.046C317.95 177.158 317.773 177.219 317.59 177.22H317.56Z" fill="#2E3192"/>
<path d="M304.35 157.05V158.05L304.77 158.29C305.47 158.644 306.068 159.17 306.509 159.819C306.95 160.468 307.218 161.219 307.29 162C307.29 163.6 306.24 164 304.61 163.09C303.589 162.446 302.705 161.606 302.01 160.62L302.77 159.37C303.12 160.149 303.681 160.814 304.39 161.29C304.93 161.6 305.22 161.48 305.21 160.95C305.198 160.691 305.116 160.44 304.971 160.225C304.827 160.009 304.625 159.838 304.39 159.73L302.58 158.73V154.34L307 156.89V158.63L304.35 157.05Z" fill="#37474F"/>
<path d="M313.77 164.5C313.77 166.96 312.71 167.71 310.84 166.63C309.89 166.069 309.113 165.257 308.594 164.284C308.075 163.31 307.835 162.212 307.9 161.11C307.9 158.66 308.9 157.9 310.84 159C311.781 159.566 312.55 160.376 313.066 161.345C313.582 162.313 313.825 163.404 313.77 164.5ZM309.87 162.25C309.87 163.86 310.14 164.61 310.87 165.02C311.6 165.43 311.81 164.96 311.81 163.36C311.81 161.76 311.54 161 310.87 160.61C310.2 160.22 309.87 160.65 309.87 162.25Z" fill="#37474F"/>
<path d="M320.34 168.29C320.34 170.76 319.28 171.51 317.41 170.43C316.451 169.872 315.664 169.061 315.134 168.086C314.605 167.111 314.355 166.008 314.41 164.9C314.41 162.45 315.41 161.69 317.41 162.79C318.35 163.356 319.12 164.166 319.636 165.135C320.152 166.103 320.395 167.194 320.34 168.29ZM316.44 166.04C316.44 167.65 316.71 168.41 317.44 168.81C318.17 169.21 318.38 168.75 318.38 167.15C318.38 165.55 318.11 164.8 317.44 164.41C316.77 164.02 316.44 164.44 316.44 166V166.04Z" fill="#37474F"/>
<path d="M339.68 189.79C339.535 189.789 339.393 189.747 339.27 189.67L323.83 180.76C323.736 180.706 323.654 180.634 323.588 180.549C323.522 180.463 323.473 180.365 323.445 180.261C323.416 180.156 323.409 180.047 323.423 179.94C323.437 179.832 323.471 179.729 323.525 179.635C323.579 179.541 323.651 179.459 323.737 179.393C323.822 179.326 323.92 179.278 324.025 179.249C324.129 179.221 324.238 179.214 324.345 179.227C324.453 179.241 324.556 179.276 324.65 179.33L340.09 188.24C340.249 188.331 340.373 188.471 340.443 188.64C340.514 188.808 340.526 188.996 340.48 189.172C340.433 189.349 340.329 189.505 340.185 189.617C340.04 189.728 339.863 189.789 339.68 189.79Z" fill="#2E3192"/>
<path d="M325.26 174.69V169L324.1 168.33V166.55L327.19 168.34V175.85L325.26 174.69Z" fill="#37474F"/>
<path d="M330.41 171.899V172.899L330.83 173.139C331.53 173.497 332.127 174.025 332.568 174.676C333.009 175.326 333.278 176.077 333.35 176.859C333.35 178.449 332.35 178.859 330.67 177.949C329.649 177.305 328.768 176.461 328.08 175.469L328.84 174.229C329.19 175.006 329.747 175.67 330.45 176.149C330.99 176.459 331.29 176.339 331.28 175.809C331.268 175.548 331.183 175.295 331.037 175.078C330.891 174.861 330.688 174.689 330.45 174.579L328.64 173.579V169.189L333.06 171.739V173.469L330.41 171.899Z" fill="#37474F"/>
<path d="M339.83 179.35C339.83 181.81 338.77 182.56 336.9 181.48C335.968 180.912 335.206 180.103 334.696 179.139C334.186 178.174 333.945 177.09 334 176C334 173.54 335 172.78 336.94 173.88C337.868 174.449 338.626 175.257 339.134 176.219C339.642 177.181 339.883 178.263 339.83 179.35ZM335.93 177.1C335.93 178.7 336.2 179.46 336.93 179.86C337.66 180.26 337.93 179.81 337.93 178.2C337.93 176.59 337.66 175.85 336.93 175.46C336.2 175.07 335.93 175.49 335.93 177.1Z" fill="#37474F"/>
<path d="M221.21 91.8499C221.21 93.6399 220.31 94.2799 218.92 93.4799C218.299 93.1099 217.801 92.5634 217.49 91.9099V94.6599L215.61 93.5799V85.6699L217.49 86.7499V87.4299C217.82 87.1399 218.3 87.1499 218.87 87.4299C219.609 87.9023 220.212 88.5575 220.622 89.332C221.032 90.1065 221.235 90.9739 221.21 91.8499ZM219.31 90.6999C219.323 90.3446 219.247 89.9916 219.088 89.6736C218.929 89.3556 218.692 89.0826 218.4 88.8799C217.86 88.5599 217.49 88.8799 217.49 89.6499C217.478 90.0051 217.555 90.3577 217.714 90.6756C217.873 90.9935 218.109 91.2666 218.4 91.4699C219 91.7899 219.31 91.4699 219.31 90.6999Z" fill="#37474F"/>
<path d="M223.82 91.3301C224.18 90.9001 224.72 90.8501 225.41 91.2401V93.2401C224.41 92.5501 223.82 92.6601 223.82 93.5101V96.2901L222 95.1601V89.3301L223.87 90.4101L223.82 91.3301Z" fill="#37474F"/>
<path d="M231.29 97.6395C231.29 99.4395 230.19 99.9895 228.49 99.0095C227.666 98.546 226.975 97.8787 226.483 97.0715C225.991 96.2643 225.714 95.3442 225.68 94.3995C225.68 92.5895 226.79 92.0495 228.49 93.0295C229.313 93.4927 230.003 94.1602 230.494 94.9677C230.984 95.7751 231.258 96.6953 231.29 97.6395ZM227.57 95.5095C227.554 95.8677 227.63 96.2239 227.791 96.5443C227.953 96.8646 228.193 97.1384 228.49 97.3395C229.04 97.6495 229.4 97.3395 229.4 96.5695C229.415 96.2139 229.339 95.8603 229.18 95.5419C229.021 95.2235 228.783 94.9509 228.49 94.7495C227.93 94.4195 227.57 94.7395 227.57 95.5095Z" fill="#37474F"/>
<path d="M232.29 95.0695C232.29 93.8095 233.13 93.5595 234.29 94.2495C234.655 94.466 234.991 94.7281 235.29 95.0295L235.22 96.6995C235.068 96.4836 234.874 96.3001 234.65 96.1595C234.33 95.9595 234.12 96.0295 234.12 96.3995V96.5895L235.12 97.1895V98.5895L234.12 97.9795V102.2L232.26 101.13V96.9095L231.58 96.5095V95.1195L232.26 95.5195L232.29 95.0695ZM235.73 95.6195C235.73 94.9695 236.13 94.7395 236.73 95.0695C237.025 95.2397 237.272 95.4824 237.447 95.7747C237.622 96.0669 237.719 96.399 237.73 96.7395C237.73 97.3895 237.33 97.6195 236.73 97.2995C236.434 97.1285 236.186 96.8842 236.011 96.59C235.836 96.2959 235.739 95.9617 235.73 95.6195ZM237.62 98.3795V104.21L235.75 103.12V97.2995L237.62 98.3795Z" fill="#37474F"/>
<path d="M238.8 104.89V96.8896L240.67 97.9996V106L238.8 104.89Z" fill="#37474F"/>
<path d="M246.76 107.09L243.36 105.09C243.418 105.386 243.537 105.667 243.709 105.914C243.881 106.162 244.103 106.372 244.36 106.53C244.523 106.637 244.71 106.701 244.904 106.715C245.099 106.729 245.293 106.693 245.47 106.61L246.47 108.28C245.94 108.65 245.18 108.58 244.23 108.03C243.422 107.576 242.746 106.92 242.269 106.126C241.792 105.331 241.53 104.426 241.51 103.5C241.51 101.67 242.58 101.1 244.17 102.02C245.032 102.539 245.731 103.289 246.189 104.185C246.647 105.081 246.844 106.087 246.76 107.09ZM244.91 105C244.917 104.716 244.85 104.436 244.717 104.185C244.584 103.935 244.389 103.723 244.15 103.57C243.72 103.32 243.42 103.57 243.33 104.08L244.91 105Z" fill="#37474F"/>
<path d="M125.66 368.46L126.29 377.66H136.31L136.5 365.68L125.66 368.46Z" fill="#FFA8A7"/>
<path d="M96.5703 375.649V384.959C96.5703 384.959 97.5703 386.959 102.09 386.959C106.61 386.959 105.91 382.629 105.91 382.629L106.44 376.399L96.5703 375.649Z" fill="#FFA8A7"/>
<path d="M140 268.2L138.64 366.61C138.64 366.61 133.85 372.67 123.2 368.79L121.2 324.05L116.64 270.78L140 268.2Z" fill="#2E3192"/>
<path opacity="0.3" d="M140 268.2L138.64 366.61C138.64 366.61 133.85 372.67 123.2 368.79L121.2 324.05L116.64 270.78L140 268.2Z" fill="black"/>
<path d="M120.51 315.65L124.32 285.46C124.32 285.46 133.15 281.25 135.54 269.58L119.03 270.52L116.67 270.78L120.51 315.65Z" fill="#2E3192"/>
<path opacity="0.5" d="M120.51 315.65L124.32 285.46C124.32 285.46 133.15 281.25 135.54 269.58L119.03 270.52L116.67 270.78L120.51 315.65Z" fill="black"/>
<path d="M100.62 268.08L98.2501 320.42C98.2501 320.42 94.1201 357.58 94.1201 376.48C96.3194 377.661 98.7389 378.376 101.227 378.579C103.715 378.782 106.218 378.469 108.58 377.66L116.67 322.86L123.32 283.59C123.32 283.59 134.63 280.35 137.52 268.79L100.62 268.08Z" fill="#2E3192"/>
<path opacity="0.3" d="M100.62 268.08L98.2501 320.42C98.2501 320.42 94.1201 357.58 94.1201 376.48C96.3194 377.661 98.7389 378.376 101.227 378.579C103.715 378.782 106.218 378.469 108.58 377.66L116.67 322.86L123.32 283.59C123.32 283.59 134.63 280.35 137.52 268.79L100.62 268.08Z" fill="black"/>
<path d="M130.2 209.38L146.97 209.45C148.04 211.486 148.677 213.721 148.84 216.015C149.004 218.31 148.691 220.613 147.92 222.78L135.7 223.1L130.2 209.38Z" fill="#37474F"/>
<path d="M113.8 209.789C113.8 209.789 107.28 210.609 105.26 211.139C103.922 211.427 102.618 211.856 101.37 212.419C100.901 212.662 100.511 213.034 100.247 213.491C99.9828 213.948 99.8554 214.472 99.8799 214.999C100.18 220.439 101.12 237.39 101.14 239.24C101.14 241.44 100.62 268.04 100.62 268.04C100.62 268.04 101.92 273.66 122.79 273.66C133.87 273.66 140.01 268.16 140.01 268.16C140.01 268.16 139.55 239.269 139.27 232.359C138.99 225.449 140.18 211.669 130.2 209.359L122.55 209.229L113.8 209.789Z" fill="#455A64"/>
<path d="M135.58 177.439C135.58 177.439 137.75 179.659 137.75 185.499C137.75 191.339 132.91 196.399 132.91 196.399V177.719L135.58 177.439Z" fill="#263238"/>
<path d="M135.58 178.999C136.524 178.46 137.323 177.699 137.908 176.783C138.493 175.867 138.847 174.823 138.94 173.739C139.24 170.009 137.06 171.349 136.3 171.669C135.54 171.989 133.3 172.819 133.3 172.819C133.3 172.819 135.38 170.659 134.14 169.219C133.23 168.149 128.82 171.509 123.25 172.169C117.68 172.829 112.33 172.769 110.76 177.759C110.76 177.759 105.37 178.839 106.67 188.279C107.97 197.719 112.12 203.459 113.81 203.379L135.58 178.999Z" fill="#263238"/>
<path d="M125.55 196.399H113.8V209.789H125.55V196.399Z" fill="#FFA8A7"/>
<path d="M125.55 208.21C123.026 207.863 120.662 206.773 118.76 205.077C116.858 203.382 115.504 201.158 114.87 198.69V194.78H125.55V208.21Z" fill="#F28F8F"/>
<path d="M127.601 175.47C127.601 175.47 138.651 175.89 136.661 193.69C135.721 202.07 135.031 206.69 127.871 206.69C120.711 206.69 110.131 201.29 110.811 186.91C111.491 172.53 127.601 175.47 127.601 175.47Z" fill="#FFA8A7"/>
<path d="M128.71 190.149V196.399L132.37 195.269L128.71 190.149Z" fill="#F28F8F"/>
<path d="M123.37 191.23C123.37 191.481 123.445 191.727 123.584 191.936C123.724 192.144 123.922 192.307 124.154 192.403C124.386 192.499 124.642 192.525 124.888 192.476C125.134 192.427 125.361 192.306 125.538 192.128C125.716 191.95 125.837 191.724 125.886 191.478C125.935 191.231 125.91 190.976 125.813 190.744C125.717 190.512 125.555 190.314 125.346 190.174C125.137 190.034 124.891 189.96 124.64 189.96C124.303 189.96 123.98 190.094 123.742 190.332C123.504 190.57 123.37 190.893 123.37 191.23Z" fill="#263238"/>
<path d="M131.74 190.339C131.738 190.593 131.812 190.842 131.952 191.054C132.092 191.266 132.292 191.432 132.526 191.53C132.76 191.628 133.018 191.654 133.267 191.605C133.517 191.556 133.746 191.434 133.925 191.254C134.105 191.075 134.227 190.846 134.276 190.597C134.325 190.347 134.299 190.089 134.201 189.855C134.103 189.621 133.937 189.421 133.725 189.281C133.513 189.141 133.264 189.067 133.01 189.069C132.843 189.069 132.678 189.102 132.524 189.166C132.37 189.23 132.23 189.323 132.112 189.441C131.994 189.559 131.901 189.699 131.837 189.853C131.773 190.007 131.74 190.173 131.74 190.339Z" fill="#263238"/>
<path d="M134.56 187.69L132.08 186.21C132.08 186.21 133.03 185.21 133.98 185.82C134.254 186.037 134.457 186.331 134.56 186.665C134.664 186.999 134.664 187.356 134.56 187.69Z" fill="#263238"/>
<path d="M124.001 187.26L121.751 189.09C121.751 189.09 121.151 187.85 122.041 187.16C122.34 186.979 122.687 186.892 123.036 186.91C123.385 186.927 123.721 187.049 124.001 187.26Z" fill="#263238"/>
<path d="M128.13 199.37C128.13 199.37 123.59 198.2 124.7 198.45C124.7 198.45 124.47 200.25 125.98 200.6C126.425 200.666 126.878 200.581 127.269 200.358C127.659 200.135 127.962 199.787 128.13 199.37Z" fill="#F28F8F"/>
<path d="M135.58 179C135.58 179 132.05 182.31 123 181.63C113.95 180.95 114.74 183.46 115.73 187.69C116.41 190.61 116.47 198.36 114.21 194.56H109.74V185.56C109.74 182.528 110.944 179.621 113.088 177.478C115.232 175.334 118.139 174.13 121.17 174.13H130.43L135.58 179Z" fill="#263238"/>
<path d="M114.32 194.06C114.32 194.06 113.87 189.78 110.9 189.7C107.63 189.61 107.19 192.75 107.24 193.87C107.35 196.8 109.73 199.98 114.16 200.1L114.32 194.06Z" fill="#FFA8A7"/>
<path d="M110.75 177.72C110.75 177.72 108.46 174.72 109.93 173.42C111.4 172.12 112.08 177.42 112.08 177.42L110.75 177.72Z" fill="#263238"/>
<path d="M110.94 178.719C110.94 178.719 107.14 178.669 107.05 176.719C106.96 174.769 111.49 177.439 111.49 177.439L110.94 178.719Z" fill="#263238"/>
<path d="M113.8 209.79C113.8 209.79 117.34 217.33 123.8 216.96C130.26 216.59 125.48 209.38 125.48 209.38L113.8 209.79Z" fill="#FFA8A7"/>
<path d="M116.26 227L125.26 238.52C125.26 238.52 141.08 240.6 150.18 242.25V250.52C150.18 250.52 124.73 252.03 119.57 248.77C114.41 245.51 106.45 235.87 106.45 235.87C106.45 235.87 108.14 227.57 116.26 227Z" fill="#FFA8A7"/>
<path d="M101.22 212.5C101.22 212.5 105.43 211.28 110.5 218.42C112.564 221.167 114.487 224.017 116.26 226.96C116.26 226.96 110.02 228.34 106.41 235.83L98.5504 226C97.7341 224.985 97.1479 223.804 96.8324 222.54C96.5169 221.276 96.4795 219.959 96.7229 218.679C96.9664 217.399 97.4847 216.187 98.2422 215.128C98.9998 214.068 99.9783 213.185 101.11 212.54L101.22 212.5Z" fill="#37474F"/>
<path d="M125.22 238.48C123.428 239.178 121.947 240.499 121.05 242.2C121.16 241.174 121.484 240.184 122.001 239.292C122.518 238.4 123.216 237.625 124.05 237.02L125.22 238.48Z" fill="#F28F8F"/>
<path d="M147.001 209.45L156.141 209.25C156.141 209.25 151.401 190.86 150.141 184.84C150.141 184.84 144.141 177.84 146.141 173.61C148.141 169.38 153.431 161.31 156.141 161.31C158.851 161.31 162.201 164.91 160.251 171.77C158.301 178.63 158.901 181.06 158.901 181.06C158.901 181.06 167.731 199.51 169.041 210.83C170.351 222.15 162.391 222.78 147.891 222.78L147.001 209.45Z" fill="#FFA8A7"/>
<path d="M288.56 146.81V298.3C288.56 302.41 287.05 305.17 284.74 306.07H284.68L274.88 311.44L274.93 302.71L276 142.88L286.35 137.59C287.738 140.47 288.491 143.614 288.56 146.81Z" fill="#E0E0E0"/>
<path d="M274.36 312.32L274.42 302.75L275.51 142.58L286.59 136.91L286.81 137.38C288.225 140.327 288.992 143.542 289.06 146.81V298.3C289.06 302.44 287.51 305.52 284.93 306.54L274.36 312.32ZM276.51 143.19L275.37 310.63L284.52 305.63C286.75 304.76 288.06 302.02 288.06 298.31V146.81C287.999 143.861 287.339 140.956 286.12 138.27L276.51 143.19Z" fill="#E0E0E0"/>
<path d="M286.36 137.59L276 142.88L165.22 78.4302L157.82 74.1302L168 68.3702L168.29 68.2002C169.92 67.2002 172.06 67.2802 174.41 68.6402L279.28 129.19C282.42 131.227 284.885 134.151 286.36 137.59Z" fill="#EBEBEB"/>
<path d="M276.001 143.45L275.771 143.32L156.811 74.1202L168.081 67.7602C169.931 66.6402 172.281 66.7602 174.701 68.1902L279.571 128.74C282.788 130.838 285.308 133.845 286.811 137.38L287.021 137.81L276.001 143.45ZM158.831 74.1302L276.001 142.31L285.681 137.37C284.262 134.2 281.96 131.506 279.051 129.61L174.201 69.0602C172.201 67.9002 170.261 67.7102 168.761 68.5202L168.301 68.8002L158.831 74.1302Z" fill="#E0E0E0"/>
<path d="M269.171 310.82L164.301 250.27C159.201 247.27 155.061 239.42 155.061 232.63V81.3099C155.061 74.5099 159.201 71.3799 164.301 74.3099L269.171 134.86C274.271 137.8 278.411 145.7 278.411 152.5V303.84C278.411 310.64 274.271 313.76 269.171 310.82Z" fill="#FAFAFA"/>
<path d="M272.841 312.42C271.455 312.377 270.104 311.973 268.921 311.25L164.051 250.7C158.821 247.7 154.561 239.57 154.561 232.63V81.3102C154.561 77.5502 155.821 74.6702 158.001 73.4102C159.841 72.3502 162.171 72.5202 164.551 73.8902L269.421 134.45C274.651 137.45 278.911 145.57 278.911 152.52V303.84C278.911 307.59 277.651 310.47 275.461 311.74C274.662 312.193 273.758 312.428 272.841 312.42ZM160.631 73.7202C159.885 73.7157 159.151 73.9053 158.501 74.2702C156.641 75.3502 155.561 77.9202 155.561 81.2702V232.63C155.561 239.25 159.561 246.97 164.561 249.83L269.431 310.38C271.491 311.57 273.431 311.75 274.971 310.87C276.841 309.79 277.971 307.23 277.971 303.87V152.52C277.971 145.89 273.971 138.17 268.971 135.31L164.051 74.7602C163.02 74.1234 161.841 73.765 160.631 73.7202Z" fill="#E0E0E0"/>
<path d="M288.461 146.66V298.15C288.461 302.25 286.951 305.02 284.641 305.92H284.581L274.771 311.29L274.831 302.57L275.921 142.7L286.271 137.41C287.656 140.301 288.403 143.455 288.461 146.66Z" fill="#E0E0E0"/>
<path d="M274.26 312.17L274.32 302.6L275.41 142.42L286.49 136.76L286.71 137.23C288.124 140.176 288.892 143.392 288.96 146.66V298.15C288.96 302.29 287.41 305.37 284.82 306.39L274.26 312.17ZM276.41 143L275.27 310.44L284.42 305.44C286.65 304.57 287.96 301.83 287.96 298.12V146.66C287.899 143.711 287.238 140.806 286.02 138.12L276.41 143Z" fill="#E0E0E0"/>
<path d="M286.26 137.44L275.91 142.73L165.12 78.2798L157.72 73.9798L167.94 68.2198L168.23 68.0398C169.86 67.0398 172 67.1298 174.35 68.4898L279.22 129C282 130.65 284.57 133.79 286.26 137.44Z" fill="#EBEBEB"/>
<path d="M275.89 143.3L275.66 143.16L156.71 73.9998L168 67.6098C169.86 66.4898 172.21 66.6098 174.63 68.0398L279.5 128.59C282.715 130.69 285.234 133.697 286.74 137.23L286.95 137.66L275.89 143.3ZM158.72 73.9998L275.92 142.18L285.6 137.23C284.178 134.065 281.877 131.375 278.97 129.48L174.1 68.9098C172.1 67.7398 170.16 67.5598 168.66 68.3698L168.2 68.6498L158.72 73.9998Z" fill="#E0E0E0"/>
<path d="M278.3 152.36V303.69C278.3 307.25 277.17 309.8 275.36 311L274.76 311.32C273.19 312.07 271.22 311.91 269.07 310.67L218.38 281.4L194.7 267.73L164.2 250.12C159.1 247.12 154.96 239.27 154.96 232.47V81.1597C154.96 77.7197 155.96 75.2297 157.72 73.9797C158.006 73.7591 158.323 73.5806 158.66 73.4497C160.2 72.7897 162.12 72.9797 164.2 74.1797L269.07 134.73C272.072 136.683 274.446 139.461 275.91 142.73C277.416 145.721 278.233 149.011 278.3 152.36Z" fill="#FAFAFA"/>
<path d="M179.421 178.64C179.471 178.8 178.681 188.47 181.001 192.36L186.511 196.05L190.991 186.24L192.381 180.24L191.381 177.83L179.421 178.64Z" fill="#FFA8A7"/>
<path d="M177.39 235.21C180.63 234.76 189.8 229.15 189.8 229.15C189.8 229.15 190.28 215.15 182.12 213.33L177.39 235.21Z" fill="#FFA8A7"/>
<path d="M185.341 212.24L179.811 227.02L186.171 218.37L185.341 212.24Z" fill="#F28F8F"/>
<path d="M207.5 197.49H205C201.17 197.497 197.469 198.877 194.57 201.38L180.2 213.8C180.2 213.8 188.84 219.58 189.84 229.14L201.84 220.84L207.5 197.49Z" fill="#2E3192"/>
<path d="M250 252.37L252.63 261.48L239.88 267.48L242 281.48L262.63 274.59C265.736 273.55 268.319 271.348 269.837 268.445C271.355 265.542 271.689 262.164 270.77 259.02L267.21 246.84L250 252.37Z" fill="#FFA8A7"/>
<path d="M242.87 276.56L244.71 296.69L217.17 280.79L242.87 276.56Z" fill="#455A64"/>
<path d="M246.17 227.65L243.34 239.43C241.813 245.776 241.257 252.317 241.69 258.83L242.87 276.56C242.87 276.56 234.87 281.56 218.48 281.56L194.8 267.88C195.06 263.24 196.31 241.81 198.4 224.52C200.75 205.01 207.5 197.52 207.5 197.52C208.63 197.52 217.93 198.21 217.93 198.21L232.47 199.21L246.17 205.73V227.65Z" fill="#2E3192"/>
<path opacity="0.3" d="M246.17 227.65L243.34 239.43C241.813 245.776 241.257 252.317 241.69 258.83L242.87 276.56C242.87 276.56 234.87 281.56 218.48 281.56L194.8 267.88C195.06 263.24 196.31 241.81 198.4 224.52C200.75 205.01 207.5 197.52 207.5 197.52C208.63 197.52 217.93 198.21 217.93 198.21L232.47 199.21L246.17 205.73V227.65Z" fill="black"/>
<path d="M272.811 312.42C271.434 312.379 270.092 311.975 268.921 311.25L164.051 250.7C158.821 247.7 154.561 239.57 154.561 232.63V81.31C154.561 77.82 155.611 75.13 157.561 73.72C157.888 73.4799 158.244 73.2817 158.621 73.13C160.351 72.39 162.431 72.65 164.621 73.9L269.491 134.45C272.565 136.46 274.996 139.314 276.491 142.67C278.026 145.728 278.859 149.089 278.931 152.51V303.84C278.931 307.48 277.811 310.22 275.761 311.57L275.131 311.91C274.407 312.257 273.613 312.432 272.811 312.42ZM160.641 73.72C160.06 73.7197 159.486 73.8353 158.951 74.06C158.655 74.1797 158.376 74.3378 158.121 74.53C156.471 75.74 155.561 78.15 155.561 81.31V232.63C155.561 239.25 159.561 246.97 164.561 249.83L269.431 310.38C271.371 311.51 273.181 311.73 274.661 311.02L275.231 310.71C276.921 309.59 277.911 307.08 277.911 303.84V152.51C277.84 149.238 277.041 146.024 275.571 143.1C274.154 139.921 271.848 137.219 268.931 135.32L164.051 74.77C163.026 74.1257 161.85 73.7635 160.641 73.72Z" fill="#E0E0E0"/>
<path d="M238.08 176.36C238.08 176.36 249.28 187.88 242.78 193.72C240.78 195.5 230.33 193.37 227.86 190.27C225.39 187.17 222.03 176.27 222.03 176.27L238.08 176.36Z" fill="#455A64"/>
<path d="M150.14 242.21C151.632 241.004 152.798 239.443 153.53 237.67C154.48 234.99 155.1 234.75 156.08 234.34V238.05C156.762 238.932 157.614 239.667 158.587 240.211C159.559 240.756 160.632 241.099 161.74 241.22C165.45 241.59 171.38 241.28 171.24 243.37C171.1 245.46 167.5 251 163.48 251C159.46 251 150.14 250.45 150.14 250.45V242.21Z" fill="#FFA8A7"/>
<path d="M269.171 134.88L164.301 74.3298C159.201 71.3298 155.061 74.5098 155.061 81.3298V98.6598L278.411 169.87V152.52C278.411 145.72 274.271 137.82 269.171 134.88Z" fill="white"/>
<path d="M278.911 170.74L154.561 99.0002V81.3102C154.561 77.5502 155.821 74.6702 158.001 73.4102C159.841 72.3502 162.171 72.5202 164.551 73.8902L269.421 134.45C274.651 137.45 278.911 145.57 278.911 152.52V170.74ZM155.561 98.3702L277.911 169V152.52C277.911 145.89 273.911 138.17 268.911 135.31L164.051 74.7602C161.991 73.5702 160.051 73.4002 158.501 74.2702C156.641 75.3502 155.561 77.9202 155.561 81.2702V98.3702Z" fill="#E0E0E0"/>
<path d="M175.63 98.2196C175.63 102.02 172.97 103.56 169.68 101.66C167.939 100.534 166.488 99.0144 165.445 97.2228C164.403 95.4313 163.798 93.419 163.68 91.3496C163.68 87.5596 166.35 86.0196 169.68 87.9196C171.412 89.0469 172.854 90.5673 173.888 92.3571C174.922 94.147 175.519 96.1556 175.63 98.2196Z" fill="#2E3192"/>
<path d="M224.76 125.999C224.584 125.998 224.411 125.949 224.26 125.859L182 101.439C181.885 101.374 181.785 101.287 181.704 101.182C181.623 101.078 181.564 100.959 181.53 100.831C181.495 100.704 181.486 100.571 181.504 100.44C181.521 100.31 181.564 100.184 181.63 100.069C181.696 99.9557 181.784 99.8562 181.889 99.7765C181.993 99.6968 182.113 99.6385 182.24 99.6051C182.367 99.5717 182.5 99.5637 182.63 99.5816C182.761 99.5995 182.886 99.643 183 99.7095L225.28 124.119C225.472 124.229 225.623 124.399 225.709 124.603C225.795 124.807 225.81 125.034 225.753 125.248C225.696 125.462 225.569 125.651 225.393 125.785C225.217 125.919 225.001 125.991 224.78 125.989L224.76 125.999Z" fill="#2E3192"/>
<path d="M251.87 189.6L254.87 191.33V190.25C254.87 190.18 254.87 190.1 254.87 190.02C254.87 189.94 254.87 189.88 254.87 189.81C254.98 188.39 256.06 187.81 257.38 188.6C257.979 188.956 258.496 189.433 258.9 190C259.2 188.06 260.78 187.37 262.68 188.47C263.798 189.196 264.728 190.176 265.396 191.33C266.063 192.484 266.448 193.779 266.52 195.11V197.41C266.516 197.593 266.562 197.774 266.654 197.933C266.746 198.092 266.879 198.222 267.04 198.31L268.82 199.36C269.207 199.587 269.528 199.911 269.751 200.301C269.974 200.69 270.09 201.131 270.09 201.58C270.09 201.766 270.042 201.949 269.949 202.111C269.856 202.272 269.722 202.406 269.561 202.5C269.4 202.593 269.217 202.642 269.03 202.642C268.844 202.642 268.661 202.593 268.5 202.5L251.91 192.92C251.471 192.664 251.106 192.298 250.852 191.858C250.597 191.418 250.462 190.919 250.46 190.41C250.461 190.245 250.505 190.084 250.587 189.942C250.67 189.799 250.789 189.681 250.932 189.599C251.074 189.517 251.236 189.474 251.401 189.474C251.566 189.474 251.727 189.518 251.87 189.6Z" fill="#E6E6E6"/>
<path d="M171.21 130.43L174.99 132.58V131.25C174.985 131.154 174.985 131.057 174.99 130.96C174.985 130.87 174.985 130.78 174.99 130.69C175.12 128.92 176.46 128.24 178.1 129.19C178.841 129.642 179.476 130.249 179.96 130.97C180.33 128.57 182.29 127.7 184.66 129.07C186.05 129.974 187.208 131.193 188.038 132.628C188.869 134.064 189.349 135.675 189.44 137.33V140.2C189.44 140.427 189.499 140.649 189.611 140.845C189.723 141.042 189.885 141.205 190.08 141.32L192.3 142.62C192.781 142.903 193.18 143.306 193.457 143.79C193.734 144.274 193.88 144.822 193.88 145.38C193.881 145.615 193.821 145.845 193.703 146.048C193.586 146.251 193.417 146.42 193.214 146.536C193.01 146.652 192.779 146.712 192.545 146.709C192.31 146.706 192.081 146.641 191.88 146.52L171.25 134.6C170.701 134.286 170.245 133.831 169.929 133.283C169.613 132.735 169.447 132.113 169.45 131.48C169.443 131.271 169.492 131.064 169.592 130.88C169.692 130.696 169.84 130.543 170.02 130.435C170.2 130.328 170.405 130.271 170.614 130.27C170.823 130.269 171.029 130.325 171.21 130.43Z" fill="#E6E6E6"/>
<path d="M214.78 181.55C221.628 181.55 227.18 175.998 227.18 169.15C227.18 162.302 221.628 156.75 214.78 156.75C207.932 156.75 202.38 162.302 202.38 169.15C202.38 175.998 207.932 181.55 214.78 181.55Z" fill="#263238"/>
<path d="M217.93 198.18C217.93 198.18 212.66 207.18 220.86 208.05C229.06 208.92 232.48 199.19 232.48 199.19L217.93 198.18Z" fill="#FFA8A7"/>
<path d="M217.93 198.18L232.48 199.19V182.6H217.93V198.18Z" fill="#FFA8A7"/>
<path d="M217.93 197.239C221.055 196.808 223.981 195.457 226.335 193.357C228.689 191.258 230.365 188.505 231.15 185.449V180.609H217.93V197.239Z" fill="#F28F8F"/>
<path d="M215.39 156.69C215.39 156.69 201.69 157.21 204.16 179.26C205.32 189.63 206.16 195.36 215.05 195.36C223.94 195.36 237.05 188.68 236.18 170.87C235.31 153.06 215.39 156.69 215.39 156.69Z" fill="#FFA8A7"/>
<path d="M214.01 174.87V182.6L209.48 181.21L214.01 174.87Z" fill="#F28F8F"/>
<path d="M220.62 176.2C220.622 176.513 220.531 176.82 220.358 177.081C220.185 177.343 219.938 177.547 219.649 177.668C219.36 177.789 219.042 177.821 218.734 177.76C218.427 177.699 218.144 177.549 217.923 177.327C217.701 177.106 217.55 176.823 217.49 176.516C217.429 176.208 217.461 175.89 217.582 175.601C217.703 175.312 217.907 175.065 218.168 174.892C218.43 174.719 218.737 174.628 219.05 174.63C219.466 174.63 219.866 174.795 220.16 175.09C220.455 175.384 220.62 175.784 220.62 176.2Z" fill="#263238"/>
<path d="M210.261 175.1C210.263 175.413 210.172 175.72 209.999 175.981C209.827 176.242 209.581 176.446 209.292 176.567C209.004 176.688 208.686 176.721 208.378 176.661C208.071 176.601 207.789 176.452 207.567 176.231C207.345 176.01 207.193 175.729 207.132 175.422C207.07 175.115 207.101 174.797 207.22 174.508C207.339 174.219 207.542 173.971 207.802 173.797C208.062 173.623 208.368 173.53 208.681 173.53C209.098 173.53 209.498 173.695 209.794 173.99C210.09 174.284 210.258 174.683 210.261 175.1Z" fill="#263238"/>
<path d="M206.76 171.82L209.84 169.99C209.84 169.99 208.66 168.76 207.48 169.5C207.139 169.768 206.888 170.133 206.759 170.548C206.631 170.962 206.631 171.405 206.76 171.82Z" fill="#263238"/>
<path d="M219.87 171.29L222.65 173.55C222.65 173.55 223.4 172.02 222.3 171.17C221.93 170.943 221.5 170.834 221.067 170.855C220.633 170.877 220.216 171.028 219.87 171.29Z" fill="#263238"/>
<path d="M214.73 186.28C214.73 186.28 220.35 184.83 218.97 185.15C218.97 185.15 219.26 187.38 217.39 187.81C216.838 187.903 216.271 187.802 215.785 187.523C215.3 187.244 214.927 186.804 214.73 186.28Z" fill="#F28F8F"/>
<path d="M205.5 161C205.5 161 209.87 165.09 221.08 164.25C232.29 163.41 231.31 166.52 230.08 171.76C229.24 175.38 229.16 184.97 231.95 180.27H237.5V169.2C237.505 167.337 237.143 165.492 236.434 163.769C235.724 162.046 234.682 160.481 233.367 159.161C232.051 157.842 230.489 156.796 228.768 156.082C227.047 155.368 225.203 155 223.34 155H211.88L205.5 161Z" fill="#263238"/>
<path d="M203.45 164.49C208.27 163.63 225.14 162.1 238.96 178.64C238.96 178.64 241.96 176.769 241.68 168.039C241.4 159.309 233.93 153.39 229.06 151.11C224.19 148.83 206.36 144.92 202.38 163.35C202.359 163.498 202.371 163.65 202.416 163.793C202.461 163.936 202.538 164.068 202.641 164.177C202.744 164.287 202.87 164.372 203.01 164.426C203.15 164.48 203.301 164.502 203.45 164.49Z" fill="#455A64"/>
<path d="M231.83 179.709C231.83 179.709 232.39 174.409 236.07 174.309C240.07 174.189 240.66 178.089 240.6 179.469C240.46 183.109 237.51 187.039 232.03 187.189L231.83 179.709Z" fill="#FFA8A7"/>
<path d="M207.63 160.099C207.63 160.099 216.03 160.009 219.63 161.099C219.63 161.099 220.51 155.859 215.07 155.609C210.69 155.419 209.55 155.999 207.63 160.099Z" fill="#263238"/>
<path d="M246.17 205.72L246.97 206.09C249.365 207.186 251.51 208.759 253.275 210.715C255.039 212.67 256.385 214.965 257.23 217.46L267.23 246.91C262.262 251.012 255.892 253.017 249.47 252.5L247.87 252.37L240.46 227.63C238.94 222.771 239.109 217.54 240.94 212.79C241.989 209.991 243.8 207.542 246.17 205.72Z" fill="#2E3192"/>
<path d="M179.811 226.999L191.001 197.129L181.001 192.359C181.001 192.359 162.311 217.139 162.311 225.879C162.311 234.619 169.591 236.259 177.391 235.209L179.811 226.999Z" fill="#FFA8A7"/>
<path d="M191.33 178.499C191.33 178.499 192.5 163.049 192.19 161.989C191.88 160.929 188.66 160.749 187.6 168.379C187.021 172.119 186.657 175.888 186.51 179.669L191.33 178.499Z" fill="#FFA8A7"/>
<path d="M194.19 179.87C194.19 179.87 200.06 166.15 200.11 165.08C200.16 164.01 197.28 162.86 193.94 169.48C192.247 172.723 190.745 176.062 189.44 179.48L194.19 179.87Z" fill="#FFA8A7"/>
<path d="M194.19 180.25L189.43 179.81C189.373 179.805 189.319 179.787 189.27 179.757C189.221 179.728 189.18 179.688 189.15 179.64C189.125 179.59 189.112 179.535 189.112 179.48C189.112 179.424 189.125 179.37 189.15 179.32C189.15 179.24 189.87 177.32 191.7 173.37C191.715 173.317 191.742 173.269 191.778 173.228C191.814 173.187 191.859 173.154 191.909 173.132C191.959 173.109 192.013 173.098 192.068 173.099C192.122 173.099 192.176 173.112 192.226 173.135C192.275 173.158 192.319 173.192 192.354 173.234C192.39 173.275 192.415 173.324 192.43 173.377C192.445 173.43 192.448 173.485 192.439 173.539C192.43 173.593 192.41 173.644 192.38 173.69C191.06 176.5 190.33 178.32 190.03 179.11L194.3 179.5C194.389 179.514 194.47 179.56 194.528 179.629C194.586 179.697 194.618 179.785 194.618 179.875C194.618 179.965 194.586 180.052 194.528 180.121C194.47 180.19 194.389 180.235 194.3 180.25H194.19Z" fill="#F28F8F"/>
<path d="M183.291 174C183.291 174 179.481 172.3 178.511 175.11C177.541 177.92 178.951 184.69 180.901 185.86C182.851 187.03 184.631 185.39 183.571 181.95C182.948 179.345 182.853 176.642 183.291 174Z" fill="#FFA8A7"/>
<path d="M182.12 186.62C181.619 186.608 181.132 186.459 180.71 186.19C178.52 184.88 177.18 177.82 178.16 174.99C178.202 174.908 178.272 174.845 178.357 174.811C178.443 174.777 178.537 174.775 178.624 174.806C178.71 174.836 178.783 174.897 178.828 174.977C178.873 175.056 178.888 175.15 178.87 175.24C177.93 177.95 179.35 184.5 181.1 185.55C181.323 185.71 181.582 185.813 181.855 185.848C182.127 185.882 182.404 185.849 182.66 185.75C182.912 185.591 183.12 185.371 183.265 185.111C183.41 184.85 183.487 184.558 183.49 184.26C183.494 184.21 183.507 184.163 183.53 184.119C183.553 184.075 183.585 184.037 183.623 184.006C183.662 183.975 183.706 183.952 183.754 183.939C183.801 183.926 183.851 183.923 183.9 183.93C183.949 183.933 183.998 183.947 184.042 183.97C184.086 183.993 184.125 184.024 184.157 184.062C184.189 184.101 184.212 184.145 184.227 184.193C184.241 184.24 184.245 184.29 184.24 184.34C184.225 184.763 184.104 185.175 183.887 185.539C183.671 185.903 183.365 186.206 183 186.42C182.726 186.553 182.425 186.621 182.12 186.62Z" fill="#F28F8F"/>
<path d="M187.09 173.32C187.09 173.32 183.28 171.62 182.31 174.42C181.34 177.22 182.75 184.01 184.7 185.18C186.65 186.35 188.43 184.71 187.36 181.27C186.744 178.664 186.652 175.962 187.09 173.32Z" fill="#FFA8A7"/>
<path d="M185.92 185.93C185.42 185.916 184.933 185.768 184.51 185.5C182.31 184.19 180.98 177.13 181.96 174.3C181.975 174.253 181.998 174.21 182.03 174.173C182.062 174.136 182.101 174.105 182.145 174.084C182.189 174.062 182.237 174.05 182.286 174.048C182.335 174.045 182.384 174.053 182.43 174.07C182.477 174.086 182.521 174.111 182.558 174.144C182.595 174.176 182.625 174.216 182.647 174.261C182.668 174.306 182.68 174.355 182.683 174.404C182.685 174.454 182.677 174.503 182.66 174.55C181.73 177.26 183.14 183.81 184.89 184.86C185.142 185.052 185.447 185.162 185.764 185.175C186.081 185.188 186.394 185.102 186.66 184.93C187.22 184.49 187.6 183.32 187 181.38C186.364 178.716 186.269 175.952 186.72 173.25C186.727 173.201 186.744 173.155 186.77 173.113C186.796 173.071 186.83 173.035 186.87 173.007C186.91 172.979 186.956 172.959 187.004 172.95C187.052 172.94 187.102 172.94 187.15 172.95C187.247 172.967 187.334 173.022 187.392 173.102C187.45 173.182 187.474 173.282 187.46 173.38C187.035 175.965 187.123 178.609 187.72 181.16C188.33 183.16 188.1 184.75 187.12 185.52C186.777 185.787 186.355 185.932 185.92 185.93Z" fill="#F28F8F"/>
<path d="M191 197.13C191 197.13 195.87 190.84 197.09 186.23C198.31 181.62 196.67 178.67 194.04 178.23C191.41 177.79 183.46 178.04 185.72 180.75C187.98 183.46 190.38 181.59 191.41 182.32C191.41 182.32 183.41 186.32 184.6 194.07L191 197.13Z" fill="#FFA8A7"/>
<path d="M185.21 189.21C185.164 189.22 185.116 189.22 185.07 189.21C185.024 189.192 184.981 189.165 184.945 189.131C184.909 189.096 184.881 189.055 184.861 189.009C184.841 188.964 184.831 188.914 184.831 188.865C184.831 188.815 184.841 188.766 184.86 188.72C186.014 186.173 187.901 184.028 190.28 182.56H189.93C189.106 182.755 188.243 182.71 187.444 182.43C186.645 182.15 185.942 181.647 185.42 180.98C185.182 180.77 185.022 180.487 184.964 180.175C184.906 179.863 184.954 179.541 185.1 179.26C186.16 177.42 192.36 177.55 194.1 177.85C194.555 177.927 194.995 178.079 195.4 178.3C195.451 178.319 195.498 178.348 195.537 178.387C195.576 178.425 195.606 178.472 195.625 178.523C195.644 178.574 195.652 178.628 195.648 178.683C195.644 178.737 195.629 178.79 195.603 178.838C195.577 178.886 195.54 178.928 195.497 178.961C195.453 178.993 195.403 179.016 195.349 179.028C195.296 179.039 195.241 179.039 195.187 179.027C195.134 179.016 195.084 178.993 195.04 178.96C194.707 178.776 194.345 178.651 193.97 178.59C191.68 178.2 186.43 178.44 185.75 179.64C185.7 179.72 185.56 179.97 186 180.5C186.445 181.069 187.046 181.497 187.73 181.729C188.414 181.962 189.151 181.99 189.85 181.81C190.444 181.658 191.072 181.726 191.62 182C191.671 182.04 191.711 182.092 191.737 182.151C191.763 182.21 191.775 182.275 191.77 182.34C191.764 182.402 191.743 182.463 191.708 182.515C191.673 182.567 191.626 182.61 191.57 182.64C188.947 184.057 186.845 186.275 185.57 188.97C185.544 189.043 185.495 189.107 185.43 189.15C185.365 189.193 185.288 189.214 185.21 189.21Z" fill="#F28F8F"/>
<path d="M241.32 251.87C241.21 251.94 235.74 255.12 220.87 255.12C211.774 255.053 202.983 251.829 196 246C195.85 247.85 195.71 249.66 195.58 251.39C199.46 254.39 208.42 260.39 219.46 260.39C234.32 260.39 241.27 257.02 241.27 257.02C241.24 255.29 241.25 253.58 241.32 251.87Z" fill="#2E3192"/>
<path d="M149.101 174.78C149.101 174.78 149.511 174.13 153.421 171.64C155.511 170.32 156.631 167.11 158.231 167.46C159.831 167.81 159.741 173.37 155.461 175.53C155.461 175.53 156.341 181.06 152.621 183.21L149.101 174.78Z" fill="#FFA8A7"/>
<path d="M152.81 183.529L152.44 182.879C155.89 180.879 155.1 175.639 155.09 175.589C155.073 175.51 155.084 175.427 155.12 175.355C155.157 175.282 155.216 175.224 155.29 175.189C156.412 174.618 157.34 173.729 157.961 172.634C158.581 171.539 158.866 170.285 158.78 169.029C158.7 168.359 158.45 167.889 158.15 167.829C157.47 167.679 156.77 168.549 155.97 169.569C155.326 170.492 154.532 171.3 153.62 171.959C149.97 174.289 149.43 174.959 149.41 174.959L148.79 174.549C148.86 174.429 149.43 173.709 153.22 171.299C154.057 170.682 154.786 169.933 155.38 169.079C156.3 167.909 157.16 166.809 158.31 167.079C158.95 167.219 159.39 167.889 159.52 168.909C159.633 170.277 159.348 171.648 158.698 172.856C158.049 174.065 157.063 175.059 155.86 175.719C156 176.909 156.27 181.539 152.81 183.529Z" fill="#F28F8F"/>
<path d="M96.5297 383.56C96.5297 383.56 97.5297 386.12 99.3597 385.97C99.3597 385.97 98.7197 381.77 102.71 381.77C106.7 381.77 106.88 381.96 106.88 385.98C106.88 385.98 107.65 391.57 110.61 394.71C113.57 397.85 117.93 404.58 109.28 405.9C100.63 407.22 98.2797 398.34 97.8497 396.96C97.3397 395.14 93.6397 393.85 95.4297 389.12C95.9397 387.78 95.7097 385.82 95.6197 384.35C95.5796 383.94 95.6407 383.527 95.7977 383.147C95.9546 382.767 96.2025 382.431 96.5197 382.17L96.5297 383.56Z" fill="#455A64"/>
<path d="M109.67 405C100.78 406.35 98.3297 397.23 97.9297 395.82C97.5297 394.41 95.3297 393.33 94.9897 390.82C94.5797 394.18 97.4097 395.37 97.8497 396.94C98.2497 398.32 100.63 407.2 109.28 405.88C112.35 405.41 113.77 404.27 114.22 402.88C113.47 403.85 112.05 404.61 109.67 405Z" fill="#263238"/>
<path d="M101.46 389.39C101.408 389.39 101.356 389.38 101.308 389.359C101.259 389.338 101.216 389.308 101.18 389.27C101.145 389.235 101.117 389.194 101.097 389.148C101.078 389.103 101.068 389.054 101.068 389.005C101.068 388.955 101.078 388.906 101.097 388.861C101.117 388.815 101.145 388.774 101.18 388.74C101.31 388.62 104.37 385.9 107.4 387.49C107.445 387.512 107.485 387.543 107.517 387.581C107.55 387.619 107.574 387.663 107.589 387.71C107.604 387.758 107.609 387.808 107.604 387.858C107.599 387.908 107.584 387.956 107.56 388C107.512 388.086 107.431 388.151 107.336 388.179C107.24 388.207 107.138 388.196 107.05 388.15C104.48 386.8 101.71 389.27 101.68 389.3C101.618 389.352 101.541 389.384 101.46 389.39Z" fill="white"/>
<path d="M102.66 392.1C102.608 392.099 102.556 392.089 102.508 392.068C102.46 392.047 102.417 392.017 102.38 391.98C102.345 391.945 102.317 391.904 102.298 391.858C102.278 391.813 102.269 391.764 102.269 391.715C102.269 391.665 102.278 391.616 102.298 391.571C102.317 391.525 102.345 391.484 102.38 391.45C102.51 391.33 105.57 388.61 108.6 390.2C108.645 390.222 108.685 390.253 108.717 390.291C108.75 390.329 108.774 390.373 108.789 390.42C108.804 390.468 108.809 390.518 108.804 390.568C108.799 390.618 108.784 390.666 108.76 390.71C108.712 390.796 108.631 390.861 108.536 390.889C108.441 390.917 108.338 390.906 108.25 390.859C105.69 389.509 102.91 391.98 102.88 392.01C102.819 392.062 102.741 392.094 102.66 392.1Z" fill="white"/>
<path d="M103.68 394.64C103.627 394.64 103.576 394.629 103.528 394.608C103.479 394.588 103.436 394.557 103.4 394.52C103.333 394.448 103.296 394.353 103.296 394.255C103.296 394.156 103.333 394.062 103.4 393.99C103.53 393.87 106.6 391.14 109.63 392.74C109.673 392.762 109.712 392.792 109.743 392.83C109.775 392.867 109.798 392.911 109.812 392.958C109.826 393.004 109.83 393.053 109.825 393.102C109.819 393.15 109.804 393.197 109.78 393.24C109.759 393.284 109.729 393.324 109.692 393.356C109.655 393.389 109.611 393.413 109.564 393.428C109.518 393.443 109.468 393.448 109.419 393.443C109.37 393.438 109.323 393.424 109.28 393.4C106.71 392.05 103.93 394.52 103.9 394.54C103.841 394.598 103.763 394.634 103.68 394.64Z" fill="white"/>
<path d="M126.121 375.24C126.121 375.24 127.801 376.24 128.561 376.81C129.321 377.38 131.881 377.5 132.561 376.75C133.241 376 132.161 373.93 135.661 372.75C139.161 371.57 138.161 376.43 138.161 376.43C138.161 376.43 139.431 379.52 143.841 381.33C148.251 383.14 154.841 383.61 151.841 389.47C150.531 392.03 142.111 394.16 136.581 390.13C134.803 388.954 132.711 388.344 130.581 388.38C128.261 388.38 123.291 387.24 123.721 383.54C124.151 379.84 125.001 379 125.001 377.66C125.001 376.32 124.771 374.83 126.061 374.33L126.121 375.24Z" fill="#455A64"/>
<path d="M136.51 389.08C134.599 387.82 132.349 387.171 130.06 387.22C127.86 387.238 125.714 386.535 123.95 385.22C124.95 387.58 128.66 388.36 130.58 388.36C132.711 388.324 134.803 388.934 136.58 390.11C142.1 394.11 150.53 392.01 151.84 389.46C149.07 391.61 141.63 392.82 136.51 389.08Z" fill="#263238"/>
<path d="M134 381.129C133.957 381.139 133.913 381.139 133.87 381.129C133.824 381.113 133.782 381.087 133.745 381.054C133.709 381.02 133.68 380.98 133.66 380.936C133.639 380.891 133.628 380.843 133.626 380.793C133.625 380.744 133.633 380.695 133.65 380.649C133.71 380.489 135.14 376.649 138.56 376.649C138.661 376.649 138.758 376.689 138.829 376.761C138.9 376.832 138.94 376.929 138.94 377.029C138.94 377.128 138.901 377.222 138.832 377.291C138.763 377.36 138.668 377.399 138.57 377.399C135.67 377.399 134.36 380.899 134.35 380.929C134.317 380.992 134.266 381.044 134.204 381.08C134.142 381.115 134.072 381.132 134 381.129Z" fill="white"/>
<path d="M136.84 382.87C136.797 382.879 136.753 382.879 136.71 382.87C136.664 382.853 136.621 382.828 136.585 382.794C136.549 382.761 136.52 382.721 136.499 382.676C136.479 382.632 136.468 382.583 136.466 382.534C136.464 382.485 136.473 382.436 136.49 382.39C136.49 382.26 137.75 379.01 140.65 379C140.7 378.999 140.749 379.007 140.795 379.025C140.841 379.043 140.883 379.07 140.918 379.105C140.954 379.139 140.982 379.181 141.001 379.226C141.02 379.272 141.03 379.321 141.03 379.37C141.03 379.471 140.99 379.568 140.919 379.639C140.848 379.71 140.751 379.75 140.65 379.75C138.28 379.75 137.2 382.62 137.19 382.65C137.159 382.717 137.11 382.773 137.048 382.812C136.986 382.851 136.914 382.871 136.84 382.87Z" fill="white"/>
<path d="M140 384.819H139.88C139.787 384.786 139.71 384.716 139.667 384.626C139.624 384.537 139.618 384.434 139.65 384.339C139.7 384.199 140.92 380.949 143.82 380.939C143.909 380.954 143.99 381 144.048 381.068C144.107 381.137 144.139 381.224 144.139 381.314C144.139 381.405 144.107 381.492 144.048 381.56C143.99 381.629 143.909 381.675 143.82 381.689C141.44 381.689 140.37 384.559 140.36 384.589C140.329 384.659 140.279 384.717 140.215 384.758C140.151 384.799 140.076 384.82 140 384.819Z" fill="white"/>
<path d="M438.429 217.639C438.178 217.477 437.968 217.258 437.819 216.998C437.669 216.739 437.584 216.448 437.569 216.149V209.999C437.569 209.449 437.949 209.229 438.429 209.509C438.679 209.673 438.887 209.893 439.037 210.152C439.186 210.411 439.273 210.701 439.289 210.999V217.159C439.289 217.699 438.899 217.919 438.429 217.639Z" fill="#2E3192"/>
<path d="M441.089 216.109L435.759 212.999C435.508 212.835 435.299 212.613 435.15 212.352C435.001 212.092 434.915 211.799 434.899 211.499C434.899 210.949 435.279 210.729 435.759 211.009L441.089 214.089C441.342 214.251 441.553 214.47 441.704 214.729C441.856 214.988 441.943 215.28 441.959 215.579C441.999 216.159 441.569 216.379 441.089 216.109Z" fill="#2E3192"/>
<path d="M445.48 201C445.23 200.836 445.022 200.616 444.873 200.357C444.724 200.098 444.637 199.808 444.62 199.51V193.35C444.62 192.8 445.01 192.58 445.48 192.85C445.733 193.014 445.943 193.235 446.094 193.496C446.245 193.756 446.333 194.049 446.35 194.35V200.51C446.35 201.07 446 201.3 445.48 201Z" fill="#2E3192"/>
<path d="M448.15 199.479L442.82 196.399C442.568 196.237 442.359 196.017 442.21 195.758C442.06 195.499 441.974 195.208 441.96 194.909C441.96 194.359 442.34 194.139 442.82 194.409L448.15 197.489C448.401 197.656 448.608 197.88 448.756 198.142C448.904 198.405 448.987 198.698 449 198.999C449 199.539 448.63 199.759 448.15 199.479Z" fill="#2E3192"/>
<path d="M412.429 275.9C412.18 275.733 411.972 275.511 411.823 275.251C411.674 274.99 411.587 274.699 411.569 274.4V268.24C411.569 267.69 411.959 267.47 412.429 267.75C412.681 267.912 412.89 268.131 413.04 268.39C413.189 268.65 413.275 268.941 413.289 269.24V275.4C413.289 276 412.909 276.17 412.429 275.9Z" fill="#2E3192"/>
<path d="M415.099 274.36L409.759 271.28C409.51 271.113 409.302 270.891 409.153 270.631C409.004 270.37 408.917 270.079 408.899 269.78C408.899 269.23 409.289 269.01 409.759 269.29L415.099 272.37C415.351 272.532 415.56 272.751 415.71 273.01C415.859 273.27 415.945 273.561 415.959 273.86C415.999 274.41 415.579 274.63 415.099 274.36Z" fill="#2E3192"/>
<path d="M305.54 206.73C305.29 206.565 305.083 206.345 304.933 206.086C304.784 205.828 304.697 205.538 304.68 205.24V199.08C304.68 198.53 305.07 198.3 305.54 198.58C305.791 198.742 306.001 198.961 306.15 199.22C306.3 199.48 306.385 199.771 306.4 200.07V206.23C306.4 206.78 306 207 305.54 206.73Z" fill="#2E3192"/>
<path d="M308.21 205.19L302.87 202.11C302.62 201.945 302.413 201.725 302.264 201.466C302.114 201.208 302.027 200.918 302.01 200.62C302.01 200.07 302.4 199.84 302.87 200.12L308.21 203.2C308.461 203.362 308.671 203.581 308.82 203.84C308.97 204.1 309.055 204.391 309.07 204.69C309.07 205.24 308.69 205.46 308.21 205.19Z" fill="#2E3192"/>
<path d="M408.85 360.219C408.144 360.206 407.454 360.006 406.85 359.639C405.748 358.933 404.831 357.974 404.176 356.842C403.52 355.709 403.144 354.436 403.08 353.129C403.013 352.548 403.118 351.96 403.381 351.437C403.645 350.915 404.055 350.48 404.562 350.188C405.069 349.896 405.651 349.758 406.235 349.792C406.819 349.826 407.38 350.03 407.85 350.379C408.949 351.088 409.863 352.048 410.517 353.18C411.171 354.312 411.546 355.584 411.61 356.889C411.658 357.474 411.548 358.062 411.292 358.59C411.035 359.117 410.64 359.566 410.15 359.889C409.752 360.108 409.304 360.221 408.85 360.219ZM405.93 351.799C405.809 351.796 405.688 351.824 405.58 351.879C405.407 352.034 405.275 352.229 405.194 352.447C405.114 352.665 405.089 352.899 405.12 353.129C405.18 354.086 405.462 355.016 405.942 355.845C406.423 356.675 407.09 357.382 407.89 357.909C408.023 358.143 408.243 358.314 408.501 358.385C408.76 358.456 409.037 358.422 409.27 358.289C409.504 358.157 409.675 357.937 409.746 357.678C409.817 357.419 409.783 357.143 409.65 356.909C409.59 355.954 409.309 355.025 408.83 354.196C408.352 353.367 407.688 352.659 406.89 352.129C406.602 351.942 406.272 351.829 405.93 351.799Z" fill="#2E3192"/>
<path d="M428.66 292.45C427.953 292.436 427.263 292.236 426.66 291.87C425.559 291.163 424.644 290.203 423.99 289.071C423.335 287.938 422.962 286.666 422.9 285.36C422.835 284.78 422.94 284.194 423.203 283.673C423.466 283.152 423.875 282.72 424.38 282.428C424.885 282.136 425.464 281.998 426.047 282.03C426.629 282.062 427.19 282.264 427.66 282.61C428.761 283.316 429.678 284.275 430.334 285.407C430.99 286.54 431.365 287.813 431.43 289.12C431.476 289.704 431.365 290.291 431.108 290.818C430.851 291.346 430.458 291.795 429.97 292.12C429.568 292.34 429.117 292.453 428.66 292.45ZM425.74 284C425.618 283.996 425.498 284.024 425.39 284.08C425.217 284.234 425.084 284.429 425.004 284.647C424.924 284.865 424.898 285.099 424.93 285.33C424.99 286.285 425.271 287.214 425.749 288.043C426.228 288.872 426.892 289.579 427.69 290.11C427.873 290.25 428.088 290.345 428.316 290.385C428.544 290.425 428.779 290.409 429 290.34C429.173 290.185 429.305 289.99 429.385 289.772C429.465 289.554 429.491 289.32 429.46 289.09C429.397 288.133 429.115 287.204 428.634 286.375C428.154 285.546 427.488 284.839 426.69 284.31C426.404 284.127 426.077 284.021 425.74 284Z" fill="#2E3192"/>
<path d="M367.34 223.85C366.634 223.837 365.944 223.636 365.34 223.27C364.24 222.563 363.324 221.604 362.67 220.471C362.016 219.339 361.642 218.066 361.58 216.76C361.515 216.18 361.621 215.594 361.884 215.073C362.147 214.553 362.556 214.12 363.061 213.828C363.566 213.536 364.145 213.398 364.728 213.43C365.31 213.463 365.87 213.664 366.34 214.01C367.441 214.717 368.356 215.676 369.01 216.809C369.664 217.941 370.038 219.214 370.1 220.52C370.149 221.104 370.04 221.69 369.785 222.218C369.53 222.745 369.138 223.195 368.65 223.52C368.248 223.738 367.798 223.852 367.34 223.85ZM364.42 215.43C364.302 215.428 364.185 215.455 364.08 215.51C363.907 215.665 363.775 215.86 363.695 216.078C363.614 216.296 363.589 216.53 363.62 216.76C363.681 217.716 363.961 218.644 364.44 219.473C364.919 220.303 365.583 221.01 366.38 221.54C366.513 221.773 366.733 221.944 366.992 222.016C367.25 222.087 367.527 222.053 367.76 221.92C367.994 221.787 368.165 221.567 368.236 221.309C368.307 221.05 368.273 220.773 368.14 220.54C368.082 219.584 367.802 218.654 367.324 217.825C366.845 216.995 366.179 216.288 365.38 215.76C365.093 215.572 364.763 215.458 364.42 215.43Z" fill="#2E3192"/>
<path d="M405.279 307.35C405.279 296.95 397.979 284.35 388.979 279.12C384.419 276.49 380.299 276.28 377.339 278.06L371.229 281.65L373.069 284.73C372.808 285.982 372.68 287.26 372.689 288.54C372.689 298.93 379.979 311.54 388.979 316.76C390.349 317.57 391.822 318.189 393.359 318.6L394.879 321.15L400.169 318.08C400.405 317.962 400.632 317.828 400.849 317.68C403.599 315.88 405.279 312.32 405.279 307.35Z" fill="#B72851"/>
<path opacity="0.3" d="M405.279 307.35C405.279 296.95 397.979 284.35 388.979 279.12C384.419 276.49 380.299 276.28 377.339 278.06L371.229 281.65L373.069 284.73C372.808 285.982 372.68 287.26 372.689 288.54C372.689 298.93 379.979 311.54 388.979 316.76C390.349 317.57 391.822 318.189 393.359 318.6L394.879 321.15L400.169 318.08C400.405 317.962 400.632 317.828 400.849 317.68C403.599 315.88 405.279 312.32 405.279 307.35Z" fill="black"/>
<path d="M399.73 310.55C399.73 320.94 392.44 325.15 383.44 319.95C374.44 314.75 367.14 302.12 367.14 291.73C367.14 281.34 374.44 277.13 383.44 282.32C392.44 287.51 399.73 300.16 399.73 310.55Z" fill="#B72851"/>
<path d="M388.09 295.87C385.52 294.39 383.44 296.02 383.44 299.51C383.44 296.02 381.36 291.99 378.79 290.51C376.22 289.03 374.14 290.66 374.14 294.16C374.14 303.06 383.44 312.23 383.44 312.23C383.44 312.23 392.74 313.79 392.74 304.89C392.74 301.39 390.65 297.35 388.09 295.87Z" fill="white"/>
<path d="M305.54 179C305.54 168.61 298.25 156 289.25 150.78C284.69 148.15 280.57 147.94 277.61 149.71L271.49 153.3L273.33 156.37C273.074 157.627 272.946 158.907 272.95 160.19C272.95 170.58 280.25 183.19 289.25 188.41C290.616 189.22 292.086 189.839 293.62 190.25L295.15 192.8L300.44 189.73C300.675 189.61 300.902 189.476 301.12 189.33C303.86 187.5 305.54 183.94 305.54 179Z" fill="#B72851"/>
<path opacity="0.3" d="M305.54 179C305.54 168.61 298.25 156 289.25 150.78C284.69 148.15 280.57 147.94 277.61 149.71L271.49 153.3L273.33 156.37C273.074 157.627 272.946 158.907 272.95 160.19C272.95 170.58 280.25 183.19 289.25 188.41C290.616 189.22 292.086 189.839 293.62 190.25L295.15 192.8L300.44 189.73C300.675 189.61 300.902 189.476 301.12 189.33C303.86 187.5 305.54 183.94 305.54 179Z" fill="black"/>
<path d="M295.221 192.717C301.583 189.045 301.582 177.134 295.219 166.114C288.857 155.094 278.543 149.138 272.181 152.811C265.82 156.484 265.821 168.394 272.183 179.414C278.545 190.434 288.86 196.39 295.221 192.717Z" fill="#B72851"/>
<path d="M288.35 167.49C285.78 166.01 283.7 167.64 283.7 171.13C283.7 167.64 281.62 163.6 279.05 162.13C276.48 160.66 274.41 162.28 274.41 165.78C274.41 174.67 283.7 183.85 283.7 183.85C283.7 183.85 293 185.41 293 176.51C293 173 290.92 169 288.35 167.49Z" fill="white"/>
<path d="M365.879 246C365.879 237 359.559 226 351.749 221.53C347.799 219.24 344.229 219.06 341.659 220.6L336.359 223.71L337.949 226.38C337.729 227.466 337.622 228.572 337.629 229.68C337.629 238.68 343.949 249.68 351.749 254.15C352.933 254.852 354.209 255.387 355.539 255.74L356.869 257.96L361.459 255.29C361.645 255.205 361.826 255.108 361.999 255C364.429 253.43 365.879 250.34 365.879 246Z" fill="#B72851"/>
<path opacity="0.3" d="M365.879 246C365.879 237 359.559 226 351.749 221.53C347.799 219.24 344.229 219.06 341.659 220.6L336.359 223.71L337.949 226.38C337.729 227.466 337.622 228.572 337.629 229.68C337.629 238.68 343.949 249.68 351.749 254.15C352.933 254.852 354.209 255.387 355.539 255.74L356.869 257.96L361.459 255.29C361.645 255.205 361.826 255.108 361.999 255C364.429 253.43 365.879 250.34 365.879 246Z" fill="black"/>
<path d="M356.943 257.947C362.462 254.76 362.464 244.43 356.947 234.874C351.429 225.317 342.482 220.154 336.963 223.34C331.443 226.527 331.441 236.857 336.959 246.414C342.476 255.97 351.423 261.133 356.943 257.947Z" fill="#B72851"/>
<path d="M351 236.08C348.77 234.79 347 236.21 347 239.24C347 236.24 345.19 232.71 343 231.42C340.81 230.13 339 231.55 339 234.58C339 242.3 347.06 250.25 347.06 250.25C347.06 250.25 355.12 251.61 355.12 243.89C355 240.86 353.2 237.36 351 236.08Z" fill="white"/>
<path d="M442 180C442 171 435.67 160 427.87 155.53C423.87 153.25 420.34 153.06 417.78 154.6L412.47 157.71L414.07 160.38C413.846 161.469 413.735 162.578 413.74 163.69C413.74 172.69 420.07 183.69 427.87 188.16C429.054 188.861 430.329 189.396 431.66 189.75L432.98 191.96L437.57 189.3C437.77 189.19 437.97 189.08 438.16 188.96C440.5 187.38 442 184.3 442 180Z" fill="#B72851"/>
<path opacity="0.3" d="M442 180C442 171 435.67 160 427.87 155.53C423.87 153.25 420.34 153.06 417.78 154.6L412.47 157.71L414.07 160.38C413.846 161.469 413.735 162.578 413.74 163.69C413.74 172.69 420.07 183.69 427.87 188.16C429.054 188.861 430.329 189.396 431.66 189.75L432.98 191.96L437.57 189.3C437.77 189.19 437.97 189.08 438.16 188.96C440.5 187.38 442 184.3 442 180Z" fill="black"/>
<path d="M437.15 182.76C437.15 191.76 430.82 195.42 423.02 190.91C415.22 186.4 408.89 175.45 408.89 166.44C408.89 157.43 415.22 153.78 423.02 158.29C430.82 162.8 437.15 173.75 437.15 182.76Z" fill="#B72851"/>
<path d="M427.05 170C424.82 168.72 423.05 170.13 423.05 173.16C423.05 170.16 421.25 166.63 419.05 165.35C416.85 164.07 415.05 165.48 415.05 168.51C415.05 176.22 423.11 184.17 423.11 184.17C423.11 184.17 431.17 185.53 431.17 177.81C431.08 174.81 429.28 171.32 427.05 170Z" fill="white"/>
</svg>
